<?xml version="1.0" encoding="UTF-8"?>
<svg id="Layer_1" xmlns="http://www.w3.org/2000/svg" version="1.1" viewBox="0 0 30 30">
  <!-- Generator: Adobe Illustrator 30.5.1, SVG Export Plug-In . SVG Version: 2.1.4 Build 3)  -->
  <defs>
    <style>
      .st0 {
        fill: none;
      }

      .st1 {
        fill: #425fbc;
      }

      .st2 {
        fill: #059976;
      }

      .st3 {
        fill: #f9b200;
      }

      .st4 {
        fill: #8892bd;
      }
    </style>
  </defs>
  <rect class="st0" x="13" y="13.1" width="3.9" height="3.9" transform="translate(-6.2 15) rotate(-45)"/>
  <path class="st0" d="M3.9,17.8l2.8-2.8h0L1.1,9.4c-.7,1.7-1.1,3.6-1.1,5.6s.4,3.9,1.1,5.6h0l2.8-2.8Z"/>
  <path class="st0" d="M12.2,15l-2.8-2.8,2.8-2.8h0l-2.7-2.7-2.8-2.8-.8-.8c-1,.8-2,1.7-2.8,2.8l6.4,6.3,2.7,2.8Z"/>
  <path class="st0" d="M12.2,3.9l2.8,2.8,5.6-5.6c-1.7-.7-3.6-1.1-5.6-1.1s-3.9.4-5.6,1.1h0l2.8,2.8Z"/>
  <path class="st0" d="M17.8,20.5l2.8,2.8,2.8,2.8.8.8c1-.8,2-1.7,2.8-2.8l-6.3-6.3-2.9,2.7Z"/>
  <path class="st0" d="M15,12.2h0l-2.8,2.8,2.8,2.8h0l-2.8,2.8-2.8-2.8-2.8,2.8-2.8,2.8-.8.8c.8,1,1.7,2,2.8,2.8l12-12-2.8-2.8Z"/>
  <path class="st0" d="M17.8,26.1l-2.8-2.8-5.6,5.6c1.7.7,3.6,1.1,5.6,1.1s3.9-.4,5.6-1.1h0l-2.8-2.8Z"/>
  <path class="st0" d="M26.1,12.2l-2.8,2.8,5.6,5.6c.7-1.7,1.1-3.6,1.1-5.6s-.4-3.9-1.1-5.6h0l-2.8,2.8Z"/>
  <path class="st0" d="M23.3,3.9l-5.5,5.6h0l2.8,2.8,2.8-2.8,2.8-2.8.8-.8c-.8-1-1.7-2-2.8-2.8l-.9.8h0Z"/>
  <path class="st2" d="M15,6.7l-2.8,2.8h0l-2.8,2.8,2.8,2.8,2.8-2.8h0l2.8-2.8,5.5-5.6h0l.8-.8c-1.1-.8-2.3-1.5-3.5-2l-5.6,5.6h0Z"/>
  <polygon class="st4" points="15 6.7 15 6.7 15 6.7 12.2 9.4 12.2 9.4 15 6.7"/>
  <path class="st1" d="M23.3,15l-2.8-2.8-2.8-2.8h0l-2.7,2.8,2.8,2.8,2.8,2.8,6.3,6.3c.8-1.1,1.5-2.3,2-3.5l-5.6-5.6Z"/>
  <polygon class="st4" points="15 12.2 17.7 9.5 17.7 9.5 15 12.2"/>
  <path class="st2" d="M15,23.3l2.8-2.8h0l2.8-2.8-2.8-2.7-11.9,11.9c1.1.8,2.3,1.5,3.5,2l5.6-5.6h0Z"/>
  <path class="st0" d="M12.2,15l2.8,2.8h0l-2.8,2.8-2.8-2.8-2.7-2.8h0l-2.5-2.5c-.2.8-.3,1.7-.3,2.5,0,3,1.2,5.7,3.2,7.8s4.9,3.2,7.8,3.2,5.7-1.2,7.8-3.2,3.2-4.9,3.2-7.8-1.2-5.7-3.2-7.8c-2-2.1-4.7-3.3-7.7-3.3s-5.7,1.2-7.8,3.3c-.5.5-.9,1-1.3,1.5l3.6,3.5,2.7,2.8Z"/>
  <path class="st3" d="M15,0C9.5,0,4.7,2.9,2.1,7.3c.3-.5.6-1,1-1.5l2.8,2.8c.4-.5.8-1,1.3-1.5,2.1-2,4.8-3.2,7.8-3.2s5.7,1.2,7.8,3.2c2.1,2.1,3.2,4.9,3.2,7.8s-1.2,5.7-3.2,7.8-4.8,3.4-7.8,3.4-5.7-1.2-7.8-3.2-3.3-4.9-3.3-7.9,0-1.7.3-2.5l-3.1-3.1c.1-.2.1-.3.2-.5-.8,1.9-1.3,3.9-1.3,6.1,0,8.3,6.7,15,15,15s15-6.7,15-15S23.3,0,15,0Z"/>
  <path class="st1" d="M6.7,15h0l2.8,2.8,2.8,2.8,2.8-2.8h0l-2.9-2.8-2.8-2.8-3.5-3.5c-.8,1.2-1.4,2.5-1.7,3.8l2.5,2.5Z"/>
  <path class="st3" d="M4.2,12.5c.3-1.4.9-2.7,1.7-3.8l-2.8-2.8c-.4.5-.7,1-1,1.5h0c0,.2-.3.4-.4.6h0c-.1.2-.2.5-.3.7h0c0,.1-.1.1-.1.2h0c0,.2-.2.3-.2.5l3.1,3.1Z"/>
  <polygon class="st4" points="6.7 15 6.7 15 9.5 17.8 9.5 17.8 9.5 17.8 6.7 15"/>
  <path class="st2" d="M6.7,20.6l2.8-2.8h0l-2.8-2.8-2.8,2.8-2.8,2.8h0c.5,1.3,1.2,2.5,2,3.5l.8-.8,2.8-2.7Z"/>
  <path class="st2" d="M23.3,9.4l-2.8,2.8,2.8,2.8,2.8-2.8,2.8-2.8h0c-.5-1.3-1.2-2.5-2-3.5l-.8.8-2.8,2.7Z"/>
  <path class="st1" d="M9.5,6.7l2.8,2.8,2.7-2.8h0l-2.8-2.8-2.7-2.8h0c-1.4.5-2.5,1.2-3.6,2l.8.8,2.8,2.8Z"/>
  <path class="st1" d="M20.6,23.3l-2.8-2.8-2.8,2.8,2.8,2.8,2.8,2.8h0c1.3-.5,2.5-1.2,3.5-2l-.8-.8-2.7-2.8Z"/>
  <polygon class="st2" points="17.8 20.6 15 23.3 15 23.3 17.8 20.5 17.8 20.5 17.8 20.6"/>
</svg>