<?xml version="1.0" encoding="utf-8"?>
<!-- Generator: Adobe Illustrator 25.1.0, SVG Export Plug-In . SVG Version: 6.00 Build 0)  -->
<svg version="1.1" id="Layer_1" xmlns="http://www.w3.org/2000/svg" xmlns:xlink="http://www.w3.org/1999/xlink" x="0px" y="0px"
	 viewBox="0 0 698.6 654.1" style="enable-background:new 0 0 698.6 654.1;" xml:space="preserve">
<style type="text/css">
	.st0{opacity:0.5;fill:#E1E2FE;enable-background:new    ;}
	.st1{opacity:0.66;}
	.st2{opacity:0.5;}
	.st3{fill:#C9CCF7;}
	.st4{fill:#E1E2FE;}
	.st5{fill:#3E479B;}
	.st6{opacity:0.81;}
	.st7{fill:#FFFFFF;}
	.st8{opacity:0.66;fill:#FFFFFF;enable-background:new    ;}
	.st9{opacity:0.39;fill:#28D0AC;enable-background:new    ;}
	.st10{fill:#28D0AC;}
	.st11{fill:#059976;}
	.st12{fill:#CCCCCC;}
	.st13{fill:#6C63FF;}
	.st14{fill:#B4C5E4;}
	.st15{fill:#042FBC;}
	.st16{fill:#599AF2;}
	.st17{fill:#293D7C;}
	.st18{fill:#1A2B63;}
	.st19{fill:#445EA0;}
	.st20{fill:#69CDFF;}
	.st21{fill:#52BBEF;}
	.st22{fill:#D9EAFC;}
	.st23{fill:none;stroke:#9E9EEF;stroke-width:2;stroke-linecap:round;stroke-miterlimit:10;}
	.st24{fill:none;stroke:#F9B200;stroke-width:1.311;stroke-linecap:round;stroke-miterlimit:10;}
	.st25{fill:none;stroke:#9E9EEF;stroke-width:1.311;stroke-linecap:round;stroke-miterlimit:10;stroke-dasharray:3,6;}
</style>
<g>
	<g id="Layer_1_1_">
		<path class="st0" d="M650.9,632.8c0,0-55.6,48.7-145.5-1.1s-112.1-101.8-229.7-93.9S132.4,564.5,57,507.7s-72.5-175.3-12.1-239
			c33-34.8,67.7-44.6,104-51.4c6.3-1.2,12.7-2.3,19.1-3.4c15.6-2.7,31.5-5.6,47.7-10.2c8.8-2.5,17.5-5.6,26-9.2
			c0.3-0.1,0.5-0.2,0.8-0.3c7.3-3.2,14.5-6.8,21.5-10.7c5.1-2.8,10-5.8,14.9-8.9c0.7-0.4,1.3-0.8,2-1.3c7.7-5,15.1-10.2,22.1-15.6
			c7.3-5.6,14.2-11.2,20.5-16.7c16.6-14.3,32.1-29.8,46.3-46.4c0,0,73.5-123.6,187.7-88.2s132.6,116.4,106.8,204.7
			s-25.4,140.8,2.4,205.7C694.4,481.8,728.6,567.2,650.9,632.8z"/>
		<g class="st1">
			<g class="st2">
				<path class="st3" d="M266,200l-12-0.9c-0.5-5.3-1.8-10.4-3.6-15.4c-0.1-0.4-0.3-0.7-0.4-1.1c-0.4,0.7-0.9,1.5-1.4,2.2
					c-3.5,5.7-7.4,11.6-11.5,17.5c0.2,2.2,0.2,4.3,0,6.5c-1.7,22.3-19.6,39.9-41.9,41.3c-6.2,5.4-12.7,10.3-19.5,14.9
					c0.4,0.1,0.7,0.2,1.1,0.3l-0.9,12c-0.5,6.1,4.1,11.3,10.1,11.8l0,0c0.3,0,0.6,0,0.9,0c5.7,0,10.5-4.4,10.9-10.2l0.9-12
					c8.8-0.9,17.4-3.7,25-8.2l7.8,9.1c4,4.6,10.9,5.1,15.5,1.2s5.1-10.9,1.2-15.5l-7.8-9.1c5.6-6.9,9.7-14.9,11.9-23.5l12,0.9
					c6.1,0.5,11.3-4.1,11.8-10.1c0-0.3,0-0.6,0-0.8C276.2,205.2,271.7,200.4,266,200z"/>
			</g>
			<g class="st2">
				<path class="st4" d="M255,166.2l-9.1,7.8c1.6,2.7,3,5.6,4.2,8.5c-0.4,0.7-0.9,1.5-1.4,2.2c-4.3,2.7-8.7,5.4-13.2,7.9
					c-7-23.7-32-37.3-55.7-30.2c-23.7,7-37.3,32-30.2,55.7c0.2,0.6,0.3,1.1,0.5,1.7c-5.7,1-11.4,2-17,3c-1.1-3.6-1.8-7.4-2.2-11.1
					l-11.9-0.9c-5.7-0.4-10.1-5.2-10.2-10.9c0-0.3,0-0.6,0-0.9c0.5-6,5.7-10.6,11.8-10.1l0,0l12,0.9c2.2-8.6,6.3-16.6,11.9-23.5
					l-7.8-9.1c-4.1-4.5-3.7-11.5,0.7-15.5c4.5-4.1,11.5-3.7,15.5,0.7c0.1,0.2,0.3,0.3,0.4,0.5l7.8,9.1c7.6-4.5,16.2-7.3,25-8.2
					l0.9-12c0.4-5.7,5.2-10.2,11-10.2c0.3,0,0.6,0,0.8,0c6.1,0.5,10.6,5.7,10.1,11.8l0,0l-0.9,11.9c8.6,2.2,16.6,6.3,23.5,11.9
					l9.1-7.8c4.7-3.9,11.6-3.3,15.5,1.3C260,155.5,259.5,162.3,255,166.2z"/>
			</g>
			<g class="st2">
				<path class="st3" d="M195.2,250.1c-6.2,5.4-12.7,10.3-19.5,14.9c-8.2-2.3-15.8-6.2-22.3-11.6l-9.1,7.8
					c-4.7,3.8-11.6,3.1-15.5-1.6c-3.7-4.5-3.2-11.1,1.2-15.1l9.1-7.8c-2.6-4.4-4.6-9-6-13.9c5.6-1.1,11.3-2,17-3
					c5.8,17,21.1,28.9,39,30.2C191.1,250.2,193.2,250.2,195.2,250.1z"/>
			</g>
			<g class="st2">
				<path class="st3" d="M248.7,184.8c-3.5,5.7-7.4,11.6-11.5,17.5c-0.2-3.3-0.8-6.5-1.7-9.6C240,190.2,244.4,187.5,248.7,184.8z"/>
			</g>
			<path class="st5" d="M521.5,537.2c-4,0-7.5-2.6-8.7-6.4l-2.1-6.8c-5.5,0.6-11.1,0.1-16.4-1.4l-3.3,6.3c-2.3,4.5-7.9,6.2-12.4,3.9
				s-6.2-7.9-3.9-12.4l3.3-6.3c-4.3-3.5-7.9-7.8-10.6-12.6l-6.8,2.1c-4.8,1.5-10-1.1-11.5-6s1.1-10,6-11.5l0,0l6.8-2.1
				c-0.6-5.5-0.1-11.1,1.4-16.4l-6.3-3.3c-4.5-2.3-6.2-7.9-3.9-12.4s7.9-6.2,12.4-3.9l0,0l6.3,3.3c3.5-4.3,7.8-7.9,12.6-10.6
				l-2.2-6.8c-1.5-4.8,1.1-10,6-11.5s10,1.1,11.5,6l2.1,6.8c5.5-0.6,11.1-0.1,16.4,1.4l3.3-6.3c2.4-4.5,7.9-6.2,12.4-3.8
				c4.4,2.3,6.1,7.8,3.9,12.2l-3.3,6.3c4.3,3.5,7.9,7.8,10.6,12.6l6.8-2.1c4.8-1.6,10,1.1,11.5,5.9c1.6,4.8-1.1,10-5.9,11.5h-0.1
				l-6.8,2.1c0.6,5.5,0.1,11.1-1.4,16.4l6.3,3.3c4.5,2.3,6.3,7.8,4,12.3s-7.8,6.3-12.3,4c0,0-0.1,0-0.1-0.1l-6.3-3.3
				c-3.5,4.3-7.8,7.9-12.6,10.6l2.1,6.8c1.5,4.8-1.2,10-6,11.5C523.4,537,522.4,537.2,521.5,537.2z M512.7,520.7l2.9,9.2
				c1.1,3.2,4.5,5,7.8,3.9c3.2-1,4.9-4.4,4-7.6l-2.9-9.2l1.1-0.6c5.3-2.8,9.9-6.7,13.5-11.4l0.8-1l8.5,4.4c3,1.5,6.7,0.3,8.3-2.7
				c1.5-3,0.4-6.7-2.6-8.2l-8.5-4.4l0.4-1.2c1.8-5.7,2.3-11.7,1.5-17.6l-0.2-1.2l9.2-2.9c3.2-1,5-4.5,4-7.7s-4.5-5-7.7-4l0,0
				l-9.2,2.9l-0.6-1.1c-2.8-5.3-6.7-9.9-11.4-13.5l-1-0.8l4.4-8.5c1.5-3,0.3-6.7-2.7-8.3c-3-1.5-6.7-0.4-8.2,2.6l-4.4,8.5l-1.2-0.4
				c-5.7-1.8-11.7-2.3-17.6-1.5l-1.2,0.2l-2.9-9.2c-1-3.3-4.4-5.1-7.7-4.1c-3.3,1-5.1,4.4-4.1,7.7v0.1l2.9,9.2l-1.1,0.6
				c-5.3,2.8-9.9,6.7-13.5,11.4l-0.8,1l-8.5-4.4c-3-1.6-6.7-0.4-8.3,2.6s-0.4,6.7,2.6,8.3l8.5,4.4l-0.4,1.2
				c-1.8,5.7-2.3,11.7-1.5,17.6l0.2,1.2l-9.2,2.9c-3.2,1.1-5,4.6-3.9,7.8c1,3.2,4.4,4.9,7.6,4l9.2-2.9l0.6,1.1
				c2.8,5.3,6.7,9.9,11.4,13.5l1,0.8l-4.4,8.5c-1.5,3-0.3,6.7,2.7,8.3c3,1.5,6.6,0.4,8.2-2.6l4.4-8.5l1.2,0.4
				c5.7,1.8,11.7,2.3,17.6,1.5L512.7,520.7z M506.1,512.3c-18.1,0-32.8-14.7-32.8-32.8c0-18.1,14.7-32.8,32.8-32.8
				c18.1,0,32.8,14.7,32.8,32.8c0,14.3-9.2,27-22.9,31.3C512.8,511.8,509.5,512.3,506.1,512.3L506.1,512.3z M506.2,449.8
				c-16.4,0-29.8,13.3-29.8,29.7c0,16.4,13.3,29.8,29.7,29.8s29.8-13.3,29.8-29.7c0-11.1-6.2-21.3-16-26.5
				C515.6,451,511,449.8,506.2,449.8L506.2,449.8z"/>
			<path class="st5" d="M600.4,481.1c-6.5,0-11.8-5.3-11.8-11.8c0-0.6,0-1.1,0.1-1.7l1.4-9.9c-7.2-2.6-13.9-6.5-19.6-11.7l-8,6
				c-5.2,3.9-12.6,2.8-16.5-2.5c-3.8-5.2-2.8-12.5,2.4-16.4l8-6c-3.3-6.9-5.2-14.4-5.6-22.1l-9.9-1.4c-6.5-0.9-11-6.8-10.1-13.3
				s6.8-11,13.3-10.1c0.1,0,0.2,0,0.2,0l9.9,1.4c2.6-7.2,6.5-13.9,11.7-19.6l-6-8c-3.9-5.2-2.8-12.6,2.4-16.5s12.6-2.8,16.5,2.4l0,0
				l6,8c6.9-3.3,14.4-5.2,22.1-5.6l1.4-9.9c0.9-6.5,6.8-11,13.3-10.1s11,6.8,10.1,13.3c0,0.1,0,0.2,0,0.2l-1.4,9.9
				c7.2,2.6,13.9,6.5,19.6,11.7l8-6c5.2-3.9,12.6-2.9,16.5,2.3s2.9,12.6-2.3,16.5c0,0-0.1,0-0.1,0.1l-8,6c3.3,6.9,5.2,14.4,5.6,22.1
				l9.9,1.4c6.5,0.9,11,6.8,10.1,13.3s-6.8,11-13.3,10.1c-0.1,0-0.1,0-0.2,0l-9.9-1.4c-2.6,7.2-6.5,13.9-11.7,19.6l6,8
				c3.9,5.2,2.9,12.6-2.3,16.5s-12.6,2.9-16.5-2.3c0,0,0-0.1-0.1-0.1l-6-8c-6.9,3.3-14.4,5.2-22.1,5.6l-1.4,9.9
				C611.2,476.7,606.3,481.1,600.4,481.1z M570.8,442.1l0.9,0.9c5.9,5.5,12.9,9.7,20.6,12.3l1.2,0.4l-1.8,12.4
				c-0.9,4.8,2.3,9.4,7.1,10.2c4.8,0.9,9.4-2.3,10.2-7.1c0-0.2,0.1-0.4,0.1-0.6l1.8-12.4h1.3c8.1-0.3,16-2.3,23.3-5.9l1.1-0.6
				l7.5,10c2.9,3.9,8.4,4.7,12.3,1.8s4.7-8.4,1.8-12.3l-7.5-10l0.9-0.9c5.5-5.9,9.7-12.9,12.3-20.6l0.4-1.2l12.4,1.8
				c4.8,0.9,9.4-2.3,10.2-7.1c0.9-4.8-2.3-9.4-7.1-10.2c-0.2,0-0.4-0.1-0.6-0.1l-12.4-1.8v-1.3c-0.3-8.1-2.3-16-5.9-23.2l-0.6-1.1
				l10-7.5c3.9-2.9,4.7-8.4,1.8-12.3s-8.4-4.7-12.3-1.8l0,0l0,0l-10,7.5l-0.9-0.9c-5.9-5.5-12.9-9.7-20.6-12.3l-1.2-0.4l1.8-12.4
				c0.5-4.8-2.9-9.2-7.8-9.7c-4.6-0.5-8.8,2.6-9.6,7.2l-1.8,12.4h-1.3c-8.1,0.3-16,2.3-23.2,5.9l-1.1,0.6l-7.5-10
				c-2.9-3.9-8.4-4.7-12.3-1.8s-4.7,8.4-1.8,12.3l0,0l7.5,10l-0.9,0.9c-5.5,5.9-9.7,12.9-12.3,20.6l-0.4,1.2l-12.4-1.8
				c-4.8-0.5-9.2,2.9-9.7,7.8c-0.5,4.6,2.6,8.8,7.2,9.6l12.4,1.8v1.3c0.3,8.1,2.3,16,5.9,23.3l0.6,1.1l-10,7.5
				c-3.9,2.9-4.8,8.4-1.9,12.3c2.9,3.9,8.4,4.8,12.3,1.9l0.1-0.1L570.8,442.1z M610.3,445.1c-24,0-43.4-19.4-43.4-43.4
				s19.4-43.4,43.4-43.4s43.4,19.4,43.4,43.4c0,13.7-6.5,26.6-17.5,34.8l0,0C628.7,442.1,619.6,445.1,610.3,445.1L610.3,445.1z
				 M610.1,361.2c-22.3,0-40.4,18.2-40.4,40.5s18.2,40.4,40.5,40.4c8.7,0,17.1-2.8,24.1-8l0,0c17.9-13.4,21.6-38.7,8.2-56.6
				c-6.4-8.6-16-14.3-26.6-15.8C614.1,361.4,612.1,361.2,610.1,361.2L610.1,361.2z M635.3,435.3L635.3,435.3z"/>
		</g>
		<g class="st6">
			<path class="st7" d="M406.1,487.1h-30.9c-0.8,0-1.5-0.7-1.5-1.5s0.7-1.5,1.5-1.5h30.9c0.8,0,1.5,0.7,1.5,1.5
				S407,487.1,406.1,487.1z"/>
			<path class="st7" d="M406.1,519.2h-30.9c-0.8,0-1.5-0.7-1.5-1.5s0.7-1.5,1.5-1.5h30.9c0.8,0,1.5,0.7,1.5,1.5
				S407,519.2,406.1,519.2z"/>
			<path class="st7" d="M429.4,551.6H238.8c-2.2,0-4.1-1.8-4.1-4.1v-98.9c0-2.2,1.8-4.1,4.1-4.1h190.6c2.2,0,4.1,1.8,4.1,4.1v98.9
				C433.5,549.8,431.7,551.6,429.4,551.6z M238.8,447.5c-0.6,0-1.1,0.5-1.1,1.1v98.9c0,0.6,0.5,1.1,1.1,1.1h190.6
				c0.6,0,1.1-0.5,1.1-1.1v-98.9c0-0.6-0.5-1.1-1.1-1.1H238.8L238.8,447.5z"/>
			<path class="st8" d="M429.4,551.6H238.8c-2.2,0-4.1-1.8-4.1-4.1v-98.9c0-2.2,1.8-4.1,4.1-4.1h190.6c2.2,0,4.1,1.8,4.1,4.1v98.9
				C433.5,549.8,431.7,551.6,429.4,551.6z M238.8,447.5c-0.6,0-1.1,0.5-1.1,1.1v98.9c0,0.6,0.5,1.1,1.1,1.1h190.6
				c0.6,0,1.1-0.5,1.1-1.1v-98.9c0-0.6-0.5-1.1-1.1-1.1H238.8L238.8,447.5z"/>
			<path class="st7" d="M406.1,471.5H259c-0.8,0-1.5-0.7-1.5-1.5s0.7-1.5,1.5-1.5h147.1c0.8,0,1.5,0.7,1.5,1.5
				S407,471.5,406.1,471.5z"/>
			<path class="st7" d="M406.1,502.7H259c-0.8,0-1.5-0.7-1.5-1.5s0.7-1.5,1.5-1.5h147.1c0.8,0,1.5,0.7,1.5,1.5
				S407,502.7,406.1,502.7z"/>
			<path class="st7" d="M338.3,487.1H259c-0.8,0-1.5-0.7-1.5-1.5s0.7-1.5,1.5-1.5h79.3c0.8,0,1.5,0.7,1.5,1.5
				S339.2,487.1,338.3,487.1z"/>
			<path class="st7" d="M338.3,519.2H259c-0.8,0-1.5-0.7-1.5-1.5s0.7-1.5,1.5-1.5h79.3c0.8,0,1.5,0.7,1.5,1.5
				S339.2,519.2,338.3,519.2z"/>
			<path class="st7" d="M312.5,534.1H259c-0.8,0-1.5-0.7-1.5-1.5s0.7-1.5,1.5-1.5h53.5c0.8,0,1.5,0.7,1.5,1.5
				S313.4,534.1,312.5,534.1z"/>
		</g>
		<g class="st6">
			<path class="st7" d="M110.8,390.9H76.1c-0.8,0-1.5-0.7-1.5-1.5s0.7-1.5,1.5-1.5h34.7c0.8,0,1.5,0.7,1.5,1.5
				S111.6,390.9,110.8,390.9L110.8,390.9z"/>
			<path class="st7" d="M110.8,354.9H76.1c-0.8,0-1.5-0.7-1.5-1.5s0.7-1.5,1.5-1.5h34.7c0.8,0,1.5,0.7,1.5,1.5
				S111.6,354.9,110.8,354.9L110.8,354.9z"/>
			<path class="st7" d="M264.5,435.4H49.6c-2.2,0-4.1-1.8-4.1-4.1V319.5c0-2.2,1.8-4.1,4.1-4.1h214.9c2.2,0,4.1,1.8,4.1,4.1v111.8
				C268.6,433.6,266.7,435.4,264.5,435.4z M49.6,318.4c-0.6,0-1.1,0.5-1.1,1.1v111.8c0,0.6,0.5,1.1,1.1,1.1h214.9
				c0.6,0,1.1-0.5,1.1-1.1V319.5c0-0.6-0.5-1.1-1.1-1.1H49.6L49.6,318.4z"/>
			<path class="st8" d="M264.5,435.4H49.6c-2.2,0-4.1-1.8-4.1-4.1V319.5c0-2.2,1.8-4.1,4.1-4.1h214.9c2.2,0,4.1,1.8,4.1,4.1v111.8
				C268.6,433.6,266.7,435.4,264.5,435.4z M49.6,318.4c-0.6,0-1.1,0.5-1.1,1.1v111.8c0,0.6,0.5,1.1,1.1,1.1h214.9
				c0.6,0,1.1-0.5,1.1-1.1V319.5c0-0.6-0.5-1.1-1.1-1.1H49.6L49.6,318.4z"/>
			<path class="st7" d="M241.4,408.4H76.1c-0.8,0-1.5-0.7-1.5-1.5s0.7-1.5,1.5-1.5h165.3c0.8,0,1.5,0.7,1.5,1.5
				C242.9,407.7,242.3,408.4,241.4,408.4z"/>
			<path class="st7" d="M241.4,373.4H76.1c-0.8,0-1.5-0.7-1.5-1.5s0.7-1.5,1.5-1.5h165.3c0.8,0,1.5,0.7,1.5,1.5
				C242.9,372.7,242.3,373.4,241.4,373.4z"/>
			<path class="st7" d="M241.4,390.9h-89.1c-0.8,0-1.5-0.7-1.5-1.5s0.7-1.5,1.5-1.5h89.1c0.8,0,1.5,0.7,1.5,1.5
				C242.9,390.2,242.3,390.9,241.4,390.9z"/>
			<path class="st7" d="M241.4,354.9h-89.1c-0.8,0-1.5-0.7-1.5-1.5s0.7-1.5,1.5-1.5h89.1c0.8,0,1.5,0.7,1.5,1.5
				C242.9,354.2,242.3,354.9,241.4,354.9z"/>
			<path class="st7" d="M241.4,338.1h-60.1c-0.8,0-1.5-0.7-1.5-1.5s0.7-1.5,1.5-1.5h60.1c0.8,0,1.5,0.7,1.5,1.5
				C242.9,337.5,242.3,338.1,241.4,338.1z"/>
		</g>
		<path class="st9" d="M554.7,549.8H177.2c-7.7,0-13.9-6.2-13.9-13.9c0-0.2,0-0.5,0-0.7l13.3-259.1c0.4-7.4,6.5-13.2,13.9-13.2h45.8
			c2.9,0,5.6,0.9,8,2.5l51.3,36c2.3,1.6,5.1,2.5,8,2.5h264.2c7.7,0,13.9,6.2,13.9,13.9c0,0.3,0,0.6,0,0.8l-13,218.1
			C568.1,544.1,562.1,549.8,554.7,549.8z"/>
		<path class="st10" d="M575.1,209.1c0,1.7-0.3,3.5-0.8,5.2l0,0l-1.2,2.8L473,460.5c-0.7,1.7-2.7,2.5-4.4,1.8l-234.2-96.5
			c-1.7-0.7-2.5-2.7-1.8-4.4l100.5-244l0.7-1.7l0,0c3.6-7.4,11.9-11.3,19.9-9.4l5,2l203.6,83.8l4.2,1.7c0.1,0.1,0.3,0.1,0.4,0.2
			C572,197.3,575.1,203,575.1,209.1z"/>
		<path class="st11" d="M389.1,229.8l-58.1-24c-1.5-0.6-2.3-2.4-1.6-3.9l23.9-58.1c0.6-1.5,2.4-2.3,3.9-1.6l58.1,23.9
			c1.5,0.6,2.3,2.4,1.6,3.9L393,228.1C392.4,229.7,390.6,230.4,389.1,229.8z"/>
		<path class="st7" d="M501,309.1l-181.7-74.8c-1.5-0.6-2.3-2.4-1.7-3.9c0.6-1.5,2.4-2.3,3.9-1.7h0.1l0,0l181.7,74.8
			c1.5,0.7,2.2,2.4,1.6,4C504.2,309,502.5,309.7,501,309.1L501,309.1L501,309.1z"/>
		<path class="st7" d="M449.2,310.2l-137.8-56.8c-1.5-0.7-2.2-2.4-1.6-4c0.6-1.5,2.4-2.2,3.9-1.6l0,0l137.8,56.8
			c1.5,0.6,2.3,2.4,1.7,3.9C452.6,310.1,450.8,310.8,449.2,310.2C449.3,310.2,449.2,310.2,449.2,310.2z"/>
		<path class="st7" d="M529.4,238.4L449,205.3c-1.5-0.6-2.3-2.4-1.7-3.9c0.6-1.5,2.4-2.3,3.9-1.7h0.1l0,0l80.3,33.1
			c1.5,0.7,2.2,2.4,1.6,4C532.6,238.3,530.9,239,529.4,238.4L529.4,238.4L529.4,238.4z"/>
		<path class="st7" d="M501.4,249.3l-60.3-24.8c-1.5-0.6-2.3-2.4-1.7-3.9c0.6-1.5,2.4-2.3,3.9-1.7h0.1l60.3,24.8
			c1.5,0.6,2.3,2.4,1.7,3.9C504.8,249.2,503.1,249.9,501.4,249.3C501.5,249.3,501.5,249.3,501.4,249.3L501.4,249.3z"/>
		<path class="st7" d="M485.2,347.4l-181.7-74.8c-1.5-0.7-2.2-2.4-1.6-4c0.6-1.5,2.4-2.2,3.9-1.6l0,0l181.7,74.8
			c1.5,0.7,2.2,2.4,1.6,4C488.4,347.3,486.7,348,485.2,347.4L485.2,347.4L485.2,347.4z"/>
		<path class="st7" d="M433.4,348.5l-137.8-56.8c-1.5-0.7-2.2-2.4-1.6-4c0.6-1.5,2.4-2.2,3.9-1.6l0,0l137.8,56.8
			c1.5,0.6,2.3,2.4,1.7,3.9C436.8,348.4,435.1,349.1,433.4,348.5C433.5,348.5,433.5,348.5,433.4,348.5L433.4,348.5L433.4,348.5z"/>
		<path class="st7" d="M469.4,385.7l-181.7-74.8c-1.5-0.6-2.3-2.4-1.6-3.9c0.6-1.5,2.4-2.3,3.9-1.6l181.7,74.8
			c1.5,0.7,2.2,2.4,1.6,4C472.6,385.6,470.9,386.3,469.4,385.7z"/>
		<path class="st12" d="M461.5,404.9l-181.7-74.8c-1.5-0.7-2.2-2.4-1.6-4c0.6-1.5,2.4-2.2,3.9-1.6l181.7,74.8c1.5,0.7,2.2,2.4,1.6,4
			C464.7,404.8,463,405.5,461.5,404.9L461.5,404.9z"/>
		<path class="st13" d="M372.9,403.5c3.6,0.2,7.3,0.1,10.9-0.3c3.3-0.4,6.7-0.9,9.5-2.6c2.5-1.4,4.2-4,4.5-6.8s-1.3-5.4-3.8-6.4
			c-2.6-1.1-5.5-0.7-7.7,1.1c-2.3,2-3.6,5-3.4,8c0.1,6.2,5,12.3,10.5,14.9c6.1,2.9,14.5,0.4,16.1-6.7c0.3-1.5-1.7-2-2.5-1
			c-2.5,2.8-2.3,7,0.5,9.5c2.5,2.3,6.4,2.3,8.9,0.1l-2.3-0.9c1.3,5.6,5.6,10.1,11.2,11.8c1.3,0.4,2.7,0.6,4.2,0.6
			c1.7,0,3.5,0.9,5.1,1.4l11.8,3.8c1.7,0.6,2.8-2.1,1.1-2.6l-10.7-3.5c-1.8-0.6-3.6-1.2-5.3-1.7c-1.3-0.4-2.7-0.2-4-0.4
			c-5.1-1-9.2-4.8-10.5-9.8c-0.1-0.8-0.9-1.3-1.7-1.2c-0.2,0-0.4,0.1-0.6,0.3c-1.5,1.5-4,1.5-5.5-0.1c-1.5-1.5-1.5-4,0.1-5.5l0,0
			l-2.5-1c-1,4.6-6.6,6.3-10.7,5c-4.7-1.8-8.3-5.6-9.8-10.4c-0.7-2.2-0.5-4.6,0.6-6.7c1-1.9,3.1-2.9,5.2-2.6c1.9,0.3,3.3,2,3.1,3.9
			c-0.3,2.1-1.6,3.9-3.6,4.8c-2.5,1.4-5.6,1.7-8.4,2c-3.2,0.4-6.5,0.4-9.7,0.3C371.4,400.5,371,403.4,372.9,403.5L372.9,403.5
			L372.9,403.5z"/>
		<path class="st14" d="M567.8,337.4v198.3c0,7.8-6.3,14.1-14.1,14.1l0,0h-377c-7.8,0-14.1-6.3-14.1-14.1l0,0V296.4
			c0-7.8,6.3-14.1,14.1-14.1l0,0h44.8c2.9,0,5.7,0.9,8.1,2.6l51.2,35.9c2.4,1.7,5.2,2.6,8.1,2.6h264.8
			C561.5,323.2,567.8,329.5,567.8,337.4C567.8,337.3,567.8,337.4,567.8,337.4z"/>
		<path class="st15" d="M193.9,507.3h152.4c3.6,0,6.6,2.9,6.6,6.6l0,0c0,3.6-2.9,6.6-6.6,6.6H193.9c-3.6,0-6.6-2.9-6.6-6.6l0,0
			C187.3,510.2,190.2,507.3,193.9,507.3z"/>
		<path class="st15" d="M193.9,481.8h69.6c3.6,0,6.6,2.9,6.6,6.6l0,0c0,3.6-2.9,6.6-6.6,6.6h-69.6c-3.6,0-6.6-2.9-6.6-6.6l0,0
			C187.3,484.7,190.2,481.8,193.9,481.8z"/>
		<path class="st11" d="M408.7,229.5l-58.1-23.9c-1.7-0.7-2.5-2.7-1.8-4.4l23.9-58.1c0.7-1.7,2.7-2.5,4.4-1.8l58.1,23.9
			c1.7,0.7,2.5,2.7,1.8,4.4l-23.9,58.1C412.3,229.4,410.4,230.2,408.7,229.5z M376.6,142.6c-1-0.4-2.2,0.1-2.6,1.1l-24,58
			c-0.4,1,0.1,2.2,1.1,2.6l58.1,23.9c1,0.4,2.2-0.1,2.6-1.1l23.9-58.1c0.4-1-0.1-2.2-1.1-2.6L376.6,142.6z"/>
		<path class="st16" d="M568.9,465.4L543,491.9l46.9,48.5c7.1,7.3,18.7,7.4,26,0.4c0.1-0.1,0.3-0.3,0.4-0.4l0.3-0.3
			c6.8-7.1,6.8-18.4,0-25.5L568.9,465.4z"/>
		<path class="st17" d="M582,463.2l-17.6-17.6c-9.7,18-24.4,32.8-42.4,42.5l17.6,17.6c2,2,5.3,2,7.3,0l35.2-35.2
			C584,468.5,584,465.2,582,463.2z"/>
		<path class="st18" d="M551.6,493.6l-15-15c-4.6,3.6-9.5,6.8-14.6,9.5l17.6,17.6c2,2,5.3,2,7.3,0l12-12
			C556.8,495.6,553.6,495.6,551.6,493.6z"/>
		<path class="st19" d="M547.8,322.2c41.2,41.2,41.2,108.1,0,149.3s-108.1,41.2-149.3,0s-41.2-108.1,0-149.3
			C439.7,280.9,506.5,280.9,547.8,322.2z"/>
		<path class="st20" d="M525.5,449.1c-28.9,28.9-75.8,28.9-104.7,0c-28.9-28.9-28.9-75.8,0-104.7c28.9-28.9,75.8-28.9,104.7,0l0,0
			C554.4,373.4,554.4,420.2,525.5,449.1z"/>
		<path class="st21" d="M525.5,449.1c2.6-2.6,5-5.4,7.2-8.3c-32.9,24.3-79.2,17.4-103.5-15.5c-19.3-26.2-19.3-61.9,0-88
			c-32.9,24.3-39.8,70.7-15.5,103.5s70.7,39.8,103.5,15.5C520.1,454.1,522.9,451.7,525.5,449.1z"/>
		<circle class="st22" cx="485.8" cy="347.2" r="12.4"/>
		
			<ellipse transform="matrix(0.1602 -0.9871 0.9871 0.1602 74.4526 807.7085)" class="st22" cx="511.9" cy="360.1" rx="8.8" ry="8.8"/>
		
			<image style="overflow:visible;opacity:0.12;enable-background:new    ;" width="372" height="116" xlink:href="9B205ED8.png"  transform="matrix(1 0 0 1 2.129 319.626)">
		</image>
		<path class="st7" d="M51.4,342.4h256.9c15,0,27.2,12.2,27.2,27.2l0,0l0,0c0,15-12.2,27.2-27.2,27.2l0,0H51.4
			c-15,0-27.2-12.2-27.2-27.2l0,0l0,0C24.2,354.5,36.4,342.4,51.4,342.4L51.4,342.4L51.4,342.4z"/>
		<path class="st16" d="M308.3,396.7h-41.8l-0.2-54.3h42c15,0,27.2,12.2,27.2,27.2l0,0l0,0C335.4,384.6,323.3,396.7,308.3,396.7
			L308.3,396.7z"/>
		<path class="st7" d="M297.7,379.1c-6.6,0-11.9-5.3-11.9-11.9s5.3-11.9,11.9-11.9s11.9,5.3,11.9,11.9c0,3.2-1.3,6.2-3.5,8.4
			S300.8,379.1,297.7,379.1z M297.7,358.3c-4.9,0-8.9,4-8.9,8.9s4,8.9,8.9,8.9s8.9-4,8.9-8.9S302.6,358.3,297.7,358.3L297.7,358.3z"
			/>
		<path class="st7" d="M314.4,385.5c-0.4,0-0.8-0.2-1.1-0.4l-9.4-9.4c-0.6-0.6-0.6-1.5,0-2.1s1.5-0.6,2.1,0l9.4,9.4
			c0.6,0.6,0.6,1.5,0,2.1C315.2,385.4,314.8,385.5,314.4,385.5z"/>
		<path class="st0" d="M55.8,362.2h179.8c4,0,7.3,3.3,7.3,7.3l0,0c0,4-3.3,7.3-7.3,7.3H55.8c-4,0-7.3-3.3-7.3-7.3l0,0
			C48.5,365.5,51.8,362.2,55.8,362.2z"/>
		<path class="st23" d="M488.8,95.3l10.7,12c0.9,1,2.4,1.1,3.5,0.2c0.1-0.1,0.1-0.1,0.2-0.2l8.9-9.9c0.9-1,2.4-1.1,3.5-0.2
			c0.1,0.1,0.1,0.1,0.2,0.2l8.9,9.9c0.9,1,2.4,1.1,3.5,0.2c0.1-0.1,0.1-0.1,0.2-0.2l8.9-9.9c0.9-1,2.4-1.1,3.5-0.2
			c0.1,0.1,0.1,0.1,0.2,0.2l8.9,9.9c0.9,1,2.4,1.1,3.5,0.2c0.1-0.1,0.1-0.1,0.2-0.2l8.9-9.9c0.9-1,2.4-1.1,3.5-0.2
			c0.1,0.1,0.1,0.1,0.2,0.2l8.9,9.9c0.9,1,2.4,1.1,3.5,0.2c0.1-0.1,0.1-0.1,0.2-0.2l10.7-12"/>
		<circle class="st24" cx="103.8" cy="502.7" r="19.6"/>
		<circle class="st25" cx="329.1" cy="34" r="19.6"/>
	</g>
</g>
</svg>
