<?xml version="1.0" encoding="utf-8"?>
<!-- Generator: Adobe Illustrator 25.1.0, SVG Export Plug-In . SVG Version: 6.00 Build 0)  -->
<svg version="1.1" id="Layer_1" xmlns="http://www.w3.org/2000/svg" xmlns:xlink="http://www.w3.org/1999/xlink" x="0px" y="0px"
	 viewBox="0 0 317.1 189.7" style="enable-background:new 0 0 317.1 189.7;" xml:space="preserve">
<style type="text/css">
	.st0{fill:url(#SVGID_1_);}
	.st1{fill:#D1D4FC;}
	.st2{fill:#FFCEBD;}
	.st3{fill:#059976;}
	.st4{fill:#191C3C;}
	.st5{fill:#425FBC;}
	.st6{fill:#FFFFFF;}
	.st7{fill:#4D5068;}
	.st8{opacity:0.15;fill:#231F20;enable-background:new    ;}
	.st9{fill:#E0E3FD;}
	.st10{fill:#F0F1FE;}
	.st11{fill:#FFFFFF;fill-opacity:0;}
	.st12{opacity:2.400000e-02;fill:#FDFDFF;enable-background:new    ;}
	.st13{opacity:4.900000e-02;fill:#FBFCFF;enable-background:new    ;}
	.st14{opacity:7.300000e-02;fill:#F9FAFF;enable-background:new    ;}
	.st15{opacity:9.800000e-02;fill:#F7F8FF;enable-background:new    ;}
	.st16{opacity:0.122;fill:#F6F6FE;enable-background:new    ;}
	.st17{opacity:0.146;fill:#F4F5FE;enable-background:new    ;}
	.st18{opacity:0.171;fill:#F2F3FE;enable-background:new    ;}
	.st19{opacity:0.195;fill:#F0F1FE;enable-background:new    ;}
	.st20{opacity:0.22;fill:#EEEFFE;enable-background:new    ;}
	.st21{opacity:0.244;fill:#ECEEFE;enable-background:new    ;}
	.st22{opacity:0.268;fill:#EAECFE;enable-background:new    ;}
	.st23{opacity:0.293;fill:#E8EAFE;enable-background:new    ;}
	.st24{opacity:0.317;fill:#E7E8FD;enable-background:new    ;}
	.st25{opacity:0.341;fill:#E5E7FD;enable-background:new    ;}
	.st26{opacity:0.366;fill:#E3E5FD;enable-background:new    ;}
	.st27{opacity:0.39;fill:#E1E3FD;enable-background:new    ;}
	.st28{opacity:0.415;fill:#DFE2FD;enable-background:new    ;}
	.st29{opacity:0.439;fill:#DDE0FD;enable-background:new    ;}
	.st30{opacity:0.463;fill:#DBDEFD;enable-background:new    ;}
	.st31{opacity:0.488;fill:#D9DCFD;enable-background:new    ;}
	.st32{opacity:0.512;fill:#D8DBFC;enable-background:new    ;}
	.st33{opacity:0.537;fill:#D6D9FC;enable-background:new    ;}
	.st34{opacity:0.561;fill:#D4D7FC;enable-background:new    ;}
	.st35{opacity:0.585;fill:#D2D5FC;enable-background:new    ;}
	.st36{opacity:0.61;fill:#D0D4FC;enable-background:new    ;}
	.st37{opacity:0.634;fill:#CED2FC;enable-background:new    ;}
	.st38{opacity:0.659;fill:#CCD0FC;enable-background:new    ;}
	.st39{opacity:0.683;fill:#CACFFC;enable-background:new    ;}
	.st40{opacity:0.707;fill:#C9CDFB;enable-background:new    ;}
	.st41{opacity:0.732;fill:#C7CBFB;enable-background:new    ;}
	.st42{opacity:0.756;fill:#C5C9FB;enable-background:new    ;}
	.st43{opacity:0.78;fill:#C3C8FB;enable-background:new    ;}
	.st44{opacity:0.805;fill:#C1C6FB;enable-background:new    ;}
	.st45{opacity:0.829;fill:#BFC4FB;enable-background:new    ;}
	.st46{opacity:0.854;fill:#BDC2FB;enable-background:new    ;}
	.st47{opacity:0.878;fill:#BBC1FB;enable-background:new    ;}
	.st48{opacity:0.902;fill:#BABFFA;enable-background:new    ;}
	.st49{opacity:0.927;fill:#B8BDFA;enable-background:new    ;}
	.st50{opacity:0.951;fill:#B6BBFA;enable-background:new    ;}
	.st51{opacity:0.976;fill:#B4BAFA;enable-background:new    ;}
	.st52{fill:#B2B8FA;}
	.st53{fill:#28D0AC;}
	.st54{fill:#F9B200;}
	.st55{fill:#717386;}
	.st56{fill:#3A3C4E;}
	.st57{opacity:0;}
	.st58{opacity:2.400000e-02;}
	.st59{fill:#FDFDFF;}
	.st60{opacity:4.900000e-02;}
	.st61{fill:#FBFCFF;}
	.st62{opacity:7.300000e-02;}
	.st63{fill:#F9FAFF;}
	.st64{opacity:9.800000e-02;}
	.st65{fill:#F7F8FF;}
	.st66{opacity:0.122;}
	.st67{fill:#F6F6FE;}
	.st68{opacity:0.146;}
	.st69{fill:#F4F5FE;}
	.st70{opacity:0.171;}
	.st71{fill:#F2F3FE;}
	.st72{opacity:0.195;}
	.st73{opacity:0.22;}
	.st74{fill:#EEEFFE;}
	.st75{opacity:0.244;}
	.st76{fill:#ECEEFE;}
	.st77{opacity:0.268;}
	.st78{fill:#EAECFE;}
	.st79{opacity:0.293;}
	.st80{fill:#E8EAFE;}
	.st81{opacity:0.317;}
	.st82{fill:#E7E8FD;}
	.st83{opacity:0.341;}
	.st84{fill:#E5E7FD;}
	.st85{opacity:0.366;}
	.st86{fill:#E3E5FD;}
	.st87{opacity:0.39;}
	.st88{fill:#E1E3FD;}
	.st89{opacity:0.415;}
	.st90{fill:#DFE2FD;}
	.st91{opacity:0.439;}
	.st92{fill:#DDE0FD;}
	.st93{opacity:0.463;}
	.st94{fill:#DBDEFD;}
	.st95{opacity:0.488;}
	.st96{fill:#D9DCFD;}
	.st97{opacity:0.512;}
	.st98{fill:#D8DBFC;}
	.st99{opacity:0.537;}
	.st100{fill:#D6D9FC;}
	.st101{opacity:0.561;}
	.st102{fill:#D4D7FC;}
	.st103{opacity:0.585;}
	.st104{fill:#D2D5FC;}
	.st105{opacity:0.61;}
	.st106{fill:#D0D4FC;}
	.st107{opacity:0.634;}
	.st108{fill:#CED2FC;}
	.st109{opacity:0.659;}
	.st110{fill:#CCD0FC;}
	.st111{opacity:0.683;}
	.st112{fill:#CACFFC;}
	.st113{opacity:0.707;}
	.st114{fill:#C9CDFB;}
	.st115{opacity:0.732;}
	.st116{fill:#C7CBFB;}
	.st117{opacity:0.756;}
	.st118{fill:#C5C9FB;}
	.st119{opacity:0.78;}
	.st120{fill:#C3C8FB;}
	.st121{opacity:0.805;}
	.st122{fill:#C1C6FB;}
	.st123{opacity:0.829;}
	.st124{fill:#BFC4FB;}
	.st125{opacity:0.854;}
	.st126{fill:#BDC2FB;}
	.st127{opacity:0.878;}
	.st128{fill:#BBC1FB;}
	.st129{opacity:0.902;}
	.st130{fill:#BABFFA;}
	.st131{opacity:0.927;}
	.st132{fill:#B8BDFA;}
	.st133{opacity:0.951;}
	.st134{fill:#B6BBFA;}
	.st135{opacity:0.976;}
	.st136{fill:#B4BAFA;}
	.st137{opacity:0.35;}
	.st138{fill:#6168FF;}
	.st139{fill:#CCCCCC;}
	.st140{fill:#BC8304;}
	.st141{fill:#223B7C;}
</style>
<g id="Layer_8">
	
		<linearGradient id="SVGID_1_" gradientUnits="userSpaceOnUse" x1="35.2067" y1="157.002" x2="282.2057" y2="-2.997" gradientTransform="matrix(1 0 0 1 0 58)">
		<stop  offset="0" style="stop-color:#DFE1FD"/>
		<stop  offset="0.454" style="stop-color:#EBECFE"/>
		<stop  offset="1" style="stop-color:#F4F5FE"/>
	</linearGradient>
	<path class="st0" d="M311.4,131.7c5.5,8.8,8.2,19.7,2.6,28.1c-4.8,7.2-14.3,10-19.1,17.2c-2.4,3.6-3.7,8.4-7.5,10.5
		c-2.3,1.3-5.1,1.4-7.8,1.4H37.4c-2.7,0-5.5,0-8-1.2c-2.9-1.4-4.9-4.3-6.3-7.2c-6.7-14-4.8-30.6,5-42.7c5.9-7.1,14.3-12.1,18.9-20.1
		c4-7,4.5-15.3,5.8-23.2c1.7-10.1,5.8-20.3,15.5-24.6c11.6-5.2,23.2-9.6,32.3-19c9.7-10.2,15.2-24.6,27.3-31.8
		c11.6-6.9,26.3-5.2,39.3-1.4s25.4,9.8,38.9,10.8c16.5,1.2,33.5-5,49.3,0c11,3.5,19.6,11.9,23.5,22.8c5.3,15.2,0.2,32.7,6.4,47.5
		c4.6,11.1,14.8,18.7,22.5,28C309.1,128.4,310.3,130,311.4,131.7z"/>
</g>
<path class="st1" d="M64.4,87.6c0-0.1,0-0.1,0.1-0.2c0.2,0.3,0.4,0.7,0.6,1.1L64.4,87.6z"/>
<rect x="246.5" y="175.4" class="st2" width="4.7" height="7.1"/>
<path class="st3" d="M251.8,180.7c0.2,1.9,0.5,3.7,1.1,5.5c0.2,0.3,0.3,0.6,0.4,0.9v2.6h-11v-1.4c0-0.6,0.2-1.3,0.6-1.8
	c0.9-1.3,3.7-3.9,3.3-5.8H251.8z"/>
<path class="st4" d="M251.7,180.7L251.7,180.7L251.7,180.7C251.8,180.7,251.8,180.7,251.7,180.7z"/>
<path class="st4" d="M253.2,187.8v1.9h-11v-1.4c0-0.2,0-0.3,0-0.5H253.2L253.2,187.8z"/>
<path class="st4" d="M249.6,182.9h-2.5c-0.1,0-0.3-0.1-0.3-0.3v-0.1c0-0.1,0.1-0.3,0.3-0.3h2.5c0.1,0,0.3,0.1,0.3,0.3v0.1
	C249.9,182.7,249.8,182.9,249.6,182.9z"/>
<path class="st4" d="M249.3,184.4h-2.5c-0.1,0-0.3-0.1-0.3-0.3V184c0-0.1,0.1-0.3,0.3-0.3h2.5c0.1,0,0.3,0.1,0.3,0.3v0.1
	C249.5,184.3,249.4,184.4,249.3,184.4z"/>
<rect x="276.8" y="175.4" class="st2" width="4.7" height="7.1"/>
<path class="st5" d="M268.7,115.1c-1.3,3.2-9.2,31.1-9.2,31.1l-7.1,33.4h-6.9l3.6-37.9l2.6-40.2l15,1.8l2.7,7.4L268.7,115.1z"/>
<polygon class="st5" points="284.5,109.1 284.1,142.7 282.4,179.6 275.8,179.6 273.1,150.1 266.7,115.5 266.7,103.3 283.2,104.8 "/>
<path class="st2" d="M267.7,60.9h9.9V47.8h-10.8C269.3,51.1,267.7,60.9,267.7,60.9z"/>
<path class="st6" d="M283.2,107.5c-0.3,7.7-25.3-4.7-30.8-1.8l6.6-45.5c0,0,6.1-2.4,8.6-0.5c3.5,2.6,9.9,0,9.9,0l4.5,1.8
	C282,61.5,283.5,100.9,283.2,107.5z"/>
<path class="st3" d="M268.1,52.7c0,0,1.8,30-13.1,49c0,0-4.5,11.2-8.2,11.8c0,0-3.8-9.7,0.8-17.4c2.9-4.7,8.4-15.1,8.8-20.6
	l0.9-15.8L268.1,52.7z"/>
<path class="st3" d="M277.6,52.7c0,0-4.3,19.7-4.5,29.7c-0.1,8.2,12.6,35.4,12.6,35.4s7.8-8.2,3.7-17.6C286.7,94,283.6,89,284,85
	l0-28.1L277.6,52.7z"/>
<path class="st2" d="M263.3,45.4c0.1-1.3,0.3-2.6,0.7-3.9c-0.4-0.2-0.7-0.2-1.1-0.2c-0.3,0-0.5-0.3-0.4-0.6c0-0.1,0.1-0.2,0.1-0.3
	c1.2-1.3,3.4-3.5,3.8-4.3c0.2-0.5,0.4-0.9,0.7-1.3c0.2-0.3,0.4-0.7,0.6-1c0.2-0.5,0.7-0.8,1.2-1c0.5,0,1,0,1.5,0.2
	c2,0.4,4,1,5.9,1.9c0.7,0.3,1.4,0.7,2.1,1.2c0.9,0.7,1.6,1.7,2,2.8c0.5,2,0.5,4,0,6c-0.1,0.5-0.2,1-0.4,1.4c-0.4,0.7-1,1.2-1.7,1.6
	c-1.2,0.7-2.4,1.4-3.6,2c-0.7,0.4-1.5,0.7-2.3,1c-1.3,0.3-2.7,0.4-4,0.3c-1,0.1-2.1-0.2-3-0.6c-0.8-0.5-1.4-1.3-1.7-2.3
	C263.3,47.3,263.2,46.3,263.3,45.4z"/>
<path class="st7" d="M266.4,27.1c2,1.5,4.4,2.3,6.9,2.5c2.5,0.1,4.9,0.5,7.3,1.2c1.5,0.5,3.7,1.4,4.4,2.9c1,2.1,0.8,5.2,0.3,7.4
	c-0.4,1.7-1.2,3.2-2.3,4.5c-1.2,1.3-2.7,2.3-4.3,2.9c-0.1,0.1-0.3,0.1-0.4,0.2c-0.1,0.1-0.3,0.2-0.4,0.2c-0.3,0.1-0.3-0.4-0.3-0.6
	c0-0.4,0.2-0.8,0.4-1.2c0.2-0.3,0.4-0.6,0.7-0.9c0.5-0.9,0.8-1.9,0.7-2.9c0.1-0.5,0-1-0.1-1.5s-0.5-0.9-1-1c-0.5,0-1,0.2-1.4,0.6
	c-0.8,0.7-1.4,1.5-1.9,2.5c0-0.9-0.1-1.7-0.1-2.6c0-0.6-0.1-1.2-0.2-1.8c-0.2-0.8-0.8-1.5-0.6-2.3c0.1-0.3,0.3-0.7,0.4-1
	c0-0.5-0.3-1-0.8-1.3c-0.5-0.2-1-0.3-1.5-0.4c-0.8-0.1-1.6-0.4-2.4-0.6c-0.7-0.2-1.4-0.5-2-1c-0.6-0.6-1-1.3-1.1-2.1
	c-0.2-0.8-0.2-1.6-0.2-2.4C266.3,28,266.3,27.6,266.4,27.1z"/>
<path class="st2" d="M296.1,74.1l5.3,13.7c0.5,1.4,0.4,3-0.4,4.3l-16.9,21.6l-3-4.5L292,92c0.7-1.5,0.7-3.2-0.1-4.7l-5.3-9.3
	C286.6,78.1,293,80.4,296.1,74.1z"/>
<path class="st2" d="M281.1,109.2l-1.9,0.3l-1.3,1.2c-0.5,0.4-0.5,1.2-0.1,1.7l0.4,0.5l-0.6,1c-0.3,0.4-0.2,0.9,0.1,1.3l1.9,2.3
	c0.4,0.4,1,0.5,1.4,0.2l2-1.3c0.4-0.3,0.8-0.7,0.9-1.2l0.3-1.5L281.1,109.2z"/>
<path class="st3" d="M282.1,180.7c-0.3,2,0.3,4,1.6,5.5c0.2,0.2,0.4,0.6,0.4,0.9v2.6h-10.5v-1.4c0-0.6,0.2-1.3,0.6-1.8
	c0.9-1.3,2.6-3.9,2.2-5.8H282.1L282.1,180.7z"/>
<path class="st4" d="M282,180.7L282,180.7L282,180.7C282.1,180.7,282,180.7,282,180.7z"/>
<path class="st4" d="M284.1,187.8v1.9h-10.5v-1.4c0-0.2,0-0.3,0-0.5H284.1z"/>
<path class="st4" d="M279.9,182.9h-2.5c-0.1,0-0.3-0.1-0.3-0.3v-0.1c0-0.1,0.1-0.3,0.3-0.3h2.5c0.1,0,0.3,0.1,0.3,0.3v0.1
	C280.2,182.7,280.1,182.9,279.9,182.9z"/>
<path class="st4" d="M279.5,184.4H277c-0.1,0-0.3-0.1-0.3-0.3V184c0-0.1,0.1-0.3,0.3-0.3h2.5c0.1,0,0.3,0.1,0.3,0.3v0.1
	C279.8,184.3,279.7,184.4,279.5,184.4z"/>
<path class="st3" d="M277.6,52.7l6.9,4.5l3.1,1.5c2,0.9,3.5,2.6,4.3,4.7l5.5,12.6c-6,1.2-6.2,6.6-10.5,5.6L280.8,67l-3.2-7.3
	L277.6,52.7L277.6,52.7z"/>
<path class="st3" d="M268.1,52.7l-6.9,3l-3.9,1c-2.4,0.6-4.4,2.3-5.4,4.6l-6.4,12.8c4.1,0,8.4,5.5,9.1,4.5l7.9-13.9L268.1,52.7z"/>
<path class="st8" d="M265.9,49.7c-0.1-0.8,0.3-1.5,1-1.9l0,0c0.2-0.1,0.4-0.3,0.5-0.5l0.6-1.7c0.2-0.4,0.2-0.9,0.1-1.4l-0.2-1.3
	c-0.1-0.6-0.6-1-1.2-0.9c-0.1,0-0.2,0-0.3,0.1l-2.2,1l-1.4,1.3l0,0c-0.1,1.2,0,2.4,0.3,3.5c0.3,1,1,1.9,1.9,2.5
	c0.3,0.2,0.7,0.3,1.1,0.4L265.9,49.7z"/>
<path class="st2" d="M246.3,74.6l15-24.2v-4c0-0.5,0.2-1,0.6-1.3l1.7-1.7l2-0.9c0.5-0.2,1.1,0,1.3,0.5c0,0.1,0.1,0.2,0.1,0.3
	l0.2,1.2c0.1,0.4,0,0.8-0.1,1.2l-0.5,1.5c-0.1,0.2-0.2,0.4-0.4,0.5l0,0c-0.6,0.4-1,1-0.9,1.7l0.1,1.1L268,51l-3.3,2.6l-10.8,25
	c-0.9,2.2-3.5,3.2-5.6,2.2c0,0-0.1,0-0.1-0.1l0,0c-2.1-1-3.1-3.5-2-5.7C246.1,74.9,246.2,74.7,246.3,74.6z"/>
<path id="_Rectangle_" class="st6" d="M128.7,36h70.9c1.6,0,2.9,1.3,2.9,2.9v86.5c0,1.6-1.3,2.9-2.9,2.9h-70.9
	c-1.6,0-2.9-1.3-2.9-2.9V38.9C125.9,37.3,127.2,36,128.7,36z"/>
<path id="_Path_5" class="st3" d="M202.5,45.8v-7.1c0-1.5-1.2-2.7-2.7-2.7l0,0h-71.3c-1.5,0-2.7,1.2-2.7,2.7v7.1H202.5L202.5,45.8z"
	/>
<circle id="_Path_6" class="st6" cx="131.7" cy="40.9" r="0.8"/>
<circle id="_Path_7" class="st6" cx="135.4" cy="40.9" r="0.8"/>
<circle id="_Path_8" class="st6" cx="139.2" cy="40.9" r="0.8"/>
<circle class="st9" cx="141.1" cy="90.5" r="6.8"/>
<circle class="st9" cx="141.1" cy="109.2" r="6.8"/>
<rect x="155.9" y="86.1" class="st10" width="38" height="1.4"/>
<rect x="155.9" y="91.7" class="st10" width="21" height="1.4"/>
<rect x="155.9" y="105" class="st10" width="38" height="1.4"/>
<rect x="155.9" y="110.5" class="st10" width="21" height="1.4"/>
<circle class="st9" cx="141.1" cy="70.5" r="6.8"/>
<rect x="155.9" y="66.1" class="st10" width="38" height="1.4"/>
<rect x="155.9" y="71.7" class="st10" width="21" height="1.4"/>
<g>
	<path class="st11" d="M200,36h-18.2v33.4c0,2.7,2.2,4.9,4.9,4.9l0,0h15.8V38.5C202.5,37.1,201.4,36,200,36L200,36z"/>
	<path class="st12" d="M200,36h-18.1v33.3c0,2.7,2.2,4.9,4.9,4.9h15.7V38.5C202.5,37.1,201.4,36,200,36z"/>
	<path class="st13" d="M200,36h-17.9v33.3c0,2.7,2.2,4.9,4.9,4.9l0,0h15.6V38.5C202.5,37.1,201.4,36,200,36L200,36z"/>
	<path class="st14" d="M200,36h-17.8v33.2c0,2.7,2.2,4.8,4.8,4.8h15.5V38.5C202.5,37.1,201.4,36,200,36z"/>
	<path class="st15" d="M200,36h-17.7v33.1c0,2.7,2.1,4.8,4.8,4.8l0,0h15.4V38.5C202.5,37.1,201.4,36,200,36L200,36z"/>
	<path class="st16" d="M200,36h-17.6v33c0,2.6,2.1,4.8,4.8,4.8h15.3V38.4C202.5,37.1,201.4,36,200,36L200,36z"/>
	<path class="st17" d="M200.1,36h-17.4v32.9c0,2.6,2.1,4.7,4.7,4.7h15.1V38.4C202.5,37.1,201.4,36,200.1,36L200.1,36z"/>
	<path class="st18" d="M200.1,36h-17.3v32.8c0,2.6,2.1,4.7,4.7,4.7h15V38.4C202.5,37.1,201.4,36,200.1,36L200.1,36z"/>
	<path class="st19" d="M200.1,36h-17.2v32.7c0,2.6,2.1,4.7,4.7,4.7h14.9v-35C202.5,37.1,201.4,36,200.1,36L200.1,36z"/>
	<path class="st20" d="M200.1,36H183v32.7c0,2.6,2.1,4.6,4.6,4.6h14.8V38.4C202.5,37,201.4,36,200.1,36L200.1,36z"/>
	<path class="st21" d="M200.1,36h-16.9v32.6c0,2.5,2.1,4.6,4.6,4.6l0,0h14.7V38.3C202.5,37,201.4,36,200.1,36L200.1,36z"/>
	<path class="st22" d="M200.1,36h-16.8v32.5c0,2.5,2,4.6,4.6,4.6l0,0h14.6V38.3C202.5,37,201.4,36,200.1,36L200.1,36z"/>
	<path class="st23" d="M200.2,36h-16.7v32.4c0,2.5,2,4.5,4.5,4.5l0,0h14.5V38.3C202.5,37,201.5,36,200.2,36L200.2,36z"/>
	<path class="st24" d="M200.2,36h-16.6v32.3c0,2.5,2,4.5,4.5,4.5h14.4V38.3C202.5,37,201.5,36,200.2,36L200.2,36z"/>
	<path class="st25" d="M200.2,36h-16.5v32.2c0,2.5,2,4.5,4.5,4.5l0,0h14.3V38.3C202.5,37,201.5,36,200.2,36L200.2,36z"/>
	<path class="st26" d="M200.2,36h-16.3v32.2c0,2.4,2,4.4,4.4,4.4l0,0h14.2V38.3C202.5,37,201.5,36,200.2,36z"/>
	<path class="st27" d="M200.2,36H184v32c0,2.4,2,4.4,4.4,4.4h14.1V38.2C202.5,37,201.5,36,200.2,36z"/>
	<path class="st28" d="M200.2,36h-16.1v32c0,2.4,2,4.4,4.4,4.4l0,0h14V38.2C202.5,37,201.5,36,200.2,36z"/>
	<path class="st29" d="M200.3,36h-16v31.9c0,2.4,1.9,4.3,4.3,4.3h13.9v-34C202.5,37,201.5,36,200.3,36L200.3,36z"/>
	<path class="st30" d="M200.3,36h-15.8v31.8c0,2.4,1.9,4.3,4.3,4.3l0,0h13.8V38.2C202.5,37,201.5,36,200.3,36z"/>
	<path class="st31" d="M200.3,36h-15.7v31.7c0,2.4,1.9,4.3,4.3,4.3h13.6V38.2C202.5,37,201.5,36,200.3,36L200.3,36z"/>
	<path class="st32" d="M200.3,36h-15.6v31.6c0,2.3,1.9,4.2,4.2,4.2l0,0h13.5V38.2C202.5,37,201.5,36,200.3,36L200.3,36z"/>
	<path class="st33" d="M200.3,36h-15.5v31.6c0,2.3,1.9,4.2,4.2,4.2h13.4V38.1C202.5,36.9,201.5,36,200.3,36L200.3,36z"/>
	<path class="st34" d="M200.3,36H185v31.5c0,2.3,1.9,4.2,4.2,4.2h13.3V38.1C202.5,36.9,201.5,36,200.3,36L200.3,36z"/>
	<path class="st35" d="M200.4,36h-15.2v31.4c0,2.3,1.9,4.1,4.1,4.1h13.2V38.1C202.5,36.9,201.5,36,200.4,36L200.4,36z"/>
	<path class="st36" d="M200.4,36h-15.1v31.3c0,2.3,1.8,4.1,4.1,4.1l0,0h13.1V38.1C202.5,36.9,201.6,36,200.4,36L200.4,36z"/>
	<path class="st37" d="M200.4,36h-15v31.2c0,2.2,1.8,4.1,4.1,4.1h13V38.1C202.5,36.9,201.6,36,200.4,36z"/>
	<path class="st38" d="M200.4,36h-14.9v31.1c0,2.2,1.8,4,4,4l0,0h12.9v-33C202.5,36.9,201.6,36,200.4,36L200.4,36z"/>
	<path class="st39" d="M200.4,36h-14.7v31c0,2.2,1.8,4,4,4h12.8V38C202.5,36.9,201.6,36,200.4,36L200.4,36z"/>
	<path class="st40" d="M200.5,36h-14.6v31c0,2.2,1.8,4,4,4l0,0h12.7V38C202.5,36.9,201.6,36,200.5,36L200.5,36z"/>
	<path class="st41" d="M200.5,36H186v30.9c0,2.2,1.8,3.9,3.9,3.9l0,0h12.6V38C202.5,36.9,201.6,36,200.5,36z"/>
	<path class="st42" d="M200.5,36h-14.4v30.8c0,2.2,1.7,3.9,3.9,3.9h12.5V38C202.5,36.9,201.6,36,200.5,36L200.5,36z"/>
	<path class="st43" d="M200.5,36h-14.2v30.7c0,2.1,1.7,3.9,3.9,3.9l0,0h12.4V38C202.5,36.9,201.6,36,200.5,36L200.5,36z"/>
	<path class="st44" d="M200.5,36h-14.1v30.6c0,2.1,1.7,3.8,3.8,3.8h12.3V38C202.5,36.9,201.6,36,200.5,36L200.5,36z"/>
	<path class="st45" d="M200.5,36h-14v30.5c0,2.1,1.7,3.8,3.8,3.8l0,0h12.2V37.9C202.5,36.9,201.6,36,200.5,36L200.5,36z"/>
	<path class="st46" d="M200.6,36h-13.9v30.5c0,2.1,1.7,3.8,3.8,3.8h12V37.9C202.5,36.8,201.6,36,200.6,36L200.6,36z"/>
	<path class="st47" d="M200.6,36h-13.7v30.4c0,2.1,1.7,3.7,3.7,3.7h11.9V37.9C202.5,36.8,201.6,36,200.6,36L200.6,36z"/>
	<path class="st48" d="M200.6,36H187v30.3c0,2,1.7,3.7,3.7,3.7h11.8V37.9C202.5,36.8,201.6,36,200.6,36L200.6,36z"/>
	<path class="st49" d="M200.6,36h-13.5v30.2c0,2,1.6,3.7,3.7,3.7l0,0h11.7v-32C202.5,36.8,201.7,36,200.6,36L200.6,36z"/>
	<path class="st50" d="M200.6,36h-13.4v30.1c0,2,1.6,3.6,3.6,3.6h11.6V37.8C202.5,36.8,201.7,36,200.6,36L200.6,36z"/>
	<path class="st51" d="M200.6,36h-13.3v30c0,2,1.6,3.6,3.6,3.6l0,0h11.5V37.8C202.5,36.8,201.7,36,200.6,36L200.6,36z"/>
	<path class="st52" d="M200.7,36h-13.1v29.9c0,2,1.6,3.6,3.6,3.6h11.4V37.8C202.5,36.8,201.7,36,200.7,36z"/>
</g>
<path class="st6" d="M192,22.3h45c2.8,0,5.1,2.3,5.1,5.1v38c0,2.8-2.3,5.1-5.1,5.1h-45c-2.8,0-5.1-2.3-5.1-5.1v-38
	C186.9,24.6,189.2,22.3,192,22.3z"/>
<path class="st3" d="M237.6,22.3h-46.1c-2.5,0-4.6,2.1-4.6,4.6l0,0v5.2h55.3v-5.2C242.2,24.3,240.1,22.3,237.6,22.3L237.6,22.3z"/>
<circle class="st6" cx="193.1" cy="27.2" r="0.8"/>
<circle class="st6" cx="196.8" cy="27.2" r="0.8"/>
<circle class="st6" cx="196.8" cy="27.2" r="0.8"/>
<circle class="st6" cx="200.4" cy="27.2" r="0.8"/>
<circle class="st1" cx="197.6" cy="45" r="6.6"/>
<rect x="207.8" y="41.5" class="st10" width="30.2" height="1.8"/>
<rect x="207.8" y="46.7" class="st10" width="30.2" height="1.8"/>
<rect x="207.8" y="51.8" class="st53" width="11.3" height="1.8"/>
<path class="st54" d="M286.6,9.1c0-5-4-9.1-9.1-9.1s-9.1,4-9.1,9.1c0,3.1,1.5,5.9,4.1,7.6v5.8h9.9v-5.8
	C285.1,15,286.6,12.1,286.6,9.1z"/>
<polygon id="_Path_9" class="st7" points="283.2,22.8 279.9,25.6 275,25.6 272,22.8 272,18.5 283.2,18.5 "/>
<path id="_Rectangle_2" class="st55" d="M271.9,18.9h11.4c0.2,0,0.4,0.2,0.4,0.4v0.1c0,0.2-0.2,0.4-0.4,0.4h-11.4
	c-0.2,0-0.4-0.2-0.4-0.4v-0.1C271.5,19.1,271.7,18.9,271.9,18.9z"/>
<path id="_Rectangle_3" class="st55" d="M271.9,20.3h11.4c0.2,0,0.4,0.2,0.4,0.4v0.1c0,0.2-0.2,0.4-0.4,0.4h-11.4
	c-0.2,0-0.4-0.2-0.4-0.4v-0.1C271.5,20.4,271.7,20.3,271.9,20.3z"/>
<path id="_Rectangle_4" class="st55" d="M271.9,21.7h11.4c0.2,0,0.4,0.2,0.4,0.4v0.1c0,0.2-0.2,0.4-0.4,0.4h-11.4
	c-0.2,0-0.4-0.2-0.4-0.4V22C271.5,21.8,271.7,21.7,271.9,21.7z"/>
<path id="_Rectangle_5" class="st56" d="M274.8,25.4h5.1l0,0v0.2c0,0.8-0.6,1.4-1.4,1.4h-2.2c-0.8,0-1.4-0.6-1.4-1.4L274.8,25.4
	L274.8,25.4z"/>
<polygon class="st6" points="277,11.4 274.7,9.1 275.4,8.4 277,10 280.5,6.5 281.3,7.2 "/>
<path class="st11" d="M152.4,54.3h-26.5v30.5h26.5c2,0,3.6-1.6,3.6-3.5l0,0V57.8C155.9,55.8,154.4,54.3,152.4,54.3L152.4,54.3z"/>
<path class="st12" d="M152.3,54.3h-26.4v30.4h26.4c2,0,3.5-1.6,3.5-3.5l0,0V57.8C155.8,55.8,154.2,54.3,152.3,54.3L152.3,54.3z"/>
<path class="st13" d="M152.1,54.3h-26.2v30.2h26.2c1.9,0,3.5-1.6,3.5-3.5l0,0V57.8C155.6,55.8,154.1,54.3,152.1,54.3L152.1,54.3z"/>
<path class="st14" d="M152,54.3h-26.1v30H152c1.9,0,3.5-1.6,3.5-3.5l0,0v-23C155.5,55.8,153.9,54.3,152,54.3L152,54.3z"/>
<path class="st15" d="M151.8,54.3h-26v29.9h26c1.9,0,3.5-1.6,3.5-3.5v-23C155.3,55.8,153.8,54.3,151.8,54.3z"/>
<path class="st16" d="M151.7,54.3h-25.8V84h25.8c1.9,0,3.5-1.5,3.5-3.5l0,0V57.7C155.2,55.8,153.6,54.3,151.7,54.3L151.7,54.3z"/>
<path class="st17" d="M151.6,54.3h-25.7v29.6h25.7c1.9,0,3.4-1.5,3.4-3.4V57.7C155,55.8,153.5,54.3,151.6,54.3z"/>
<path class="st18" d="M151.4,54.3h-25.5v29.4h25.5c1.9,0,3.4-1.5,3.4-3.4V57.7C154.8,55.8,153.3,54.3,151.4,54.3z"/>
<path class="st19" d="M151.3,54.3h-25.4v29.2h25.4c1.9,0,3.4-1.5,3.4-3.4V57.7C154.7,55.8,153.2,54.3,151.3,54.3L151.3,54.3z"/>
<path class="st20" d="M151.1,54.3h-25.3v29.1h25.3c1.9,0,3.4-1.5,3.4-3.4V57.6C154.5,55.8,153,54.3,151.1,54.3z"/>
<path class="st21" d="M151,54.3h-25.1v28.9H151c1.9,0,3.4-1.5,3.4-3.4V57.6C154.4,55.8,152.9,54.3,151,54.3z"/>
<path class="st22" d="M150.9,54.3h-25V83h25c1.8,0,3.3-1.5,3.3-3.3V57.6C154.2,55.8,152.7,54.3,150.9,54.3z"/>
<path class="st23" d="M150.7,54.3h-24.8v28.6h24.8c1.8,0,3.3-1.5,3.3-3.3v-22C154.1,55.7,152.6,54.3,150.7,54.3z"/>
<path class="st24" d="M150.6,54.3h-24.7v28.4h24.7c1.8,0,3.3-1.5,3.3-3.3l0,0V57.6C153.9,55.7,152.4,54.3,150.6,54.3L150.6,54.3z"/>
<path class="st25" d="M150.5,54.3h-24.6v28.3h24.6c1.8,0,3.3-1.5,3.3-3.3V57.5C153.7,55.7,152.3,54.3,150.5,54.3z"/>
<path class="st26" d="M150.3,54.3h-24.4v28.1h24.4c1.8,0,3.3-1.5,3.3-3.3l0,0V57.5C153.6,55.7,152.1,54.3,150.3,54.3L150.3,54.3z"/>
<path class="st27" d="M150.2,54.3h-24.3v28h24.3c1.8,0,3.3-1.5,3.3-3.3l0,0V57.5C153.4,55.7,152,54.3,150.2,54.3L150.2,54.3z"/>
<path class="st28" d="M150,54.3h-24.2v27.8H150c1.8,0,3.2-1.4,3.2-3.2V57.5C153.3,55.7,151.8,54.3,150,54.3z"/>
<path class="st29" d="M149.9,54.3h-24v27.6h24c1.8,0,3.2-1.4,3.2-3.2l0,0V57.5C153.1,55.7,151.7,54.3,149.9,54.3L149.9,54.3z"/>
<path class="st30" d="M149.8,54.3h-23.9v27.5h23.9c1.8,0,3.2-1.4,3.2-3.2V57.5C153,55.7,151.5,54.3,149.8,54.3z"/>
<path class="st31" d="M149.6,54.3h-23.7v27.3h23.7c1.8,0,3.2-1.4,3.2-3.2l0,0v-21C152.8,55.7,151.4,54.3,149.6,54.3L149.6,54.3z"/>
<path class="st32" d="M149.5,54.3h-23.6v27.2h23.6c1.7,0,3.2-1.4,3.2-3.2l0,0V57.4C152.6,55.7,151.2,54.3,149.5,54.3L149.5,54.3z"/>
<path class="st33" d="M149.4,54.3h-23.5v27h23.5c1.7,0,3.1-1.4,3.1-3.1V57.4C152.5,55.7,151.1,54.3,149.4,54.3L149.4,54.3z"/>
<path class="st34" d="M149.2,54.3h-23.3v26.8h23.3c1.7,0,3.1-1.4,3.1-3.1l0,0V57.4C152.3,55.7,150.9,54.3,149.2,54.3z"/>
<path class="st35" d="M149.1,54.3h-23.2V81h23.2c1.7,0,3.1-1.4,3.1-3.1l0,0V57.4C152.2,55.6,150.8,54.3,149.1,54.3L149.1,54.3z"/>
<path class="st36" d="M148.9,54.3h-23v26.5h23c1.7,0,3.1-1.4,3.1-3.1V57.3C152,55.6,150.6,54.3,148.9,54.3z"/>
<path class="st37" d="M148.8,54.3h-22.9v26.4h22.9c1.7,0,3.1-1.4,3.1-3.1V57.3C151.9,55.6,150.5,54.3,148.8,54.3z"/>
<path class="st38" d="M148.7,54.3h-22.8v26.2h22.8c1.7,0,3-1.4,3-3V57.3C151.7,55.6,150.3,54.3,148.7,54.3z"/>
<path class="st39" d="M148.5,54.3h-22.6v26h22.6c1.7,0,3-1.4,3-3l0,0v-20C151.6,55.6,150.2,54.3,148.5,54.3L148.5,54.3z"/>
<path class="st40" d="M148.4,54.3h-22.5v25.9h22.5c1.7,0,3-1.3,3-3V57.3C151.4,55.6,150,54.3,148.4,54.3z"/>
<path class="st41" d="M148.2,54.3h-22.4V80h22.4c1.7,0,3-1.3,3-3V57.2C151.2,55.6,149.9,54.3,148.2,54.3z"/>
<path class="st42" d="M148.1,54.3h-22.2v25.6h22.2c1.6,0,3-1.3,3-3l0,0V57.2C151.1,55.6,149.7,54.3,148.1,54.3L148.1,54.3z"/>
<path class="st43" d="M148,54.3h-22.1v25.4H148c1.6,0,3-1.3,3-3V57.2C150.9,55.6,149.6,54.3,148,54.3z"/>
<path class="st44" d="M147.8,54.3h-21.9v25.3h21.9c1.6,0,2.9-1.3,2.9-2.9l0,0V57.2C150.8,55.6,149.4,54.3,147.8,54.3L147.8,54.3z"/>
<path class="st45" d="M147.7,54.3h-21.8v25.1h21.8c1.6,0,2.9-1.3,2.9-2.9l0,0V57.2C150.6,55.6,149.3,54.3,147.7,54.3L147.7,54.3z"/>
<path class="st46" d="M147.6,54.3h-21.7v24.9h21.7c1.6,0,2.9-1.3,2.9-2.9V57.2C150.5,55.6,149.2,54.3,147.6,54.3L147.6,54.3z"/>
<path class="st47" d="M147.4,54.3h-21.5V79h21.5c1.6,0,2.9-1.3,2.9-2.9l0,0v-19C150.3,55.5,149,54.3,147.4,54.3L147.4,54.3z"/>
<path class="st48" d="M147.3,54.3h-21.4v24.6h21.4c1.6,0,2.9-1.3,2.9-2.9V57.1C150.1,55.5,148.9,54.3,147.3,54.3z"/>
<path class="st49" d="M147.1,54.3h-21.2v24.5h21.2c1.6,0,2.8-1.3,2.8-2.8l0,0V57.1C150,55.5,148.7,54.3,147.1,54.3z"/>
<path class="st50" d="M147,54.3h-21.1v24.3H147c1.6,0,2.8-1.3,2.8-2.8V57.1C149.8,55.5,148.6,54.3,147,54.3z"/>
<path class="st51" d="M146.9,54.3h-21v24.1h21c1.6,0,2.8-1.3,2.8-2.8V57.1C149.7,55.5,148.4,54.3,146.9,54.3z"/>
<path class="st52" d="M146.7,54.3h-20.8v24h20.8c1.5,0,2.8-1.2,2.8-2.8V57C149.5,55.5,148.3,54.3,146.7,54.3z"/>
<path class="st6" d="M104,49.8h43.7c1.9,0,3.5,1.6,3.5,3.5v22.8c0,1.9-1.6,3.5-3.5,3.5H104c-1.9,0-3.5-1.6-3.5-3.5V53.2
	C100.6,51.3,102.1,49.8,104,49.8z"/>
<circle id="_Path_10" class="st3" cx="113.7" cy="64.6" r="8.2"/>
<path id="_Path_11" class="st6" d="M116.7,65.1l-5.3,3c-0.3,0.1-0.6,0.1-0.7-0.2c0-0.1-0.1-0.2-0.1-0.3v-6.1c0-0.3,0.2-0.5,0.5-0.5
	c0.1,0,0.2,0,0.3,0.1l5.3,3c0.3,0.1,0.3,0.5,0.2,0.7C116.8,65,116.8,65.1,116.7,65.1z"/>
<rect x="124.9" y="58.1" class="st10" width="22.5" height="2"/>
<rect x="124.9" y="63.6" class="st10" width="22.5" height="2"/>
<rect x="124.9" y="69.2" class="st5" width="11.2" height="2"/>
<g class="st57">
	<path class="st6" d="M202.5,83.6h-17.9c-1.2,0-2.2,1-2.2,2.2l0,0v21c0,1.2,1,2.2,2.2,2.2l0,0h17.9V83.6z"/>
</g>
<g class="st58">
	<path class="st59" d="M202.5,83.6h-17.7c-1.2,0-2.2,1-2.2,2.2l0,0v20.8c0,1.2,1,2.2,2.2,2.2l0,0h17.7V83.6z"/>
</g>
<g class="st60">
	<path class="st61" d="M202.5,83.6h-17.6c-1.2,0-2.2,1-2.2,2.2v20.7c0,1.2,1,2.2,2.2,2.2l0,0h17.6V83.6L202.5,83.6z"/>
</g>
<g class="st62">
	<path class="st63" d="M202.5,83.6H185c-1.2,0-2.1,1-2.1,2.1v20.5c0,1.2,1,2.1,2.1,2.1h17.5V83.6z"/>
</g>
<g class="st64">
	<path class="st65" d="M202.5,83.6h-17.4c-1.2,0-2.1,1-2.1,2.1l0,0v20.4c0,1.2,1,2.1,2.1,2.1l0,0h17.4V83.6z"/>
</g>
<g class="st66">
	<path class="st67" d="M202.5,83.6h-17.3c-1.2,0-2.1,0.9-2.1,2.1l0,0V106c0,1.2,0.9,2.1,2.1,2.1l0,0h17.3V83.6L202.5,83.6z"/>
</g>
<g class="st68">
	<path class="st69" d="M202.5,83.6h-17.1c-1.2,0-2.1,0.9-2.1,2.1l0,0v20.1c0,1.2,0.9,2.1,2.1,2.1l0,0h17.1V83.6z"/>
</g>
<g class="st70">
	<path class="st71" d="M202.5,83.6h-17c-1.2,0-2.1,0.9-2.1,2.1v20c0,1.2,0.9,2.1,2.1,2.1h17V83.6z"/>
</g>
<g class="st72">
	<path class="st10" d="M202.5,83.6h-16.9c-1.1,0-2.1,0.9-2.1,2.1v19.8c0,1.1,0.9,2.1,2.1,2.1h16.9V83.6z"/>
</g>
<g class="st73">
	<path class="st74" d="M202.5,83.6h-16.8c-1.1,0-2.1,0.9-2.1,2.1v19.7c0,1.1,0.9,2.1,2.1,2.1h16.8V83.6z"/>
</g>
<g class="st75">
	<path class="st76" d="M202.5,83.6h-16.7c-1.1,0-2,0.9-2,2l0,0v19.6c0,1.1,0.9,2,2,2l0,0h16.7V83.6z"/>
</g>
<g class="st77">
	<path class="st78" d="M202.5,83.6h-16.6c-1.1,0-2,0.9-2,2V105c0,1.1,0.9,2,2,2h16.6V83.6z"/>
</g>
<g class="st79">
	<path class="st80" d="M202.5,83.6h-16.4c-1.1,0-2,0.9-2,2l0,0v19.3c0,1.1,0.9,2,2,2l0,0h16.4V83.6z"/>
</g>
<g class="st81">
	<path class="st82" d="M202.5,83.6h-16.3c-1.1,0-2,0.9-2,2v19.1c0,1.1,0.9,2,2,2h16.3V83.6z"/>
</g>
<g class="st83">
	<path class="st84" d="M202.5,83.6h-16.2c-1.1,0-2,0.9-2,2v19c0,1.1,0.9,2,2,2l0,0h16.2V83.6z"/>
</g>
<g class="st85">
	<path class="st86" d="M202.5,83.6h-16.1c-1.1,0-2,0.9-2,2v18.9c0,1.1,0.9,2,2,2h16.1V83.6z"/>
</g>
<g class="st87">
	<path class="st88" d="M202.5,83.6h-16c-1.1,0-2,0.9-2,2v18.7c0,1.1,0.9,2,2,2h16V83.6z"/>
</g>
<g class="st89">
	<path class="st90" d="M202.5,83.6h-15.8c-1.1,0-1.9,0.9-1.9,1.9l0,0v18.6c0,1.1,0.9,1.9,1.9,1.9l0,0h15.8V83.6z"/>
</g>
<g class="st91">
	<path class="st92" d="M202.5,83.6h-15.7c-1.1,0-1.9,0.9-1.9,1.9l0,0V104c0,1.1,0.9,1.9,1.9,1.9l0,0h15.7V83.6z"/>
</g>
<g class="st93">
	<path class="st94" d="M202.5,83.6h-15.6c-1.1,0-1.9,0.9-1.9,1.9v18.3c0,1.1,0.9,1.9,1.9,1.9l0,0h15.6V83.6z"/>
</g>
<g class="st95">
	<path class="st96" d="M202.5,83.6H187c-1,0-1.9,0.9-1.9,1.9v18.2c0,1,0.9,1.9,1.9,1.9h15.5V83.6z"/>
</g>
<g class="st97">
	<path class="st98" d="M202.5,83.6h-15.4c-1,0-1.9,0.8-1.9,1.9v18c0,1,0.8,1.9,1.9,1.9h15.4V83.6z"/>
</g>
<g class="st99">
	<path class="st100" d="M202.5,83.6h-15.2c-1,0-1.9,0.8-1.9,1.9l0,0v17.9c0,1,0.8,1.9,1.9,1.9l0,0h15.2V83.6z"/>
</g>
<g class="st101">
	<path class="st102" d="M202.5,83.6h-15.1c-1,0-1.9,0.8-1.9,1.9l0,0v17.7c0,1,0.8,1.9,1.9,1.9l0,0h15.1V83.6z"/>
</g>
<g class="st103">
	<path class="st104" d="M202.5,83.6h-15c-1,0-1.8,0.8-1.8,1.8V103c0,1,0.8,1.8,1.8,1.8l0,0h15V83.6z"/>
</g>
<g class="st105">
	<path class="st106" d="M202.5,83.6h-14.9c-1,0-1.8,0.8-1.8,1.8v17.5c0,1,0.8,1.8,1.8,1.8h14.9V83.6z"/>
</g>
<g class="st107">
	<path class="st108" d="M202.5,83.6h-14.8c-1,0-1.8,0.8-1.8,1.8v17.3c0,1,0.8,1.8,1.8,1.8h14.8V83.6z"/>
</g>
<g class="st109">
	<path class="st110" d="M202.5,83.6h-14.6c-1,0-1.8,0.8-1.8,1.8l0,0v17.2c0,1,0.8,1.8,1.8,1.8l0,0h14.6V83.6z"/>
</g>
<g class="st111">
	<path class="st112" d="M202.5,83.6H188c-1,0-1.8,0.8-1.8,1.8l0,0v17c0,1,0.8,1.8,1.8,1.8l0,0h14.5V83.6z"/>
</g>
<g class="st113">
	<path class="st114" d="M202.5,83.6h-14.4c-1,0-1.8,0.8-1.8,1.8v16.9c0,1,0.8,1.8,1.8,1.8h14.4V83.6z"/>
</g>
<g class="st115">
	<path class="st116" d="M202.5,83.6h-14.3c-1,0-1.8,0.8-1.8,1.8v16.8c0,1,0.8,1.8,1.8,1.8h14.3V83.6z"/>
</g>
<g class="st117">
	<path class="st118" d="M202.5,83.6h-14.2c-1,0-1.7,0.8-1.7,1.7l0,0V102c0,1,0.8,1.7,1.7,1.7l0,0h14.2V83.6z"/>
</g>
<g class="st119">
	<path class="st120" d="M202.5,83.6h-14.1c-1,0-1.7,0.8-1.7,1.7v16.5c0,1,0.8,1.7,1.7,1.7h14.1V83.6z"/>
</g>
<g class="st121">
	<path class="st122" d="M202.5,83.6h-13.9c-0.9,0-1.7,0.8-1.7,1.7v16.3c0,0.9,0.8,1.7,1.7,1.7h13.9V83.6z"/>
</g>
<g class="st123">
	<path class="st124" d="M202.5,83.6h-13.8c-0.9,0-1.7,0.8-1.7,1.7v16.2c0,0.9,0.8,1.7,1.7,1.7l0,0h13.8V83.6z"/>
</g>
<g class="st125">
	<path class="st126" d="M202.5,83.6h-13.7c-0.9,0-1.7,0.7-1.7,1.7v16.1c0,0.9,0.8,1.7,1.7,1.7l0,0h13.7V83.6z"/>
</g>
<g class="st127">
	<path class="st128" d="M202.5,83.6h-13.6c-0.9,0-1.7,0.7-1.7,1.7l0,0v15.9c0,0.9,0.7,1.7,1.7,1.7l0,0h13.6V83.6z"/>
</g>
<g class="st129">
	<path class="st130" d="M202.5,83.6H189c-0.9,0-1.6,0.7-1.6,1.6V101c0,0.9,0.7,1.6,1.6,1.6h13.5V83.6z"/>
</g>
<g class="st131">
	<path class="st132" d="M202.5,83.6h-13.3c-0.9,0-1.6,0.7-1.6,1.6v15.7c0,0.9,0.7,1.6,1.6,1.6h13.3V83.6z"/>
</g>
<g class="st133">
	<path class="st134" d="M202.5,83.6h-13.2c-0.9,0-1.6,0.7-1.6,1.6l0,0v15.5c0,0.9,0.7,1.6,1.6,1.6h13.2V83.6z"/>
</g>
<g class="st135">
	<path class="st136" d="M202.5,83.6h-13.1c-0.9,0-1.6,0.7-1.6,1.6l0,0v15.4c0,0.9,0.7,1.6,1.6,1.6l0,0h13.1V83.6z"/>
</g>
<path class="st52" d="M202.5,83.6h-13c-0.9,0-1.6,0.7-1.6,1.6l0,0v15.2c0,0.9,0.7,1.6,1.6,1.6l0,0h13V83.6z"/>
<path class="st6" d="M188.9,80.1h29.5c1.1,0,2,0.9,2,2v19.3c0,1.1-0.9,2-2,2h-29.5c-1.1,0-2-0.9-2-2V82.1
	C186.9,81,187.8,80.1,188.9,80.1z"/>
<rect x="189.4" y="82.3" class="st9" width="28.5" height="17.8"/>
<g id="_Group_9">
	<g id="_Group_10">
		<g id="_Group_11">
			<path id="_Rectangle_6" class="st52" d="M76.3,38.4H59.4c-1.2,0-2.1-0.9-2.1-2.1v-9.9c0-0.6,0.5-1.2,1.2-1.2l0,0h18.9
				c0.6,0,1.2,0.5,1.2,1.2v9.7C78.6,37.4,77.6,38.4,76.3,38.4L76.3,38.4z"/>
		</g>
	</g>
	<g id="_Group_12">
		<g id="_Group_13">
			<path id="_Path_12" class="st52" d="M57.6,25.6l8.9-7.3c0.9-0.7,2.2-0.7,3.1,0l8.4,7L57.6,25.6z"/>
		</g>
	</g>
	<g id="_Group_14">
		<g id="_Group_15">
			<path id="_Path_13" class="st6" d="M63.5,15.1l-3.1,3v16.6h14.8V16.4c0-0.7-0.6-1.2-1.2-1.2L63.5,15.1L63.5,15.1z"/>
		</g>
	</g>
	<g id="_Group_16" class="st137">
		<g id="_Group_17">
			<polygon id="_Path_14" class="st52" points="63.3,17.9 60.4,21.1 60.4,18.1 			"/>
		</g>
	</g>
	<g id="_Group_18">
		<g id="_Group_19">
			<path id="_Path_15" class="st52" d="M63.5,15.1l-3.1,3h2.3c0.5,0,0.8-0.4,0.8-0.8V15.1z"/>
		</g>
	</g>
	<g id="_Group_20">
		<g id="_Group_21">
			<path id="_Path_16" class="st9" d="M57.9,38.4c0,0,8.2-5.7,8.2-6.2l-8.6-6.5c-0.2,0.5-0.3,1.1-0.2,1.7v10.5
				C57.3,38.1,57.6,38.4,57.9,38.4L57.9,38.4z"/>
		</g>
	</g>
	<g id="_Group_22">
		<g id="_Group_23">
			<path id="_Path_17" class="st9" d="M78.1,38.4c0,0-8-5.9-8-6.4l8.3-6.1c0.3,0.4,0.4,0.9,0.3,1.5v10.5
				C78.7,38.1,78.5,38.4,78.1,38.4L78.1,38.4z"/>
		</g>
	</g>
	<g id="_Group_24">
		<g id="_Group_25">
			<path id="_Path_18" class="st52" d="M57.8,38.5l8.6-7.1c0.9-0.7,2.1-0.7,3.1,0l8.6,7.1H57.8z"/>
		</g>
	</g>
	<g id="_Group_26">
		<g id="_Group_27">
			<g id="_Group_28">
				<path id="_Compound_Path_" class="st9" d="M69.8,25.9c-0.6,0.3-1.3,0.5-2,0.4c-1.8,0-3.3-1.4-3.4-3.2c0-0.1,0-0.1,0-0.2
					c-0.1-2.2,1.6-4.1,3.9-4.3c0.1,0,0.1,0,0.2,0c1.7-0.1,3.1,1.2,3.2,2.9c0,0.1,0,0.2,0,0.3c0,1.7-0.9,2.6-2,2.6
					c-0.5,0-0.8-0.4-0.8-0.8c0-0.1,0-0.1,0-0.2l0,0c-0.3,0.6-0.9,1-1.6,1c-0.7,0-1.2-0.6-1.2-1.3V23c0-1.4,1.2-2.6,2.6-2.6l0,0
					c0.4,0,0.8,0.1,1.2,0.2l-0.4,2c-0.2,0.8,0,1.2,0.3,1.2c0.6,0,1.2-0.7,1.2-2c0.1-1.4-0.9-2.6-2.3-2.8c-0.1,0-0.2,0-0.4,0
					c-1.9,0-3.4,1.6-3.3,3.5c0,0.1,0,0.1,0,0.2c-0.1,1.5,1,2.9,2.5,3c0.1,0,0.2,0,0.3,0c0.6,0,1.2-0.1,1.7-0.4L69.8,25.9z
					 M69.2,21.1c-1-0.3-2,0.2-2.3,1.2c-0.1,0.2-0.1,0.5-0.1,0.7c-0.1,0.4,0.2,0.8,0.6,0.8h0.1c0.7-0.2,1.3-0.8,1.4-1.5L69.2,21.1z"
					/>
			</g>
		</g>
	</g>
</g>
<path id="_Compound_Path_2" class="st5" d="M107.8,96h1.1c0.2,0,0.4-0.2,0.4-0.4v-1.4c0-0.2-0.2-0.4-0.4-0.4h-0.8
	c-0.1,0-0.3-0.1-0.3-0.2s-0.1-0.2-0.1-0.2c-0.1-0.1,0-0.3,0.1-0.4l0.6-0.6c0.2-0.2,0.2-0.4,0-0.6l-1-1c-0.2-0.2-0.4-0.2-0.6,0
	l-0.6,0.6c-0.1,0.1-0.2,0.1-0.4,0.1c-0.1,0-0.2-0.1-0.3-0.1c-0.1,0-0.2-0.2-0.2-0.3v-0.8c0-0.2-0.2-0.4-0.4-0.4h-1.4
	c-0.2,0-0.4,0.2-0.4,0.4v0.8c0,0.1-0.1,0.3-0.2,0.3s-0.2,0.1-0.2,0.1c-0.1,0.1-0.3,0-0.4-0.1l-0.6-0.6c-0.2-0.2-0.4-0.2-0.6,0l-1,1
	c-0.2,0.2-0.2,0.4,0,0.6l0.6,0.6c0.1,0.1,0.1,0.2,0.1,0.4c0,0.1-0.1,0.2-0.1,0.3c0,0.1-0.2,0.2-0.3,0.2h-0.8c-0.2,0-0.4,0.2-0.4,0.4
	v1.4c0,0.2,0.2,0.4,0.4,0.4h0.8c0.1,0,0.3,0.1,0.3,0.2s0.1,0.2,0.1,0.2c0.1,0.1,0,0.3-0.1,0.4l-0.6,0.6c-0.2,0.2-0.2,0.4,0,0.6l1,1
	c0.2,0.2,0.4,0.2,0.6,0l0.6-0.6c0.1-0.1,0.2-0.1,0.4-0.1c0.1,0,0.2,0.1,0.3,0.1c0.1,0,0.2,0.2,0.2,0.3v0.8c0,0.2,0.2,0.4,0.4,0.4
	h1.4c0.2,0,0.4-0.2,0.4-0.4v-0.9c0-0.1,0.1-0.3,0.2-0.3s0.2-0.1,0.2-0.1c0.1-0.1,0.3,0,0.4,0.1l0.6,0.6c0.2,0.2,0.4,0.2,0.6,0l1-1
	c0.2-0.2,0.2-0.4,0-0.6l-0.6-0.6c-0.1-0.1-0.1-0.2-0.1-0.4S107.8,96,107.8,96z M102.4,94.6c0.2-1.1,1.2-1.8,2.3-1.6
	c1.1,0.2,1.8,1.2,1.6,2.3c-0.2,1.1-1.2,1.8-2.3,1.6c-0.1,0-0.2-0.1-0.4-0.1C102.7,96.4,102.2,95.5,102.4,94.6z"/>
<path class="st6" d="M99.1,3.8h78.2c2.2,0,4.1,1.8,4.1,4.1v20c0,2.2-1.8,4.1-4.1,4.1H99.1c-2.2,0-4.1-1.8-4.1-4.1v-20
	C95.1,5.6,96.9,3.8,99.1,3.8z"/>
<path class="st3" d="M177.4,3.8H99.1c-2.2,0-4.1,1.8-4.1,4.1l0,0v2.6h86.4V7.9C181.4,5.6,179.6,3.8,177.4,3.8L177.4,3.8z"/>
<circle class="st1" cx="107.8" cy="21.6" r="6.6"/>
<rect x="118" y="15.5" class="st10" width="56.2" height="1.8"/>
<rect x="118" y="20.7" class="st10" width="56.2" height="1.8"/>
<rect x="118" y="25.9" class="st53" width="21.1" height="1.8"/>
<circle class="st6" cx="102.1" cy="7.1" r="0.8"/>
<circle class="st6" cx="105.8" cy="7.1" r="0.8"/>
<circle class="st6" cx="109.4" cy="7.1" r="0.8"/>
<path class="st5" d="M197.7,5.4h7.2c1.4,0,2.6,1.2,2.6,2.6v7.2c0,1.4-1.2,2.6-2.6,2.6h-7.2c-1.4,0-2.6-1.2-2.6-2.6V8
	C195.1,6.6,196.3,5.4,197.7,5.4z"/>
<path class="st6" d="M198,12L198,12l1.7,0.6v0.9l-2.7-1.1v-0.8l2.7-1.1v0.9L198,12z"/>
<path class="st6" d="M201,14h-1l1.5-4.8h1L201,14z"/>
<path class="st6" d="M204.5,12L204.5,12l-1.7-0.6v-0.9l2.7,1.1v0.8l-2.7,1.1v-0.9L204.5,12z"/>
<g id="_Group_29">
	<path id="_Path_19" class="st138" d="M234.8,100.1l-1.3-0.8c-0.2-0.1-0.4-0.1-0.6,0l-1.3,0.8c-0.1,0.1-0.3,0-0.3-0.1v-0.1v-5.5h3.8
		v5.5C235.1,100,235,100.1,234.8,100.1C234.9,100.1,234.8,100.1,234.8,100.1z"/>
	<path id="_Path_20" class="st54" d="M237.2,96.9l-3.8-1.9c-0.1,0-0.2,0-0.2,0l-3.7,2c-0.1,0.1-0.3,0-0.3-0.1c0,0,0-0.1,0-0.2
		l0.7-4.2c0-0.1,0-0.2-0.1-0.2l-3.1-2.9c-0.1-0.1-0.1-0.3,0-0.4l0.1-0.1l4.2-0.7c0.1,0,0.2-0.1,0.2-0.1l1.8-3.8
		c0.1-0.1,0.2-0.2,0.3-0.1l0.1,0.1l1.9,3.8c0,0.1,0.1,0.1,0.2,0.1l4.2,0.6c0.1,0,0.2,0.1,0.2,0.3c0,0.1,0,0.1-0.1,0.1l-3,3
		c-0.1,0.1-0.1,0.1-0.1,0.2l0.8,4.2C237.5,96.7,237.4,96.9,237.2,96.9C237.3,96.9,237.2,96.9,237.2,96.9z"/>
</g>
<circle id="_Path_21" class="st5" cx="80.3" cy="54.2" r="6.5"/>
<g id="_Group_30">
	<polygon id="_Path_22" class="st6" points="79.4,56.8 77.2,54.6 78.5,53.3 79.4,54.3 82.1,51.6 83.4,52.9 	"/>
</g>
<g id="_Group_31">
	<polygon id="_Path_23" class="st3" points="223.5,112 221.9,109.7 225.2,109.7 	"/>
	<polygon id="_Path_24" class="st3" points="220.1,112 218.4,109.7 221.9,109.7 	"/>
	<polygon id="_Path_25" class="st3" points="221.9,117.7 216.6,111.9 227,111.9 	"/>
	<polygon id="_Path_26" class="st53" points="221.9,117.7 220.1,111.9 223.5,111.9 	"/>
	<polygon id="_Path_27" class="st53" points="218.4,109.7 216.6,111.9 220,111.9 	"/>
	<polygon id="_Path_28" class="st53" points="221.9,109.7 220.1,111.9 223.5,111.9 	"/>
	<polygon id="_Path_29" class="st53" points="225.2,109.7 223.5,111.9 227,111.9 	"/>
</g>
<g>
	<path class="st54" d="M72.8,137.1H35.3c-1.1,0-2,0.9-2,2v13.7c0,1.1,0.9,2,2,2h37.6c1.1,0,2-0.9,2-2v-13.7
		C74.8,138,73.9,137.1,72.8,137.1z"/>
	<rect x="36" y="137.1" class="st139" width="1" height="17.7"/>
	<rect x="40.4" y="137.1" class="st139" width="1" height="17.7"/>
	<rect x="44.7" y="137.1" class="st139" width="1" height="17.7"/>
	<rect x="49.1" y="137.1" class="st139" width="1" height="17.7"/>
	<rect x="53.5" y="137.1" class="st139" width="1" height="17.7"/>
	<rect x="57.9" y="137.1" class="st139" width="1" height="17.7"/>
	<rect x="62.3" y="137.1" class="st140" width="1" height="17.7"/>
	<rect x="66.7" y="137.1" class="st140" width="1" height="17.7"/>
	<rect x="71.1" y="137.1" class="st140" width="1" height="17.7"/>
	<path class="st54" d="M165.1,137.1h-37.6c-1.1,0-2,0.9-2,2v13.7c0,1.1,0.9,2,2,2h37.6c1.1,0,2-0.9,2-2v-13.7
		C167.1,138,166.2,137.1,165.1,137.1z"/>
	<rect x="128.2" y="137.1" class="st140" width="1" height="17.7"/>
	<rect x="132.6" y="137.1" class="st140" width="1" height="17.7"/>
	<rect x="137" y="137.1" class="st140" width="1" height="17.7"/>
	<rect x="141.4" y="137.1" class="st140" width="1" height="17.7"/>
	<rect x="145.8" y="137.1" class="st140" width="1" height="17.7"/>
	<rect x="150.2" y="137.1" class="st140" width="1" height="17.7"/>
	<rect x="154.6" y="137.1" class="st140" width="1" height="17.7"/>
	<rect x="159" y="137.1" class="st140" width="1" height="17.7"/>
	<rect x="163.4" y="137.1" class="st140" width="1" height="17.7"/>
	<path class="st54" d="M123.2,137.1H85.7c-1.1,0-2,0.9-2,2v13.7c0,1.1,0.9,2,2,2h37.6c1.1,0,2-0.9,2-2v-13.7
		C125.2,138,124.3,137.1,123.2,137.1z"/>
	<rect x="86.3" y="137.1" class="st140" width="1" height="17.7"/>
	<rect x="90.7" y="137.1" class="st140" width="1" height="17.7"/>
	<rect x="95.1" y="137.1" class="st140" width="1" height="17.7"/>
	<rect x="99.5" y="137.1" class="st140" width="1" height="17.7"/>
	<rect x="103.9" y="137.1" class="st140" width="1" height="17.7"/>
	<rect x="108.3" y="137.1" class="st140" width="1" height="17.7"/>
	<rect x="112.7" y="137.1" class="st140" width="1" height="17.7"/>
	<rect x="117.1" y="137.1" class="st140" width="1" height="17.7"/>
	<rect x="121.5" y="137.1" class="st140" width="1" height="17.7"/>
	<path class="st54" d="M167.9,119.3h-37.6c-1.1,0-2,0.9-2,2V135c0,1.1,0.9,2,2,2h37.6c1.1,0,2-0.9,2-2v-13.7
		C169.9,120.2,169,119.3,167.9,119.3z"/>
	<rect x="131.1" y="119.3" class="st140" width="1" height="17.7"/>
	<rect x="135.4" y="119.3" class="st140" width="1" height="17.7"/>
	<rect x="139.8" y="119.3" class="st140" width="1" height="17.7"/>
	<rect x="144.2" y="119.3" class="st140" width="1" height="17.7"/>
	<rect x="148.6" y="119.3" class="st140" width="1" height="17.7"/>
	<rect x="153" y="119.3" class="st140" width="1" height="17.7"/>
	<rect x="157.4" y="119.3" class="st140" width="1" height="17.7"/>
	<rect x="161.8" y="119.3" class="st140" width="1" height="17.7"/>
	<rect x="166.2" y="119.3" class="st140" width="1" height="17.7"/>
	<path class="st5" d="M156.8,138.4h-37.6c-1.1,0-2,0.9-2,2v13.7c0,1.1,0.9,2,2,2h37.6c1.1,0,2-0.9,2-2v-13.7
		C158.8,139.3,157.9,138.4,156.8,138.4z"/>
	<rect x="119.9" y="138.4" class="st141" width="1" height="17.7"/>
	<rect x="124.3" y="138.4" class="st141" width="1" height="17.7"/>
	<rect x="128.7" y="138.4" class="st141" width="1" height="17.7"/>
	<rect x="133.1" y="138.4" class="st141" width="1" height="17.7"/>
	<rect x="137.5" y="138.4" class="st141" width="1" height="17.7"/>
	<rect x="141.9" y="138.4" class="st141" width="1" height="17.7"/>
	<rect x="146.3" y="138.4" class="st141" width="1" height="17.7"/>
	<rect x="150.7" y="138.4" class="st141" width="1" height="17.7"/>
	<rect x="155.1" y="138.4" class="st141" width="1" height="17.7"/>
	<path class="st5" d="M109.5,138.4H72c-1.1,0-2,0.9-2,2v13.7c0,1.1,0.9,2,2,2h37.6c1.1,0,2-0.9,2-2v-13.7
		C111.5,139.3,110.6,138.4,109.5,138.4z"/>
	<rect x="72.7" y="138.4" class="st141" width="1" height="17.7"/>
	<rect x="77" y="138.4" class="st141" width="1" height="17.7"/>
	<rect x="81.4" y="138.4" class="st141" width="1" height="17.7"/>
	<rect x="85.8" y="138.4" class="st141" width="1" height="17.7"/>
	<rect x="90.2" y="138.4" class="st141" width="1" height="17.7"/>
	<rect x="94.6" y="138.4" class="st141" width="1" height="17.7"/>
	<rect x="99" y="138.4" class="st141" width="1" height="17.7"/>
	<rect x="103.4" y="138.4" class="st141" width="1" height="17.7"/>
	<rect x="107.8" y="138.4" class="st141" width="1" height="17.7"/>
	<path class="st5" d="M123.7,120.6H86.2c-1.1,0-2,0.9-2,2v13.7c0,1.1,0.9,2,2,2h37.6c1.1,0,2-0.9,2-2v-13.7
		C125.8,121.5,124.9,120.6,123.7,120.6z"/>
	<rect x="86.9" y="120.6" class="st141" width="1" height="17.7"/>
	<rect x="91.3" y="120.6" class="st141" width="1" height="17.7"/>
	<rect x="95.7" y="120.6" class="st141" width="1" height="17.7"/>
	<rect x="100" y="120.6" class="st141" width="1" height="17.7"/>
	<rect x="104.4" y="120.6" class="st141" width="1" height="17.7"/>
	<rect x="108.8" y="120.6" class="st141" width="1" height="17.7"/>
	<rect x="113.2" y="120.6" class="st141" width="1" height="17.7"/>
	<rect x="117.6" y="120.6" class="st141" width="1" height="17.7"/>
	<rect x="122" y="120.6" class="st141" width="1" height="17.7"/>
	<path class="st5" d="M59.1,138.4H21.6c-1.1,0-2,0.9-2,2v13.7c0,1.1,0.9,2,2,2h37.6c1.1,0,2-0.9,2-2v-13.7
		C61.2,139.3,60.2,138.4,59.1,138.4z"/>
	<rect x="22.3" y="138.4" class="st141" width="1" height="17.7"/>
	<rect x="26.7" y="138.4" class="st141" width="1" height="17.7"/>
	<rect x="31" y="138.4" class="st141" width="1" height="17.7"/>
	<rect x="35.4" y="138.4" class="st141" width="1" height="17.7"/>
	<rect x="39.8" y="138.4" class="st141" width="1" height="17.7"/>
	<rect x="44.2" y="138.4" class="st141" width="1" height="17.7"/>
	<rect x="48.6" y="138.4" class="st141" width="1" height="17.7"/>
	<rect x="53" y="138.4" class="st141" width="1" height="17.7"/>
	<rect x="57.4" y="138.4" class="st141" width="1" height="17.7"/>
	<path class="st5" d="M68.4,120.6H30.9c-1.1,0-2,0.9-2,2v13.7c0,1.1,0.9,2,2,2h37.6c1.1,0,2-0.9,2-2v-13.7
		C70.5,121.5,69.6,120.6,68.4,120.6z"/>
	<rect x="31.6" y="120.6" class="st141" width="1" height="17.7"/>
	<rect x="36" y="120.6" class="st141" width="1" height="17.7"/>
	<rect x="40.4" y="120.6" class="st141" width="1" height="17.7"/>
	<rect x="44.7" y="120.6" class="st141" width="1" height="17.7"/>
	<rect x="49.1" y="120.6" class="st141" width="1" height="17.7"/>
	<rect x="53.5" y="120.6" class="st141" width="1" height="17.7"/>
	<rect x="57.9" y="120.6" class="st141" width="1" height="17.7"/>
	<rect x="62.3" y="120.6" class="st141" width="1" height="17.7"/>
	<rect x="66.7" y="120.6" class="st141" width="1" height="17.7"/>
	<path class="st3" d="M189.9,157.2c-0.1-0.2-0.1-0.4-0.2-0.7l-4.6-9.9c-0.7-1.5-2.2-2.4-3.8-2.4h-18.9c-1.6,0-3.1,1-3.8,2.4
		l-3.8,8.2H46.6l-3.7-7.9c-0.7-1.5-2.2-2.4-3.8-2.4H20.2c-0.7,0-1.4,0.2-2.1,0.5l-3.2-5.7c-0.5-0.9-1.7-1.3-2.6-0.7
		c-0.6,0.3-1,1-1,1.7v44.6c0,2.8,2.3,5.1,5.1,5.1h144.8c1.4,0,2.7-0.5,3.6-1.5l24.5-25C190.8,161.7,191.1,159.2,189.9,157.2z
		 M24.2,152.5c0,1.1-0.9,1.9-1.9,1.9h-2.4c-1.1,0-1.9-0.9-1.9-1.9v-2.6c0-1.1,0.9-1.9,1.9-1.9h2.4c1.1,0,1.9,0.9,1.9,1.9V152.5z
		 M32.7,152.5c0,1.1-0.9,1.9-1.9,1.9h-2.4c-1.1,0-1.9-0.9-1.9-1.9v-2.6c0-1.1,0.9-1.9,1.9-1.9h2.4c1.1,0,1.9,0.9,1.9,1.9V152.5z
		 M41.3,152.5c0,1.1-0.9,1.9-1.9,1.9H37c-1.1,0-1.9-0.9-1.9-1.9v-2.6c0-1.1,0.9-1.9,1.9-1.9h2.4c1.1,0,1.9,0.9,1.9,1.9V152.5z
		 M166.3,152.2c0,1.1-0.9,1.9-1.9,1.9H162c-1.1,0-1.9-0.9-1.9-1.9v-2.6c0-1.1,0.9-1.9,1.9-1.9h2.4c1.1,0,1.9,0.9,1.9,1.9V152.2z
		 M174.9,152.2c0,1.1-0.9,1.9-1.9,1.9h-2.4c-1.1,0-1.9-0.9-1.9-1.9v-2.6c0-1.1,0.9-1.9,1.9-1.9h2.4c1.1,0,1.9,0.9,1.9,1.9V152.2z
		 M183.4,152.2c0,1.1-0.9,1.9-1.9,1.9h-2.4c-1.1,0-1.9-0.9-1.9-1.9v-2.6c0-1.1,0.9-1.9,1.9-1.9h2.4c1.1,0,1.9,0.9,1.9,1.9V152.2z"/>
</g>
<g>
	<circle class="st1" cx="197.7" cy="87.8" r="3.7"/>
	<path class="st6" d="M206.8,85.2c0-0.1-0.1-0.2-0.2-0.2s-0.2-0.1-0.2-0.2c-0.1-0.1-0.1-0.2-0.1-0.3c0-0.1,0.2-0.2,0.3-0.2
		c-1.1-0.1-2.2-0.2-3.2-0.2c-0.1-0.1-0.2-0.1-0.3,0c0,0-0.1,0.1-0.1,0.2v3.5h0.4v-2.1c0.9,0,1.9,0,2.8,0c0.2,0,0.3,0,0.4-0.1
		C206.7,85.5,206.8,85.3,206.8,85.2z"/>
	<path class="st52" d="M208.9,91.4v-1.2h0.9c0.7,0,1.2-0.5,1.2-1.2c0,0,0,0,0,0l0,0h-6.8c0-0.3,0.2-0.5,0.5-0.5h4.8v-0.1
		c0-0.5-0.3-0.8-0.7-0.8h-5.9c-0.9,0-1.7,0.6-2.2,1.5h-1c-0.1,0-0.2,0-0.2,0.1l-0.6,0.6c-0.1,0.1-0.1,0.3,0,0.4
		c0.1,0.1,0.1,0.1,0.2,0.1h0.8v1.2h-3.5c-0.1,0-0.2,0-0.2,0.1l-0.7,0.8c-0.1,0.1-0.1,0.3,0,0.4c0.1,0.1,0.1,0.1,0.2,0.1h2.1
		c0.1,0,0.2,0.1,0.3,0.1l0.4,0.6c0.1,0.1,0,0.3-0.1,0.4c0,0-0.1,0-0.1,0l-4.7,0.4c-0.1,0-0.2,0.1-0.3,0.2l-1,2.3
		c-0.1,0.2,0,0.3,0.2,0.4c0,0,0.1,0,0.1,0h15.6c0.4,0,0.8,0,1.1-0.1c2.8-0.5,4.8-3,4.8-5.8l0,0H208.9z M201,90.2h6.7v1.2H201V90.2z
		 M210.8,92.7c0,0.7-0.6,1.2-1.2,1.2c0,0,0,0,0,0h-10.1l0,0c0-0.7,0.6-1.2,1.2-1.2H210.8L210.8,92.7z"/>
	<path class="st52" d="M209.1,93.4h-8.4c-0.1,0-0.2,0.1-0.2,0.2V94h8.7v-0.5C209.3,93.4,209.2,93.4,209.1,93.4z M202.4,93.4h0.9v0.5
		h-0.9V93.4z M202.3,93.9h-0.9v-0.5h0.9V93.9z M203.4,93.4h0.9v0.5h-0.9V93.4z M204.4,93.4h0.9v0.5h-0.9V93.4z M205.4,93.4h0.9v0.5
		h-0.9V93.4z M206.4,93.4h0.9v0.5h-0.9V93.4z M207.4,93.4h0.9v0.5h-0.9V93.4z M200.7,93.5c0-0.1,0.1-0.1,0.1-0.1h0.6v0.5h-0.7V93.5z
		 M209.3,93.9h-0.8v-0.5h0.7c0.1,0,0.1,0.1,0.1,0.1V93.9z"/>
	<rect x="208.1" y="87.8" class="st52" width="0.5" height="2.1"/>
	<path class="st6" d="M199.3,97.4h-8.2c-0.1,0-0.1-0.1-0.1-0.1s0.1-0.1,0.1-0.1c0,0,0,0,0,0h8.2c0.1,0,0.1,0.1,0.1,0.1
		C199.4,97.4,199.3,97.4,199.3,97.4C199.3,97.4,199.3,97.4,199.3,97.4z"/>
	<path class="st6" d="M195.6,98.1h-3.4c-0.1,0-0.1-0.1-0.1-0.1c0-0.1,0.1-0.1,0.1-0.1c0,0,0,0,0,0h3.4c0.1,0,0.1,0.1,0.1,0.1
		C195.7,98.1,195.7,98.1,195.6,98.1z"/>
	<path class="st6" d="M210.6,97.4h-8.2c-0.1,0-0.1-0.1-0.1-0.1c0-0.1,0.1-0.1,0.1-0.1c0,0,0,0,0,0h8.2c0.1,0,0.1,0.1,0.1,0.1
		C210.7,97.4,210.7,97.4,210.6,97.4C210.6,97.4,210.6,97.4,210.6,97.4z"/>
	<path class="st6" d="M205.6,98.1h-8.2c-0.1,0-0.1-0.1-0.1-0.1c0-0.1,0.1-0.1,0.1-0.1c0,0,0,0,0,0h8.2c0.1,0,0.1,0.1,0.1,0.1
		C205.7,98.1,205.7,98.1,205.6,98.1C205.6,98.1,205.6,98.1,205.6,98.1z"/>
	<path class="st6" d="M199.3,98.7h-8.2c-0.1,0-0.1-0.1-0.1-0.1c0-0.1,0.1-0.1,0.1-0.1h8.2c0.1,0,0.1,0.1,0.1,0.1
		C199.4,98.7,199.3,98.7,199.3,98.7z"/>
	<path class="st6" d="M204.2,99.4h-3.4c-0.1,0-0.1-0.1-0.1-0.1c0-0.1,0.1-0.1,0.1-0.1h3.4c0.1,0,0.1,0.1,0.1,0.1
		C204.3,99.4,204.2,99.4,204.2,99.4z"/>
	<path class="st6" d="M196.8,99.4h-3.4c-0.1,0-0.1-0.1-0.1-0.1c0-0.1,0.1-0.1,0.1-0.1c0,0,0,0,0,0h3.4c0.1,0,0.1,0.1,0.1,0.1
		C197,99.4,196.9,99.4,196.8,99.4z"/>
	<path class="st6" d="M210.6,98.7h-8.2c-0.1,0-0.1-0.1-0.1-0.1c0-0.1,0.1-0.1,0.1-0.1h8.2c0.1,0,0.1,0.1,0.1,0.1
		C210.7,98.7,210.7,98.7,210.6,98.7z"/>
	<path class="st6" d="M214.1,99.4h-8.2c-0.1,0-0.1-0.1-0.1-0.1c0-0.1,0.1-0.1,0.1-0.1h8.2c0.1,0,0.1,0.1,0.1,0.1
		C214.3,99.4,214.2,99.4,214.1,99.4z"/>
</g>
</svg>
