<?xml version="1.0" encoding="utf-8"?>
<!-- Generator: Adobe Illustrator 25.1.0, SVG Export Plug-In . SVG Version: 6.00 Build 0)  -->
<svg version="1.1" id="Layer_1" xmlns="http://www.w3.org/2000/svg" xmlns:xlink="http://www.w3.org/1999/xlink" x="0px" y="0px"
	 viewBox="0 0 317.1 189.7" style="enable-background:new 0 0 317.1 189.7;" xml:space="preserve">
<style type="text/css">
	.st0{fill:url(#SVGID_1_);}
	.st1{fill:#E0E3FD;}
	.st2{fill:#D1D4FC;}
	.st3{fill:#B2B8FA;}
	.st4{fill:#F3F4FE;}
	.st5{fill:#C1C6FB;}
	.st6{fill:#FFCEBD;}
	.st7{fill:#059976;}
	.st8{fill:#191C3C;}
	.st9{fill:#425FBC;}
	.st10{fill:#FFFFFF;}
	.st11{fill:#4D5068;}
	.st12{opacity:0.15;fill:#231F20;enable-background:new    ;}
	.st13{fill:#474963;}
	.st14{fill:#75778A;}
	.st15{fill:#B4C5E4;}
	.st16{opacity:0.3;fill:#231F20;enable-background:new    ;}
	.st17{fill:#F9B200;}
	.st18{fill:#F0F1FE;}
	.st19{fill:#FFFFFF;fill-opacity:0;}
	.st20{opacity:2.400000e-02;fill:#FDFDFF;enable-background:new    ;}
	.st21{opacity:4.900000e-02;fill:#FBFCFF;enable-background:new    ;}
	.st22{opacity:7.300000e-02;fill:#F9FAFF;enable-background:new    ;}
	.st23{opacity:9.800000e-02;fill:#F7F8FF;enable-background:new    ;}
	.st24{opacity:0.122;fill:#F6F6FE;enable-background:new    ;}
	.st25{opacity:0.146;fill:#F4F5FE;enable-background:new    ;}
	.st26{opacity:0.171;fill:#F2F3FE;enable-background:new    ;}
	.st27{opacity:0.195;fill:#F0F1FE;enable-background:new    ;}
	.st28{opacity:0.22;fill:#EEEFFE;enable-background:new    ;}
	.st29{opacity:0.244;fill:#ECEEFE;enable-background:new    ;}
	.st30{opacity:0.268;fill:#EAECFE;enable-background:new    ;}
	.st31{opacity:0.293;fill:#E8EAFE;enable-background:new    ;}
	.st32{opacity:0.317;fill:#E7E8FD;enable-background:new    ;}
	.st33{opacity:0.341;fill:#E5E7FD;enable-background:new    ;}
	.st34{opacity:0.366;fill:#E3E5FD;enable-background:new    ;}
	.st35{opacity:0.39;fill:#E1E3FD;enable-background:new    ;}
	.st36{opacity:0.415;fill:#DFE2FD;enable-background:new    ;}
	.st37{opacity:0.439;fill:#DDE0FD;enable-background:new    ;}
	.st38{opacity:0.463;fill:#DBDEFD;enable-background:new    ;}
	.st39{opacity:0.488;fill:#D9DCFD;enable-background:new    ;}
	.st40{opacity:0.512;fill:#D8DBFC;enable-background:new    ;}
	.st41{opacity:0.537;fill:#D6D9FC;enable-background:new    ;}
	.st42{opacity:0.561;fill:#D4D7FC;enable-background:new    ;}
	.st43{opacity:0.585;fill:#D2D5FC;enable-background:new    ;}
	.st44{opacity:0.61;fill:#D0D4FC;enable-background:new    ;}
	.st45{opacity:0.634;fill:#CED2FC;enable-background:new    ;}
	.st46{opacity:0.659;fill:#CCD0FC;enable-background:new    ;}
	.st47{opacity:0.683;fill:#CACFFC;enable-background:new    ;}
	.st48{opacity:0.707;fill:#C9CDFB;enable-background:new    ;}
	.st49{opacity:0.732;fill:#C7CBFB;enable-background:new    ;}
	.st50{opacity:0.756;fill:#C5C9FB;enable-background:new    ;}
	.st51{opacity:0.78;fill:#C3C8FB;enable-background:new    ;}
	.st52{opacity:0.805;fill:#C1C6FB;enable-background:new    ;}
	.st53{opacity:0.829;fill:#BFC4FB;enable-background:new    ;}
	.st54{opacity:0.854;fill:#BDC2FB;enable-background:new    ;}
	.st55{opacity:0.878;fill:#BBC1FB;enable-background:new    ;}
	.st56{opacity:0.902;fill:#BABFFA;enable-background:new    ;}
	.st57{opacity:0.927;fill:#B8BDFA;enable-background:new    ;}
	.st58{opacity:0.951;fill:#B6BBFA;enable-background:new    ;}
	.st59{opacity:0.976;fill:#B4BAFA;enable-background:new    ;}
	.st60{fill:#28D0AC;}
	.st61{fill:#717386;}
	.st62{fill:#3A3C4E;}
	.st63{opacity:0;}
	.st64{opacity:2.400000e-02;}
	.st65{fill:#FDFDFF;}
	.st66{opacity:4.900000e-02;}
	.st67{fill:#FBFCFF;}
	.st68{opacity:7.300000e-02;}
	.st69{fill:#F9FAFF;}
	.st70{opacity:9.800000e-02;}
	.st71{fill:#F7F8FF;}
	.st72{opacity:0.122;}
	.st73{fill:#F6F6FE;}
	.st74{opacity:0.146;}
	.st75{fill:#F4F5FE;}
	.st76{opacity:0.171;}
	.st77{fill:#F2F3FE;}
	.st78{opacity:0.195;}
	.st79{opacity:0.22;}
	.st80{fill:#EEEFFE;}
	.st81{opacity:0.244;}
	.st82{fill:#ECEEFE;}
	.st83{opacity:0.268;}
	.st84{fill:#EAECFE;}
	.st85{opacity:0.293;}
	.st86{fill:#E8EAFE;}
	.st87{opacity:0.317;}
	.st88{fill:#E7E8FD;}
	.st89{opacity:0.341;}
	.st90{fill:#E5E7FD;}
	.st91{opacity:0.366;}
	.st92{fill:#E3E5FD;}
	.st93{opacity:0.39;}
	.st94{fill:#E1E3FD;}
	.st95{opacity:0.415;}
	.st96{fill:#DFE2FD;}
	.st97{opacity:0.439;}
	.st98{fill:#DDE0FD;}
	.st99{opacity:0.463;}
	.st100{fill:#DBDEFD;}
	.st101{opacity:0.488;}
	.st102{fill:#D9DCFD;}
	.st103{opacity:0.512;}
	.st104{fill:#D8DBFC;}
	.st105{opacity:0.537;}
	.st106{fill:#D6D9FC;}
	.st107{opacity:0.561;}
	.st108{fill:#D4D7FC;}
	.st109{opacity:0.585;}
	.st110{fill:#D2D5FC;}
	.st111{opacity:0.61;}
	.st112{fill:#D0D4FC;}
	.st113{opacity:0.634;}
	.st114{fill:#CED2FC;}
	.st115{opacity:0.659;}
	.st116{fill:#CCD0FC;}
	.st117{opacity:0.683;}
	.st118{fill:#CACFFC;}
	.st119{opacity:0.707;}
	.st120{fill:#C9CDFB;}
	.st121{opacity:0.732;}
	.st122{fill:#C7CBFB;}
	.st123{opacity:0.756;}
	.st124{fill:#C5C9FB;}
	.st125{opacity:0.78;}
	.st126{fill:#C3C8FB;}
	.st127{opacity:0.805;}
	.st128{opacity:0.829;}
	.st129{fill:#BFC4FB;}
	.st130{opacity:0.854;}
	.st131{fill:#BDC2FB;}
	.st132{opacity:0.878;}
	.st133{fill:#BBC1FB;}
	.st134{opacity:0.902;}
	.st135{fill:#BABFFA;}
	.st136{opacity:0.927;}
	.st137{fill:#B8BDFA;}
	.st138{opacity:0.951;}
	.st139{fill:#B6BBFA;}
	.st140{opacity:0.976;}
	.st141{fill:#B4BAFA;}
	.st142{opacity:0.3;fill:#191C3C;enable-background:new    ;}
	.st143{fill:#FE5E31;}
	.st144{opacity:0.35;}
	.st145{fill:#6168FF;}
</style>
<g>
	<g id="Graphics">
		<g id="Layer_8">
			
				<linearGradient id="SVGID_1_" gradientUnits="userSpaceOnUse" x1="35.1997" y1="-22.9911" x2="282.1987" y2="137.0079" gradientTransform="matrix(1 0 0 -1 0 192)">
				<stop  offset="0" style="stop-color:#DFE1FD"/>
				<stop  offset="0.454" style="stop-color:#EBECFE"/>
				<stop  offset="1" style="stop-color:#F4F5FE"/>
			</linearGradient>
			<path class="st0" d="M311.4,131.7c5.5,8.8,8.2,19.7,2.6,28.1c-4.8,7.2-14.3,10-19.1,17.2c-2.4,3.6-3.7,8.4-7.5,10.5
				c-2.3,1.3-5.1,1.4-7.8,1.4l-242.2,0c-2.7,0-5.5,0-8-1.2c-2.9-1.4-4.9-4.3-6.3-7.2c-6.7-14-4.8-30.6,5-42.7
				c5.9-7.1,14.3-12.1,18.9-20.1c4-7,4.5-15.3,5.8-23.2c1.7-10.1,5.8-20.3,15.5-24.6c11.6-5.2,23.2-9.6,32.3-19
				c9.7-10.2,15.2-24.6,27.3-31.8c11.6-6.9,26.3-5.2,39.3-1.4s25.4,9.8,38.9,10.8c16.5,1.2,33.5-5,49.3,0
				c11,3.5,19.6,11.9,23.5,22.8c5.3,15.2,0.2,32.7,6.4,47.5c4.6,11.1,14.8,18.7,22.5,28C309.1,128.4,310.3,130,311.4,131.7z"/>
		</g>
		<g id="Layer_6">
			<path class="st1" d="M196.8,114.8H254c1.8,0,3.3,1.5,3.3,3.3v68.1c0,1.8-1.5,3.3-3.3,3.3h-57.1c-1.8,0-3.3-1.5-3.3-3.3v-68.1
				C193.5,116.3,195,114.8,196.8,114.8z"/>
			<path class="st2" d="M200.4,120.6h50c1,0,1.8,0.8,1.8,1.8v13.7c0,1-0.8,1.8-1.8,1.8h-50c-1,0-1.8-0.8-1.8-1.8v-13.7
				C198.6,121.4,199.4,120.6,200.4,120.6z"/>
			<path class="st2" d="M200.4,143.4h50c1,0,1.8,0.8,1.8,1.8v13.7c0,1-0.8,1.8-1.8,1.8h-50c-1,0-1.8-0.8-1.8-1.8v-13.7
				C198.6,144.2,199.4,143.4,200.4,143.4z"/>
			<path class="st2" d="M200.4,166.2h50c1,0,1.8,0.8,1.8,1.8v13.7c0,1-0.8,1.8-1.8,1.8h-50c-1,0-1.8-0.8-1.8-1.8V168
				C198.6,167,199.4,166.2,200.4,166.2z"/>
			<circle class="st1" cx="225.4" cy="129.2" r="1.8"/>
			<circle class="st1" cx="225.4" cy="152.2" r="1.8"/>
			<circle class="st1" cx="225.4" cy="175.1" r="1.8"/>
			<path class="st2" d="M77.6,80.7c-14.4,8.9-9.9,29.7-9.7,44c0.2,15.8,0.4,31.7,0.6,47.5c0,0.4-0.4,0.7-0.8,0.7
				c-0.4,0-0.7-0.3-0.7-0.7c-0.3-18.9-0.5-37.9-0.8-56.8c-0.2-13.4-2.5-28,10.6-36.1c0.4-0.2,0.8-0.1,1,0.3
				C78.1,80,78,80.4,77.6,80.7L77.6,80.7L77.6,80.7z"/>
			<path class="st2" d="M69.7,87.9c0.6-1.4,1.4-2.7,2.3-3.9c1.6-1.7,3.5-3.1,5.6-4.1l0.3,0.2c1.3,3,1.7,6.4,1.2,9.6
				c-0.5,3.3-2.6,6.1-5.5,7.7c-2.2,1-4.7,1.2-6.7,2.5C66.2,95.7,67.9,91.6,69.7,87.9z"/>
			<path class="st2" d="M54.6,62.7c14.3,5.7,11.2,27.3,11.8,39.5c1,20.7,1.5,41.3,1.4,62c0,0.4-0.4,0.7-0.8,0.7
				c-0.4,0-0.7-0.3-0.7-0.7c0.1-17.2-0.2-34.4-0.9-51.6c-0.3-7.8-0.7-15.5-1.1-23.3c-0.4-9,0-21.2-10.1-25.2
				C53.3,63.8,53.7,62.3,54.6,62.7L54.6,62.7L54.6,62.7z"/>
			<path class="st2" d="M64.4,87.6c0-0.1,0-0.1,0.1-0.2c0.2,0.3,0.4,0.7,0.6,1.1L64.4,87.6z"/>
			<path class="st2" d="M53.8,63.9c0.1-0.4,0.5-0.7,0.9-0.6c0.1,0,0.2,0,0.2,0.1c4.7,1.5,8.3,5.2,9.9,9.9c1.5,4.6,1.3,9.5-0.3,14
				c-1.8-2.8-5.4-4.2-7.9-6.5C52.1,76.7,51.4,69.5,53.8,63.9z"/>
			<path class="st3" d="M73.2,189H60.3c-3.2,0-5.8-2.6-5.8-5.8l0,0v-19l0,0H79l0,0v19C79,186.4,76.4,189,73.2,189z"/>
			<path class="st2" d="M66.1,134.8c0.2-5.7,0.5-12.5-3.8-17c-3.3-3.5-11.8-5.9-16.6-6c-0.4,0-0.7-0.4-0.7-0.8
				c0-0.4,0.3-0.7,0.7-0.7c3.6,0.1,7.4,1.5,10.9,2.7c2.5,0.9,4.9,1.8,6.8,3.8c4.6,4.8,4.4,11.9,4.2,18.1c0,0.4-0.4,0.7-0.8,0.7
				C66.4,135.5,66.1,135.2,66.1,134.8L66.1,134.8z"/>
			<path class="st2" d="M44.1,109.7c0.1-0.1,0.2-0.1,0.4-0.1l5.4,0c1.6-0.1,3.1,0.1,4.6,0.4c3,0.8,5.5,3,7.4,5.5l0.6,0.1
				c-2.8,0.9-5.5,2.1-8.5,2.4s-6.2-0.4-8-2.7c-1.1-1.5-1.7-3.3-1.9-5.2C44,109.9,44,109.8,44.1,109.7z"/>
			<g id="_Group_">
				<g id="_Group_2">
					<g id="_Group_3">
						<path id="_Path_" class="st1" d="M232,104.1h-10v3c0,2.2,0.8,4.2,2.3,5.8l0,0v1.5h5.5V113l0,0c1.5-1.6,2.3-3.7,2.3-5.8
							L232,104.1L232,104.1z"/>
					</g>
				</g>
				<g id="_Group_4">
					<g id="_Group_5">
						<path id="_Path_2" class="st4" d="M230,104.1v3c0,2.2-0.8,4.2-2.3,5.8l0,0v1.5h1.2V113l0,0c1.5-1.6,2.3-3.7,2.3-5.8v-3H230z"
							/>
					</g>
				</g>
				<g id="_Group_6">
					<g id="_Group_7">
						<g id="_Group_8">
							<path id="_Path_3" class="st1" d="M223.1,110.4h-1.6c-1.5,0-2.7-1.2-2.7-2.7c0-1.5,1.2-2.7,2.7-2.7h1.1v1.2h-1.1
								c-0.9,0-1.6,0.7-1.6,1.6c0,0.9,0.7,1.6,1.6,1.6c0,0,0,0,0,0h1.6V110.4z"/>
						</g>
					</g>
				</g>
				<path id="_Path_4" class="st2" d="M223.5,104.1v2.6c0,0.4,0.3,0.8,0.8,0.8l0,0l0,0c0.4,0,0.8-0.3,0.8-0.8c0,0,0,0,0,0v-0.1
					c0-0.4,0.3-0.6,0.6-0.6l0,0l0,0c0.4,0,0.6,0.3,0.6,0.6c0,0,0,0,0,0v4.2c0,0.4,0.3,0.7,0.7,0.7l0,0c0.4,0,0.7-0.3,0.7-0.7v-1.8
					c0-0.4,0.3-0.7,0.7-0.7l0,0l0,0c0.4,0,0.8-0.3,0.8-0.8v-3.5L223.5,104.1L223.5,104.1z"/>
			</g>
			<path class="st1" d="M292.4,141.3c0-1.5-0.3-3-0.9-4.4c-4.8,5.9-6.5,13.6-4.6,20.9l1.4,1.3c2.2-2.3,3.6-5.2,4-8.4
				C292.7,147.6,292.7,144.5,292.4,141.3z"/>
			<path class="st1" d="M305.1,149.4c-0.1-0.1-0.3-0.2-0.4-0.2c-5.7-1.3-11.4,2.3-12.7,8c-0.2,0.8-0.3,1.5-0.3,2.3l0.9,1.1
				c2,0.5,4.1-0.5,5.7-1.7c3-2.3,5.3-5.3,6.7-8.9C305.2,150,305.2,149.7,305.1,149.4z"/>
			<path class="st1" d="M274.3,149.3c-2.1-1.7-4.6-3.4-7.3-3.2c-0.3,0-0.6,0.1-0.8,0.3c-0.3,0.6,0.7,1,0.8,1.6c0,0.4,0,0.7-0.1,1.1
				c-0.1,0.7,0,1.4,0.3,2c2.7,6.3,9.3,10.1,16.1,9.3l0.8-1.3C281.3,155.5,278,152.2,274.3,149.3z"/>
			<path class="st1" d="M282.1,159.5c4.7,4.5,5.3,11.1,4.5,17.3c-0.2,1.3,1.9,1.3,2.1,0c0.9-6.7,0-13.9-5.1-18.8
				c-0.4-0.4-1.1-0.4-1.5,0C281.7,158.4,281.7,159,282.1,159.5L282.1,159.5L282.1,159.5z"/>
			<path class="st1" d="M286.7,157.3c1,5.9-0.3,11.9,0.4,17.8c0.1,1.3,2.2,1.3,2.1,0c-0.7-6.1,0.6-12.3-0.4-18.4
				C288.5,155.4,286.5,156,286.7,157.3L286.7,157.3L286.7,157.3z"/>
			<path class="st1" d="M292.9,156.9c-1.9,2.6-3.3,5.4-4.3,8.5c-0.9,3.3-0.6,7-0.8,10.4c0,0.6,0.5,1,1.1,1c0.5,0,1-0.5,1-1
				c0.1-3.2-0.1-6.8,0.7-9.9c0.9-2.9,2.3-5.6,4.1-8C295.4,156.8,293.6,155.8,292.9,156.9L292.9,156.9L292.9,156.9z"/>
			<path class="st3" d="M295.3,189.1h-11.7c-0.5,0-0.9-0.3-1-0.8l-4-15.1c-0.2-0.6,0.2-1.1,0.8-1.3c0.1,0,0.2,0,0.3,0h19.7
				c0.6,0,1.1,0.5,1.1,1.1c0,0.1,0,0.2,0,0.3l-4,15.1C296.1,188.7,295.7,189.1,295.3,189.1z"/>
			<path class="st5" d="M291,139.2c-1.6,5.9-1.6,12-3,18c0,0.1,0,0.2,0.1,0.2c0.1,0,0.2,0,0.2-0.1c1.4-5.9,1.4-12.1,3-18
				c0-0.1,0-0.2-0.1-0.2C291.1,139.1,291,139.1,291,139.2L291,139.2z"/>
			<path class="st5" d="M292.9,158.9c2.4-3.8,6.1-6.8,10.4-8.2c0.2-0.1,0.1-0.4-0.1-0.3c-4.4,1.5-8.1,4.5-10.6,8.4
				c0,0.1,0,0.2,0.1,0.2C292.8,159,292.9,159,292.9,158.9L292.9,158.9L292.9,158.9z"/>
			<path class="st5" d="M267.8,147.9c1,2.3,2.6,4.2,4.7,5.5c3,2.1,6.9,3.1,9.6,5.5c0.2,0.1,0.4-0.1,0.3-0.3
				c-1.9-1.6-4.3-2.3-6.5-3.6c-3.1-1.8-6.3-3.8-7.7-7.3C268,147.6,267.7,147.7,267.8,147.9L267.8,147.9L267.8,147.9z"/>
			<rect x="246.5" y="175.4" class="st6" width="4.7" height="7.1"/>
			<path class="st7" d="M251.8,180.7c0.2,1.9,0.5,3.7,1.1,5.5c0.2,0.3,0.3,0.6,0.4,0.9v2.6h-11v-1.4c0-0.6,0.2-1.3,0.6-1.8
				c0.9-1.3,3.7-3.9,3.3-5.8H251.8z"/>
			<path class="st8" d="M251.7,180.7L251.7,180.7L251.7,180.7C251.8,180.7,251.8,180.7,251.7,180.7z"/>
			<path class="st8" d="M253.2,187.8v1.9h-11v-1.4c0-0.2,0-0.3,0-0.5H253.2L253.2,187.8z"/>
			<path class="st8" d="M249.6,182.9h-2.5c-0.1,0-0.3-0.1-0.3-0.3v-0.1c0-0.1,0.1-0.3,0.3-0.3h2.5c0.1,0,0.3,0.1,0.3,0.3v0.1
				C249.9,182.7,249.8,182.9,249.6,182.9z"/>
			<path class="st8" d="M249.3,184.4h-2.5c-0.1,0-0.3-0.1-0.3-0.3V184c0-0.1,0.1-0.3,0.3-0.3h2.5c0.1,0,0.3,0.1,0.3,0.3v0.1
				C249.5,184.3,249.4,184.4,249.3,184.4z"/>
			<rect x="276.8" y="175.4" class="st6" width="4.7" height="7.1"/>
			<path class="st9" d="M268.7,115.1c-1.3,3.2-9.2,31.1-9.2,31.1l-7.1,33.4h-6.9l3.6-37.9l2.6-40.2l15,1.8l2.7,7.4L268.7,115.1z"/>
			<polygon class="st9" points="284.5,109.1 284.1,142.7 282.4,179.6 275.8,179.6 273.1,150.1 266.7,115.5 266.7,103.3 283.2,104.8 
							"/>
			<path class="st6" d="M267.7,60.9h9.9V47.8h-10.8C269.3,51.1,267.7,60.9,267.7,60.9z"/>
			<path class="st10" d="M283.2,107.5c-0.3,7.7-25.3-4.7-30.8-1.8l6.6-45.5c0,0,6.1-2.4,8.6-0.5c3.5,2.6,9.9,0,9.9,0l4.5,1.8
				C282,61.5,283.5,100.9,283.2,107.5z"/>
			<path class="st7" d="M268.1,52.7c0,0,1.8,30-13.1,49c0,0-4.5,11.2-8.2,11.8c0,0-3.8-9.7,0.8-17.4c2.9-4.7,8.4-15.1,8.8-20.6
				l0.9-15.8L268.1,52.7z"/>
			<path class="st7" d="M277.6,52.7c0,0-4.3,19.7-4.5,29.7c-0.1,8.2,12.6,35.4,12.6,35.4s7.8-8.2,3.7-17.6
				c-2.7-6.2-5.8-11.2-5.4-15.2L284,56.9L277.6,52.7z"/>
			<path class="st6" d="M263.3,45.4c0.1-1.3,0.3-2.6,0.7-3.9c-0.4-0.2-0.7-0.2-1.1-0.2c-0.3,0-0.5-0.3-0.4-0.6
				c0-0.1,0.1-0.2,0.1-0.3c1.2-1.3,3.4-3.5,3.8-4.3c0.2-0.5,0.4-0.9,0.7-1.3c0.2-0.3,0.4-0.7,0.6-1c0.2-0.5,0.7-0.8,1.2-1
				c0.5,0,1,0,1.5,0.2c2,0.4,4,1,5.9,1.9c0.7,0.3,1.4,0.7,2.1,1.2c0.9,0.7,1.6,1.7,2,2.8c0.5,2,0.5,4,0,6c-0.1,0.5-0.2,1-0.4,1.4
				c-0.4,0.7-1,1.2-1.7,1.6c-1.2,0.7-2.4,1.4-3.6,2c-0.7,0.4-1.5,0.7-2.3,1c-1.3,0.3-2.7,0.4-4,0.3c-1,0.1-2.1-0.2-3-0.6
				c-0.8-0.5-1.4-1.3-1.7-2.3C263.3,47.3,263.2,46.3,263.3,45.4z"/>
			<path class="st11" d="M266.4,27.1c2,1.5,4.4,2.3,6.9,2.5c2.5,0.1,4.9,0.5,7.3,1.2c1.5,0.5,3.7,1.4,4.4,2.9c1,2.1,0.8,5.2,0.3,7.4
				c-0.4,1.7-1.2,3.2-2.3,4.5c-1.2,1.3-2.7,2.3-4.3,2.9c-0.1,0.1-0.3,0.1-0.4,0.2c-0.1,0.1-0.3,0.2-0.4,0.2
				c-0.3,0.1-0.3-0.4-0.3-0.6c0-0.4,0.2-0.8,0.4-1.2c0.2-0.3,0.4-0.6,0.7-0.9c0.5-0.9,0.8-1.9,0.7-2.9c0.1-0.5,0-1-0.1-1.5
				c-0.1-0.5-0.5-0.9-1-1c-0.5,0-1,0.2-1.4,0.6c-0.8,0.7-1.4,1.5-1.9,2.5c0-0.9-0.1-1.7-0.1-2.6c0-0.6-0.1-1.2-0.2-1.8
				c-0.2-0.8-0.8-1.5-0.6-2.3c0.1-0.3,0.3-0.7,0.4-1c0-0.5-0.3-1-0.8-1.3c-0.5-0.2-1-0.3-1.5-0.4c-0.8-0.1-1.6-0.4-2.4-0.6
				c-0.7-0.2-1.4-0.5-2-1c-0.6-0.6-1-1.3-1.1-2.1c-0.2-0.8-0.2-1.6-0.2-2.4C266.3,28,266.3,27.6,266.4,27.1z"/>
			<path class="st6" d="M296.1,74.1l5.3,13.7c0.5,1.4,0.4,3-0.4,4.3l-16.9,21.6l-3-4.5L292,92c0.7-1.5,0.7-3.2-0.1-4.7l-5.3-9.3
				C286.6,78.1,293,80.4,296.1,74.1z"/>
			<path class="st6" d="M281.1,109.2l-1.9,0.3l-1.3,1.2c-0.5,0.4-0.5,1.2-0.1,1.7l0.4,0.5l-0.6,1c-0.3,0.4-0.2,0.9,0.1,1.3l1.9,2.3
				c0.4,0.4,1,0.5,1.4,0.2l2-1.3c0.4-0.3,0.8-0.7,0.9-1.2l0.3-1.5L281.1,109.2z"/>
			<path class="st7" d="M282.1,180.7c-0.3,2,0.3,4,1.6,5.5c0.2,0.2,0.4,0.6,0.4,0.9v2.6h-10.5v-1.4c0-0.6,0.2-1.3,0.6-1.8
				c0.9-1.3,2.6-3.9,2.2-5.8H282.1L282.1,180.7z"/>
			<path class="st8" d="M282,180.7L282,180.7L282,180.7C282.1,180.7,282,180.7,282,180.7z"/>
			<path class="st8" d="M284.1,187.8v1.9h-10.5v-1.4c0-0.2,0-0.3,0-0.5H284.1z"/>
			<path class="st8" d="M279.9,182.9h-2.5c-0.1,0-0.3-0.1-0.3-0.3v-0.1c0-0.1,0.1-0.3,0.3-0.3h2.5c0.1,0,0.3,0.1,0.3,0.3v0.1
				C280.2,182.7,280.1,182.9,279.9,182.9z"/>
			<path class="st8" d="M279.5,184.4h-2.5c-0.1,0-0.3-0.1-0.3-0.3V184c0-0.1,0.1-0.3,0.3-0.3h2.5c0.1,0,0.3,0.1,0.3,0.3v0.1
				C279.8,184.3,279.7,184.4,279.5,184.4z"/>
			<path class="st7" d="M277.6,52.7l6.9,4.5l3.1,1.5c2,0.9,3.5,2.6,4.3,4.7l5.5,12.6c-6,1.2-6.2,6.6-10.5,5.6L280.8,67l-3.2-7.3
				L277.6,52.7L277.6,52.7z"/>
			<path class="st7" d="M268.1,52.7l-6.9,3l-3.9,1c-2.4,0.6-4.4,2.3-5.4,4.6l-6.4,12.8c4.1,0,8.4,5.5,9.1,4.5l7.9-13.9L268.1,52.7z"
				/>
			<path class="st12" d="M265.9,49.7c-0.1-0.8,0.3-1.5,1-1.9l0,0c0.2-0.1,0.4-0.3,0.5-0.5l0.6-1.7c0.2-0.4,0.2-0.9,0.1-1.4l-0.2-1.3
				c-0.1-0.6-0.6-1-1.2-0.9c-0.1,0-0.2,0-0.3,0.1l-2.2,1l-1.4,1.3l0,0c-0.1,1.2,0,2.4,0.3,3.5c0.3,1,1,1.9,1.9,2.5
				c0.3,0.2,0.7,0.3,1.1,0.4L265.9,49.7z"/>
			<path class="st6" d="M246.3,74.6l15-24.2v-4c0-0.5,0.2-1,0.6-1.3l1.7-1.7l2-0.9c0.5-0.2,1.1,0,1.3,0.5c0,0.1,0.1,0.2,0.1,0.3
				l0.2,1.2c0.1,0.4,0,0.8-0.1,1.2l-0.5,1.5c-0.1,0.2-0.2,0.4-0.4,0.5l0,0c-0.6,0.4-1,1-0.9,1.7l0.1,1.1L268,51l-3.3,2.6l-10.8,25
				c-0.9,2.2-3.5,3.2-5.6,2.2c0,0-0.1,0-0.1-0.1l0,0c-2.1-1-3.1-3.5-2-5.7C246.1,74.9,246.2,74.7,246.3,74.6z"/>
			<path class="st8" d="M166.7,186.3L166.7,186.3c0.2,0.1,0.5,0,0.7-0.2l15.4-27.5c0.1-0.2,0-0.5-0.2-0.7c0,0,0,0,0,0h0
				c-0.2-0.1-0.5,0-0.7,0.2c0,0,0,0,0,0l-15.4,27.5C166.4,185.9,166.5,186.2,166.7,186.3C166.7,186.3,166.7,186.3,166.7,186.3z"/>
			<path class="st13" d="M169.1,189.4l-39.5,0c-0.6,0-1-0.5-1-1l0,0l0-1.2c0-0.6,0.5-1,1-1h0l39.5,0c0.6,0,1,0.5,1,1l0,0l0,1.2
				C170.1,188.9,169.7,189.4,169.1,189.4L169.1,189.4L169.1,189.4z"/>
			<path class="st8" d="M128.6,187.6c0-0.4,0.1-0.7,0.4-1c0,0.8,0.7,1.5,1.5,1.5l38.5,0c0.5,0,0.9-0.2,1.2-0.6v0.2
				c0,0.8-0.7,1.5-1.5,1.5l-38.5,0c-0.8,0-1.5-0.7-1.5-1.5L128.6,187.6L128.6,187.6z"/>
			<rect x="139.3" y="187" class="st14" width="3" height="1.2"/>
			<rect x="135.7" y="187" class="st14" width="3" height="1.2"/>
			<rect x="161.2" y="187" class="st14" width="3" height="1.2"/>
			
				<rect x="19.7" y="154.1" transform="matrix(0.8162 -0.5777 0.5777 0.8162 -87.4751 42.3338)" class="st6" width="6.2" height="9.1"/>
			<path class="st15" d="M19.1,158.8l-12.5,1.3l-2.7,1.5c-0.8,0.5-1.8,0.2-2.4-0.5l-1.1-1.5L18,147.1c1-0.7,2.3-0.5,3,0.5
				c0,0,0,0,0,0l1,1.4c1,1.4,1.7,3.1,1.9,4.8l0.2,1.4l0,0c-0.8-1.1-2.3-1.4-3.5-0.6l-1,0.7C18.5,156.1,18.3,157.7,19.1,158.8
				L19.1,158.8L19.1,158.8z"/>
			<path class="st11" d="M19,148.6L1.7,160.8c-0.3,0.2-0.8,0.2-1.1-0.2c0,0,0,0,0,0L0,159.8l18-12.7c1-0.7,2.4-0.5,3.1,0.5
				c0,0,0,0,0,0l1,1.4c0,0,0,0,0,0.1C21.3,148.1,20,147.9,19,148.6z"/>
			<polygon class="st9" points="50,185.3 48.2,181.1 25.9,156.8 20.2,161.1 41.4,189.5 45.4,187.5 			"/>
			
				<rect x="44.9" y="153.2" transform="matrix(0.2182 -0.9759 0.9759 0.2182 -113.826 170.466)" class="st6" width="9.1" height="6.2"/>
			<path class="st15" d="M46.9,153.6l-9.4-8.4l-3-1c-0.9-0.3-1.4-1.2-1.2-2.1l0.4-1.8l21.1,4.7c1.2,0.3,1.9,1.4,1.7,2.6l-0.4,1.6
				c-0.4,1.7-1.2,3.3-2.3,4.7l-0.9,1.1l0,0c0.3-1.3-0.5-2.7-1.9-3l-1.2-0.3C48.5,151.4,47.2,152.2,46.9,153.6L46.9,153.6L46.9,153.6
				z"/>
			<path class="st11" d="M54.5,146.7L33.6,142c-0.4-0.1-0.7-0.5-0.6-0.9l0.2-1l21.6,4.9c1.2,0.3,1.9,1.4,1.7,2.6c0,0,0,0,0,0
				l-0.4,1.6c0,0,0,0,0,0.1C56.4,148.1,55.6,146.9,54.5,146.7z"/>
			<path class="st16" d="M45.5,178.1l-7.7-8.4l-3.9,9.6l7.6,10.1h0l4-1.9l4.6-2.2l-1.8-4.3l-1.3-1.4c-0.6,0.2-1.2-0.1-1.4-0.7
				c-0.1-0.2-0.1-0.5,0-0.7L45.5,178.1z"/>
			<path class="st9" d="M79.4,169.1l-2.6,0.2c-6.1,0.5-12.1,2.3-17.6,5.1l-10.3,5.3c-0.6,0.3-1.2,0.1-1.5-0.5
				c-0.1-0.3-0.2-0.5-0.1-0.8l6.5-23.5h-8.1l-10.2,24.8c-1.5,3.7,0.3,7.9,3.9,9.4c0.9,0.4,1.9,0.6,2.9,0.5l39.2-0.3L79.4,169.1z"/>
			<path class="st15" d="M120.4,174l-3.9,6.3c-1.7,2.7-5.2,3.7-8,2.2l-1.9-1l-11.7,5.2c-2,0.9-4.2,1.4-6.5,1.5l-9.6,1.3
				c0,0-5.2-12.8-1.1-20.9l0,0c9.7,2.5,19.9,0.4,27.8-5.7l8.1-6.3L120.4,174z"/>
			<polygon class="st6" points="130.1,162.4 121.6,168.6 120.4,163.1 126.4,157.4 			"/>
			<path class="st6" d="M124.4,159.4c-0.1-2.4,1.7-3.6,3.4-4.4c3.8-1.9,8.1-2.6,12.3-2.3l1,0.2c0,1.2-0.2,2.5-0.8,3.6
				c-0.4,1.5-0.3,3.1,0.1,4.6c0,0.1,0,0.2-0.1,0.3c0,0-0.1,0-0.1,0c-0.8,0-1.6,0-2.3,0.2c-0.2,0.4-0.4,0.8-0.6,1.2
				c-0.2,0.5-0.5,1-0.8,1.4c-1.1,1.2-3,1.2-4.6,1c-2.3-0.3-4.7-1-6.2-2.7C124.9,161.6,124.5,160.5,124.4,159.4z"/>
			<path class="st6" d="M123,165.8l2.7,15.4c0.1,0.8,0.8,1.5,1.6,1.6l22.9,2.5l4.9,0.8l4.4,1.2l3.5,0.1l0,0c0.1,1-0.6,1.8-1.6,2
				h-2.6l-6.2-0.3l-28,0.7c-2,0.1-3.8-1.2-4.5-3l-7.6-20.2L123,165.8z"/>
			<path class="st17" d="M102.6,164.8c0.6-1.3,1.5-2.5,2.5-3.5c1-1.1,2.1-2,3.3-2.8c1.8-1.1,3.6-1.4,5.2-2.8
				c1.5-1.3,2.7-2.9,3.7-4.6c0.5-0.9,0.9-1.9,1.4-2.7c1.8-2.8,4.7-4.8,8-5.4c1.9-0.5,3.8-0.8,5.7-0.9c2.2,0,4.4,0.4,6.4,1.1
				c1.5,0.4,2.9,1.1,4.1,2.2c1.4,1.4,1.8,3.4,1.2,5.2c-0.2,0.7-0.5,1.4-0.9,2c-1.6,2.2-5.2,2.3-7.6,2.9c-1.5,0.3-3.1-0.1-4.6,0.5
				c-1.3,0.7-2.4,1.6-3.2,2.8c-1.4,1.4-2.6,3-3.7,4.8c-0.5,1-0.9,2-1.4,3c-1.2,3.1-3.3,5.7-5.9,7.7c-3.2,2.2-7.3,2.4-10.7,0.6
				C102.8,172.7,101.1,168.3,102.6,164.8z"/>
			<path id="_Rectangle_" class="st10" d="M128.7,36h70.9c1.6,0,2.9,1.3,2.9,2.9v86.5c0,1.6-1.3,2.9-2.9,2.9h-70.9
				c-1.6,0-2.9-1.3-2.9-2.9V38.9C125.9,37.3,127.2,36,128.7,36z"/>
			<path id="_Path_5" class="st7" d="M202.5,45.8v-7.1c0-1.5-1.2-2.7-2.7-2.7l0,0h-71.3c-1.5,0-2.7,1.2-2.7,2.7v7.1L202.5,45.8
				L202.5,45.8z"/>
			<circle id="_Path_6" class="st10" cx="131.7" cy="40.9" r="0.8"/>
			<circle id="_Path_7" class="st10" cx="135.4" cy="40.9" r="0.8"/>
			<circle id="_Path_8" class="st10" cx="139.2" cy="40.9" r="0.8"/>
			<circle class="st1" cx="141.1" cy="90.5" r="6.8"/>
			<circle class="st1" cx="141.1" cy="109.2" r="6.8"/>
			<rect x="155.9" y="86.1" class="st18" width="38" height="1.4"/>
			<rect x="155.9" y="91.7" class="st18" width="21" height="1.4"/>
			<rect x="155.9" y="105" class="st18" width="38" height="1.4"/>
			<rect x="155.9" y="110.5" class="st18" width="21" height="1.4"/>
			<circle class="st1" cx="141.1" cy="70.5" r="6.8"/>
			<rect x="155.9" y="66.1" class="st18" width="38" height="1.4"/>
			<rect x="155.9" y="71.7" class="st18" width="21" height="1.4"/>
			<g>
				<path class="st19" d="M200,36h-18.2v33.4c0,2.7,2.2,4.9,4.9,4.9l0,0h15.8V38.5C202.5,37.1,201.4,36,200,36C200,36,200,36,200,36
					z"/>
				<path class="st20" d="M200,36h-18.1v33.3c0,2.7,2.2,4.9,4.9,4.9h15.7V38.5C202.5,37.1,201.4,36,200,36z"/>
				<path class="st21" d="M200,36h-17.9v33.3c0,2.7,2.2,4.9,4.9,4.9l0,0h15.6V38.5C202.5,37.1,201.4,36,200,36C200,36,200,36,200,36
					z"/>
				<path class="st22" d="M200,36h-17.8v33.2c0,2.7,2.2,4.8,4.8,4.8h15.5V38.5C202.5,37.1,201.4,36,200,36z"/>
				<path class="st23" d="M200,36h-17.7v33.1c0,2.7,2.1,4.8,4.8,4.8l0,0h15.4V38.5C202.5,37.1,201.4,36,200,36C200,36,200,36,200,36
					z"/>
				<path class="st24" d="M200,36h-17.6v33c0,2.6,2.1,4.8,4.8,4.8h15.3V38.4C202.5,37.1,201.4,36,200,36C200,36,200,36,200,36z"/>
				<path class="st25" d="M200.1,36h-17.4v32.9c0,2.6,2.1,4.7,4.7,4.7h15.1V38.4C202.5,37.1,201.4,36,200.1,36
					C200.1,36,200.1,36,200.1,36z"/>
				<path class="st26" d="M200.1,36h-17.3v32.8c0,2.6,2.1,4.7,4.7,4.7h15V38.4C202.5,37.1,201.4,36,200.1,36
					C200.1,36,200.1,36,200.1,36z"/>
				<path class="st27" d="M200.1,36h-17.2v32.7c0,2.6,2.1,4.7,4.7,4.7h14.9v-35C202.5,37.1,201.4,36,200.1,36
					C200.1,36,200.1,36,200.1,36z"/>
				<path class="st28" d="M200.1,36H183v32.7c0,2.6,2.1,4.6,4.6,4.6h14.8V38.4C202.5,37,201.4,36,200.1,36
					C200.1,36,200.1,36,200.1,36z"/>
				<path class="st29" d="M200.1,36h-16.9v32.6c0,2.5,2.1,4.6,4.6,4.6l0,0h14.7V38.3C202.5,37,201.4,36,200.1,36
					C200.1,36,200.1,36,200.1,36z"/>
				<path class="st30" d="M200.1,36h-16.8v32.5c0,2.5,2,4.6,4.6,4.6l0,0h14.6V38.3C202.5,37,201.4,36,200.1,36
					C200.1,36,200.1,36,200.1,36z"/>
				<path class="st31" d="M200.2,36h-16.7v32.4c0,2.5,2,4.5,4.5,4.5c0,0,0,0,0,0h14.5V38.3C202.5,37,201.5,36,200.2,36
					C200.2,36,200.2,36,200.2,36z"/>
				<path class="st32" d="M200.2,36h-16.6v32.3c0,2.5,2,4.5,4.5,4.5h14.4V38.3C202.5,37,201.5,36,200.2,36
					C200.2,36,200.2,36,200.2,36z"/>
				<path class="st33" d="M200.2,36h-16.5v32.2c0,2.5,2,4.5,4.5,4.5l0,0h14.3V38.3C202.5,37,201.5,36,200.2,36
					C200.2,36,200.2,36,200.2,36z"/>
				<path class="st34" d="M200.2,36h-16.3v32.2c0,2.4,2,4.4,4.4,4.4l0,0h14.2V38.3C202.5,37,201.5,36,200.2,36z"/>
				<path class="st35" d="M200.2,36H184V68c0,2.4,2,4.4,4.4,4.4h14.1V38.2C202.5,37,201.5,36,200.2,36z"/>
				<path class="st36" d="M200.2,36h-16.1v32c0,2.4,2,4.4,4.4,4.4l0,0h14V38.2C202.5,37,201.5,36,200.2,36z"/>
				<path class="st37" d="M200.3,36h-16v31.9c0,2.4,1.9,4.3,4.3,4.3h13.9v-34C202.5,37,201.5,36,200.3,36
					C200.3,36,200.3,36,200.3,36z"/>
				<path class="st38" d="M200.3,36h-15.8v31.8c0,2.4,1.9,4.3,4.3,4.3l0,0h13.8V38.2C202.5,37,201.5,36,200.3,36z"/>
				<path class="st39" d="M200.3,36h-15.7v31.7c0,2.4,1.9,4.3,4.3,4.3h13.6V38.2C202.5,37,201.5,36,200.3,36
					C200.3,36,200.3,36,200.3,36z"/>
				<path class="st40" d="M200.3,36h-15.6v31.6c0,2.3,1.9,4.2,4.2,4.2l0,0h13.5V38.2C202.5,37,201.5,36,200.3,36
					C200.3,36,200.3,36,200.3,36z"/>
				<path class="st41" d="M200.3,36h-15.5v31.6c0,2.3,1.9,4.2,4.2,4.2h13.4V38.1C202.5,36.9,201.5,36,200.3,36
					C200.3,36,200.3,36,200.3,36z"/>
				<path class="st42" d="M200.3,36H185v31.5c0,2.3,1.9,4.2,4.2,4.2h13.3V38.1C202.5,36.9,201.5,36,200.3,36
					C200.3,36,200.3,36,200.3,36z"/>
				<path class="st43" d="M200.4,36h-15.2v31.4c0,2.3,1.9,4.1,4.1,4.1h13.2V38.1C202.5,36.9,201.5,36,200.4,36
					C200.4,36,200.4,36,200.4,36z"/>
				<path class="st44" d="M200.4,36h-15.1v31.3c0,2.3,1.8,4.1,4.1,4.1l0,0h13.1V38.1C202.5,36.9,201.6,36,200.4,36
					C200.4,36,200.4,36,200.4,36z"/>
				<path class="st45" d="M200.4,36h-15v31.2c0,2.2,1.8,4.1,4.1,4.1h13V38.1C202.5,36.9,201.6,36,200.4,36z"/>
				<path class="st46" d="M200.4,36h-14.9v31.1c0,2.2,1.8,4,4,4c0,0,0,0,0,0h12.9V38.1C202.5,36.9,201.6,36,200.4,36
					C200.4,36,200.4,36,200.4,36z"/>
				<path class="st47" d="M200.4,36h-14.7v31c0,2.2,1.8,4,4,4h12.8V38C202.5,36.9,201.6,36,200.4,36C200.4,36,200.4,36,200.4,36z"/>
				<path class="st48" d="M200.5,36h-14.6v31c0,2.2,1.8,4,4,4l0,0h12.7V38C202.5,36.9,201.6,36,200.5,36C200.5,36,200.5,36,200.5,36
					z"/>
				<path class="st49" d="M200.5,36H186v30.9c0,2.2,1.8,3.9,3.9,3.9l0,0h12.6V38C202.5,36.9,201.6,36,200.5,36z"/>
				<path class="st50" d="M200.5,36h-14.4v30.8c0,2.2,1.7,3.9,3.9,3.9h12.5V38C202.5,36.9,201.6,36,200.5,36
					C200.5,36,200.5,36,200.5,36z"/>
				<path class="st51" d="M200.5,36h-14.2v30.7c0,2.1,1.7,3.9,3.9,3.9l0,0h12.4V38C202.5,36.9,201.6,36,200.5,36
					C200.5,36,200.5,36,200.5,36z"/>
				<path class="st52" d="M200.5,36h-14.1v30.6c0,2.1,1.7,3.8,3.8,3.8h12.3V38C202.5,36.9,201.6,36,200.5,36
					C200.5,36,200.5,36,200.5,36z"/>
				<path class="st53" d="M200.5,36h-14v30.5c0,2.1,1.7,3.8,3.8,3.8l0,0h12.2V37.9C202.5,36.9,201.6,36,200.5,36
					C200.5,36,200.5,36,200.5,36z"/>
				<path class="st54" d="M200.6,36h-13.9v30.5c0,2.1,1.7,3.8,3.8,3.8h12V37.9C202.5,36.8,201.6,36,200.6,36
					C200.6,36,200.6,36,200.6,36z"/>
				<path class="st55" d="M200.6,36h-13.7v30.4c0,2.1,1.7,3.7,3.7,3.7h11.9V37.9C202.5,36.8,201.6,36,200.6,36
					C200.6,36,200.6,36,200.6,36z"/>
				<path class="st56" d="M200.6,36H187v30.3c0,2,1.7,3.7,3.7,3.7h11.8V37.9C202.5,36.8,201.6,36,200.6,36
					C200.6,36,200.6,36,200.6,36z"/>
				<path class="st57" d="M200.6,36h-13.5v30.2c0,2,1.6,3.7,3.7,3.7l0,0h11.7v-32C202.5,36.8,201.7,36,200.6,36
					C200.6,36,200.6,36,200.6,36z"/>
				<path class="st58" d="M200.6,36h-13.4v30.1c0,2,1.6,3.6,3.6,3.6h11.6V37.8C202.5,36.8,201.7,36,200.6,36
					C200.6,36,200.6,36,200.6,36z"/>
				<path class="st59" d="M200.6,36h-13.3v30c0,2,1.6,3.6,3.6,3.6l0,0h11.5V37.8C202.5,36.8,201.7,36,200.6,36
					C200.6,36,200.6,36,200.6,36z"/>
				<path class="st3" d="M200.7,36h-13.1v29.9c0,2,1.6,3.6,3.6,3.6h11.4V37.8C202.5,36.8,201.7,36,200.7,36z"/>
			</g>
			<path class="st10" d="M192,22.3h45c2.8,0,5.1,2.3,5.1,5.1v38c0,2.8-2.3,5.1-5.1,5.1h-45c-2.8,0-5.1-2.3-5.1-5.1v-38
				C186.9,24.6,189.2,22.3,192,22.3z"/>
			<path class="st7" d="M237.6,22.3h-46.1c-2.5,0-4.6,2.1-4.6,4.6c0,0,0,0,0,0v5.2h55.3v-5.2C242.2,24.3,240.1,22.3,237.6,22.3
				C237.6,22.3,237.6,22.3,237.6,22.3z"/>
			<circle class="st10" cx="193.1" cy="27.2" r="0.8"/>
			<circle class="st10" cx="196.8" cy="27.2" r="0.8"/>
			<circle class="st10" cx="196.8" cy="27.2" r="0.8"/>
			<circle class="st10" cx="200.4" cy="27.2" r="0.8"/>
			<circle class="st2" cx="197.6" cy="45" r="6.6"/>
			<rect x="207.8" y="41.5" class="st18" width="30.2" height="1.8"/>
			<rect x="207.8" y="46.7" class="st18" width="30.2" height="1.8"/>
			<rect x="207.8" y="51.8" class="st60" width="11.3" height="1.8"/>
			<path class="st17" d="M286.6,9.1c0-5-4-9.1-9.1-9.1s-9.1,4-9.1,9.1c0,3.1,1.5,5.9,4.1,7.6v5.8h9.9v-5.8
				C285.1,15,286.6,12.1,286.6,9.1z"/>
			<polygon id="_Path_9" class="st11" points="283.2,22.8 279.9,25.6 275,25.6 272,22.8 272,18.5 283.2,18.5 			"/>
			<path id="_Rectangle_2" class="st61" d="M271.9,18.9h11.4c0.2,0,0.4,0.2,0.4,0.4v0.1c0,0.2-0.2,0.4-0.4,0.4h-11.4
				c-0.2,0-0.4-0.2-0.4-0.4v-0.1C271.5,19.1,271.7,18.9,271.9,18.9z"/>
			<path id="_Rectangle_3" class="st61" d="M271.9,20.3h11.4c0.2,0,0.4,0.2,0.4,0.4v0.1c0,0.2-0.2,0.4-0.4,0.4h-11.4
				c-0.2,0-0.4-0.2-0.4-0.4v-0.1C271.5,20.4,271.7,20.3,271.9,20.3z"/>
			<path id="_Rectangle_4" class="st61" d="M271.9,21.7h11.4c0.2,0,0.4,0.2,0.4,0.4v0.1c0,0.2-0.2,0.4-0.4,0.4h-11.4
				c-0.2,0-0.4-0.2-0.4-0.4V22C271.5,21.8,271.7,21.7,271.9,21.7z"/>
			<path id="_Rectangle_5" class="st62" d="M274.8,25.4h5.1l0,0v0.2c0,0.8-0.6,1.4-1.4,1.4h-2.2c-0.8,0-1.4-0.6-1.4-1.4L274.8,25.4
				L274.8,25.4z"/>
			<polygon class="st10" points="277,11.4 274.7,9.1 275.4,8.4 277,10 280.5,6.5 281.3,7.2 			"/>
			<path class="st19" d="M152.4,54.3h-26.5v30.5h26.5c2,0,3.6-1.6,3.6-3.5v0V57.8C155.9,55.8,154.4,54.3,152.4,54.3L152.4,54.3z"/>
			<path class="st20" d="M152.3,54.3h-26.4v30.4h26.4c2,0,3.5-1.6,3.5-3.5c0,0,0,0,0,0V57.8C155.8,55.8,154.2,54.3,152.3,54.3
				L152.3,54.3z"/>
			<path class="st21" d="M152.1,54.3h-26.2v30.2h26.2c1.9,0,3.5-1.6,3.5-3.5l0,0V57.8C155.6,55.8,154.1,54.3,152.1,54.3L152.1,54.3z
				"/>
			<path class="st22" d="M152,54.3h-26.1v30H152c1.9,0,3.5-1.6,3.5-3.5v0v-23C155.5,55.8,153.9,54.3,152,54.3L152,54.3z"/>
			<path class="st23" d="M151.8,54.3h-26v29.9h26c1.9,0,3.5-1.6,3.5-3.5V57.7C155.3,55.8,153.8,54.3,151.8,54.3z"/>
			<path class="st24" d="M151.7,54.3h-25.8V84h25.8c1.9,0,3.5-1.5,3.5-3.5l0,0V57.7C155.2,55.8,153.6,54.3,151.7,54.3
				C151.7,54.3,151.7,54.3,151.7,54.3z"/>
			<path class="st25" d="M151.6,54.3h-25.7v29.6h25.7c1.9,0,3.4-1.5,3.4-3.4V57.7C155,55.8,153.5,54.3,151.6,54.3z"/>
			<path class="st26" d="M151.4,54.3h-25.5v29.4h25.5c1.9,0,3.4-1.5,3.4-3.4V57.7C154.8,55.8,153.3,54.3,151.4,54.3z"/>
			<path class="st27" d="M151.3,54.3h-25.4v29.2h25.4c1.9,0,3.4-1.5,3.4-3.4V57.7C154.7,55.8,153.2,54.3,151.3,54.3
				C151.3,54.3,151.3,54.3,151.3,54.3z"/>
			<path class="st28" d="M151.1,54.3h-25.3v29.1h25.3c1.9,0,3.4-1.5,3.4-3.4V57.6C154.5,55.8,153,54.3,151.1,54.3z"/>
			<path class="st29" d="M151,54.3h-25.1v28.9H151c1.9,0,3.4-1.5,3.4-3.4V57.6C154.4,55.8,152.9,54.3,151,54.3z"/>
			<path class="st30" d="M150.9,54.3h-25V83h25c1.8,0,3.3-1.5,3.3-3.3V57.6C154.2,55.8,152.7,54.3,150.9,54.3z"/>
			<path class="st31" d="M150.7,54.3h-24.8v28.6h24.8c1.8,0,3.3-1.5,3.3-3.3V57.6C154.1,55.7,152.6,54.3,150.7,54.3z"/>
			<path class="st32" d="M150.6,54.3h-24.7v28.4h24.7c1.8,0,3.3-1.5,3.3-3.3c0,0,0,0,0,0V57.6C153.9,55.7,152.4,54.3,150.6,54.3
				L150.6,54.3z"/>
			<path class="st33" d="M150.5,54.3h-24.6v28.3h24.6c1.8,0,3.3-1.5,3.3-3.3V57.5C153.7,55.7,152.3,54.3,150.5,54.3z"/>
			<path class="st34" d="M150.3,54.3h-24.4v28.1h24.4c1.8,0,3.3-1.5,3.3-3.3v0V57.5C153.6,55.7,152.1,54.3,150.3,54.3L150.3,54.3z"
				/>
			<path class="st35" d="M150.2,54.3h-24.3v28h24.3c1.8,0,3.3-1.5,3.3-3.3c0,0,0,0,0,0V57.5C153.4,55.7,152,54.3,150.2,54.3
				L150.2,54.3z"/>
			<path class="st36" d="M150,54.3h-24.2v27.8H150c1.8,0,3.2-1.4,3.2-3.2V57.5C153.3,55.7,151.8,54.3,150,54.3z"/>
			<path class="st37" d="M149.9,54.3h-24v27.6h24c1.8,0,3.2-1.4,3.2-3.2v0V57.5C153.1,55.7,151.7,54.3,149.9,54.3L149.9,54.3z"/>
			<path class="st38" d="M149.8,54.3h-23.9v27.5h23.9c1.8,0,3.2-1.4,3.2-3.2V57.5C153,55.7,151.5,54.3,149.8,54.3z"/>
			<path class="st39" d="M149.6,54.3h-23.7v27.3h23.7c1.8,0,3.2-1.4,3.2-3.2l0,0v-21C152.8,55.7,151.4,54.3,149.6,54.3L149.6,54.3z"
				/>
			<path class="st40" d="M149.5,54.3h-23.6v27.2h23.6c1.7,0,3.2-1.4,3.2-3.2v0V57.4C152.6,55.7,151.2,54.3,149.5,54.3L149.5,54.3z"
				/>
			<path class="st41" d="M149.4,54.3h-23.5v27h23.5c1.7,0,3.1-1.4,3.1-3.1V57.4C152.5,55.7,151.1,54.3,149.4,54.3
				C149.4,54.3,149.4,54.3,149.4,54.3z"/>
			<path class="st42" d="M149.2,54.3h-23.3v26.8h23.3c1.7,0,3.1-1.4,3.1-3.1l0,0V57.4C152.3,55.7,150.9,54.3,149.2,54.3z"/>
			<path class="st43" d="M149.1,54.3h-23.2v26.7h23.2c1.7,0,3.1-1.4,3.1-3.1c0,0,0,0,0,0V57.4C152.2,55.6,150.8,54.3,149.1,54.3
				C149.1,54.3,149.1,54.3,149.1,54.3z"/>
			<path class="st44" d="M148.9,54.3h-23v26.5h23c1.7,0,3.1-1.4,3.1-3.1V57.3C152,55.6,150.6,54.3,148.9,54.3z"/>
			<path class="st45" d="M148.8,54.3h-22.9v26.4h22.9c1.7,0,3.1-1.4,3.1-3.1V57.3C151.9,55.6,150.5,54.3,148.8,54.3z"/>
			<path class="st46" d="M148.7,54.3h-22.8v26.2h22.8c1.7,0,3-1.4,3-3V57.3C151.7,55.6,150.3,54.3,148.7,54.3z"/>
			<path class="st47" d="M148.5,54.3h-22.6v26h22.6c1.7,0,3-1.4,3-3c0,0,0,0,0,0v-20C151.6,55.6,150.2,54.3,148.5,54.3L148.5,54.3z"
				/>
			<path class="st48" d="M148.4,54.3h-22.5v25.9h22.5c1.7,0,3-1.3,3-3V57.3C151.4,55.6,150,54.3,148.4,54.3z"/>
			<path class="st49" d="M148.2,54.3h-22.4V80h22.4c1.7,0,3-1.3,3-3V57.2C151.2,55.6,149.9,54.3,148.2,54.3z"/>
			<path class="st50" d="M148.1,54.3h-22.2v25.6h22.2c1.6,0,3-1.3,3-3c0,0,0,0,0,0V57.2C151.1,55.6,149.7,54.3,148.1,54.3
				L148.1,54.3z"/>
			<path class="st51" d="M148,54.3h-22.1v25.4H148c1.6,0,3-1.3,3-3V57.2C150.9,55.6,149.6,54.3,148,54.3z"/>
			<path class="st52" d="M147.8,54.3h-21.9v25.3h21.9c1.6,0,2.9-1.3,2.9-2.9v0V57.2C150.8,55.6,149.4,54.3,147.8,54.3L147.8,54.3z"
				/>
			<path class="st53" d="M147.7,54.3h-21.8v25.1h21.8c1.6,0,2.9-1.3,2.9-2.9c0,0,0,0,0,0V57.2C150.6,55.6,149.3,54.3,147.7,54.3
				L147.7,54.3z"/>
			<path class="st54" d="M147.6,54.3h-21.7v24.9h21.7c1.6,0,2.9-1.3,2.9-2.9V57.2C150.5,55.6,149.2,54.3,147.6,54.3
				C147.6,54.3,147.6,54.3,147.6,54.3z"/>
			<path class="st55" d="M147.4,54.3h-21.5V79h21.5c1.6,0,2.9-1.3,2.9-2.9v0v-19C150.3,55.5,149,54.3,147.4,54.3L147.4,54.3z"/>
			<path class="st56" d="M147.3,54.3h-21.4v24.6h21.4c1.6,0,2.9-1.3,2.9-2.9V57.1C150.1,55.5,148.9,54.3,147.3,54.3z"/>
			<path class="st57" d="M147.1,54.3h-21.2v24.5h21.2c1.6,0,2.8-1.3,2.8-2.8l0,0V57.1C150,55.5,148.7,54.3,147.1,54.3z"/>
			<path class="st58" d="M147,54.3h-21.1v24.3H147c1.6,0,2.8-1.3,2.8-2.8V57.1C149.8,55.5,148.6,54.3,147,54.3z"/>
			<path class="st59" d="M146.9,54.3h-21v24.1h21c1.6,0,2.8-1.3,2.8-2.8V57.1C149.7,55.5,148.4,54.3,146.9,54.3z"/>
			<path class="st3" d="M146.7,54.3h-20.8v24h20.8c1.5,0,2.8-1.2,2.8-2.8V57C149.5,55.5,148.3,54.3,146.7,54.3z"/>
			<path class="st10" d="M104,49.8h43.7c1.9,0,3.5,1.6,3.5,3.5v22.8c0,1.9-1.6,3.5-3.5,3.5H104c-1.9,0-3.5-1.6-3.5-3.5V53.2
				C100.6,51.3,102.1,49.8,104,49.8z"/>
			<circle id="_Path_10" class="st7" cx="113.7" cy="64.6" r="8.2"/>
			<path id="_Path_11" class="st10" d="M116.7,65.1l-5.3,3c-0.3,0.1-0.6,0.1-0.7-0.2c0-0.1-0.1-0.2-0.1-0.3v-6.1
				c0-0.3,0.2-0.5,0.5-0.5c0.1,0,0.2,0,0.3,0.1l5.3,3c0.3,0.1,0.3,0.5,0.2,0.7C116.8,65,116.8,65.1,116.7,65.1z"/>
			<rect x="124.9" y="58.1" class="st18" width="22.5" height="2"/>
			<rect x="124.9" y="63.6" class="st18" width="22.5" height="2"/>
			<rect x="124.9" y="69.2" class="st9" width="11.2" height="2"/>
			<g class="st63">
				<path class="st10" d="M202.5,83.6h-17.9c-1.2,0-2.2,1-2.2,2.2v0v21c0,1.2,1,2.2,2.2,2.2l0,0h17.9V83.6z"/>
			</g>
			<g class="st64">
				<path class="st65" d="M202.5,83.6h-17.7c-1.2,0-2.2,1-2.2,2.2l0,0v20.8c0,1.2,1,2.2,2.2,2.2l0,0h17.7V83.6z"/>
			</g>
			<g class="st66">
				<path class="st67" d="M202.5,83.6h-17.6c-1.2,0-2.2,1-2.2,2.2v20.7c0,1.2,1,2.2,2.2,2.2c0,0,0,0,0,0h17.6V83.6L202.5,83.6z"/>
			</g>
			<g class="st68">
				<path class="st69" d="M202.5,83.6H185c-1.2,0-2.1,1-2.1,2.1v20.5c0,1.2,1,2.1,2.1,2.1h17.5V83.6z"/>
			</g>
			<g class="st70">
				<path class="st71" d="M202.5,83.6h-17.4c-1.2,0-2.1,1-2.1,2.1c0,0,0,0,0,0v20.4c0,1.2,1,2.1,2.1,2.1c0,0,0,0,0,0h17.4V83.6z"/>
			</g>
			<g class="st72">
				<path class="st73" d="M202.5,83.6h-17.3c-1.2,0-2.1,0.9-2.1,2.1l0,0V106c0,1.2,0.9,2.1,2.1,2.1l0,0h17.3V83.6L202.5,83.6z"/>
			</g>
			<g class="st74">
				<path class="st75" d="M202.5,83.6h-17.1c-1.2,0-2.1,0.9-2.1,2.1c0,0,0,0,0,0v20.1c0,1.2,0.9,2.1,2.1,2.1l0,0h17.1V83.6z"/>
			</g>
			<g class="st76">
				<path class="st77" d="M202.5,83.6h-17c-1.2,0-2.1,0.9-2.1,2.1v20c0,1.2,0.9,2.1,2.1,2.1h17V83.6z"/>
			</g>
			<g class="st78">
				<path class="st18" d="M202.5,83.6h-16.9c-1.1,0-2.1,0.9-2.1,2.1v19.8c0,1.1,0.9,2.1,2.1,2.1h16.9V83.6z"/>
			</g>
			<g class="st79">
				<path class="st80" d="M202.5,83.6h-16.8c-1.1,0-2.1,0.9-2.1,2.1v19.7c0,1.1,0.9,2.1,2.1,2.1h16.8V83.6z"/>
			</g>
			<g class="st81">
				<path class="st82" d="M202.5,83.6h-16.7c-1.1,0-2,0.9-2,2v0v19.6c0,1.1,0.9,2,2,2l0,0h16.7V83.6z"/>
			</g>
			<g class="st83">
				<path class="st84" d="M202.5,83.6h-16.6c-1.1,0-2,0.9-2,2v19.4c0,1.1,0.9,2,2,2h16.6V83.6z"/>
			</g>
			<g class="st85">
				<path class="st86" d="M202.5,83.6h-16.4c-1.1,0-2,0.9-2,2l0,0v19.3c0,1.1,0.9,2,2,2l0,0h16.4V83.6z"/>
			</g>
			<g class="st87">
				<path class="st88" d="M202.5,83.6h-16.3c-1.1,0-2,0.9-2,2v19.1c0,1.1,0.9,2,2,2h16.3V83.6z"/>
			</g>
			<g class="st89">
				<path class="st90" d="M202.5,83.6h-16.2c-1.1,0-2,0.9-2,2v19c0,1.1,0.9,2,2,2c0,0,0,0,0,0h16.2V83.6z"/>
			</g>
			<g class="st91">
				<path class="st92" d="M202.5,83.6h-16.1c-1.1,0-2,0.9-2,2v18.9c0,1.1,0.9,2,2,2h16.1V83.6z"/>
			</g>
			<g class="st93">
				<path class="st94" d="M202.5,83.6h-16c-1.1,0-2,0.9-2,2v18.7c0,1.1,0.9,2,2,2h16V83.6z"/>
			</g>
			<g class="st95">
				<path class="st96" d="M202.5,83.6h-15.8c-1.1,0-1.9,0.9-1.9,1.9c0,0,0,0,0,0v18.6c0,1.1,0.9,1.9,1.9,1.9l0,0h15.8V83.6z"/>
			</g>
			<g class="st97">
				<path class="st98" d="M202.5,83.6h-15.7c-1.1,0-1.9,0.9-1.9,1.9v0V104c0,1.1,0.9,1.9,1.9,1.9l0,0h15.7V83.6z"/>
			</g>
			<g class="st99">
				<path class="st100" d="M202.5,83.6h-15.6c-1.1,0-1.9,0.9-1.9,1.9v18.3c0,1.1,0.9,1.9,1.9,1.9c0,0,0,0,0,0h15.6V83.6z"/>
			</g>
			<g class="st101">
				<path class="st102" d="M202.5,83.6H187c-1,0-1.9,0.9-1.9,1.9v18.2c0,1,0.9,1.9,1.9,1.9h15.5V83.6z"/>
			</g>
			<g class="st103">
				<path class="st104" d="M202.5,83.6h-15.4c-1,0-1.9,0.8-1.9,1.9v18c0,1,0.8,1.9,1.9,1.9h15.4V83.6z"/>
			</g>
			<g class="st105">
				<path class="st106" d="M202.5,83.6h-15.2c-1,0-1.9,0.8-1.9,1.9l0,0v17.9c0,1,0.8,1.9,1.9,1.9l0,0h15.2V83.6z"/>
			</g>
			<g class="st107">
				<path class="st108" d="M202.5,83.6h-15.1c-1,0-1.9,0.8-1.9,1.9l0,0v17.7c0,1,0.8,1.9,1.9,1.9l0,0h15.1V83.6z"/>
			</g>
			<g class="st109">
				<path class="st110" d="M202.5,83.6h-15c-1,0-1.8,0.8-1.8,1.8v17.6c0,1,0.8,1.8,1.8,1.8c0,0,0,0,0,0h15V83.6z"/>
			</g>
			<g class="st111">
				<path class="st112" d="M202.5,83.6h-14.9c-1,0-1.8,0.8-1.8,1.8v17.5c0,1,0.8,1.8,1.8,1.8h14.9V83.6z"/>
			</g>
			<g class="st113">
				<path class="st114" d="M202.5,83.6h-14.8c-1,0-1.8,0.8-1.8,1.8v17.3c0,1,0.8,1.8,1.8,1.8h14.8V83.6z"/>
			</g>
			<g class="st115">
				<path class="st116" d="M202.5,83.6h-14.6c-1,0-1.8,0.8-1.8,1.8c0,0,0,0,0,0v17.2c0,1,0.8,1.8,1.8,1.8l0,0h14.6V83.6z"/>
			</g>
			<g class="st117">
				<path class="st118" d="M202.5,83.6H188c-1,0-1.8,0.8-1.8,1.8v0v17c0,1,0.8,1.8,1.8,1.8l0,0h14.5V83.6z"/>
			</g>
			<g class="st119">
				<path class="st120" d="M202.5,83.6h-14.4c-1,0-1.8,0.8-1.8,1.8v16.9c0,1,0.8,1.8,1.8,1.8h14.4V83.6z"/>
			</g>
			<g class="st121">
				<path class="st122" d="M202.5,83.6h-14.3c-1,0-1.8,0.8-1.8,1.8v16.8c0,1,0.8,1.8,1.8,1.8h14.3V83.6z"/>
			</g>
			<g class="st123">
				<path class="st124" d="M202.5,83.6h-14.2c-1,0-1.7,0.8-1.7,1.7l0,0V102c0,1,0.8,1.7,1.7,1.7l0,0h14.2V83.6z"/>
			</g>
			<g class="st125">
				<path class="st126" d="M202.5,83.6h-14.1c-1,0-1.7,0.8-1.7,1.7v16.5c0,1,0.8,1.7,1.7,1.7h14.1V83.6z"/>
			</g>
			<g class="st127">
				<path class="st5" d="M202.5,83.6h-13.9c-0.9,0-1.7,0.8-1.7,1.7v16.3c0,0.9,0.8,1.7,1.7,1.7h13.9V83.6z"/>
			</g>
			<g class="st128">
				<path class="st129" d="M202.5,83.6h-13.8c-0.9,0-1.7,0.8-1.7,1.7v16.2c0,0.9,0.8,1.7,1.7,1.7c0,0,0,0,0,0h13.8V83.6z"/>
			</g>
			<g class="st130">
				<path class="st131" d="M202.5,83.6h-13.7c-0.9,0-1.7,0.7-1.7,1.7v16.1c0,0.9,0.8,1.7,1.7,1.7l0,0h13.7V83.6z"/>
			</g>
			<g class="st132">
				<path class="st133" d="M202.5,83.6h-13.6c-0.9,0-1.7,0.7-1.7,1.7c0,0,0,0,0,0v15.9c0,0.9,0.7,1.7,1.7,1.7l0,0h13.6V83.6z"/>
			</g>
			<g class="st134">
				<path class="st135" d="M202.5,83.6H189c-0.9,0-1.6,0.7-1.6,1.6v15.8c0,0.9,0.7,1.6,1.6,1.6h13.5V83.6z"/>
			</g>
			<g class="st136">
				<path class="st137" d="M202.5,83.6h-13.3c-0.9,0-1.6,0.7-1.6,1.6v15.7c0,0.9,0.7,1.6,1.6,1.6h13.3V83.6z"/>
			</g>
			<g class="st138">
				<path class="st139" d="M202.5,83.6h-13.2c-0.9,0-1.6,0.7-1.6,1.6v0v15.5c0,0.9,0.7,1.6,1.6,1.6h13.2V83.6z"/>
			</g>
			<g class="st140">
				<path class="st141" d="M202.5,83.6h-13.1c-0.9,0-1.6,0.7-1.6,1.6c0,0,0,0,0,0v15.4c0,0.9,0.7,1.6,1.6,1.6l0,0h13.1V83.6z"/>
			</g>
			<path class="st3" d="M202.5,83.6h-13c-0.9,0-1.6,0.7-1.6,1.6l0,0v15.2c0,0.9,0.7,1.6,1.6,1.6l0,0h13V83.6z"/>
			<path class="st10" d="M188.9,80.1h29.5c1.1,0,2,0.9,2,2v19.3c0,1.1-0.9,2-2,2h-29.5c-1.1,0-2-0.9-2-2V82.1
				C186.9,81,187.8,80.1,188.9,80.1z"/>
			<rect x="189.4" y="82.3" class="st1" width="28.5" height="17.8"/>
			<polygon class="st3" points="193.8,88.8 189.4,95.2 189.4,100.1 200.7,100.1 			"/>
			<polygon class="st10" points="194.5,92.1 194.9,92.8 195.6,91.8 193.8,88.8 191.8,91.8 192.4,92.8 192.9,92.1 193.6,93.4 			"/>
			<polygon class="st3" points="199.2,97.6 202.5,92.7 207.1,100.1 200.7,100.1 			"/>
			<circle class="st2" cx="209.5" cy="88.4" r="3.1"/>
			<polygon class="st10" points="203.2,96 203.6,96.6 204.3,95.6 202.5,92.7 200.5,95.6 201.1,96.6 201.6,95.9 202.4,97.2 			"/>
			<path class="st10" d="M83.4,107.5h34.6c2,0,3.7,1.6,3.7,3.7v29.2c0,2-1.6,3.7-3.7,3.7H83.4c-2,0-3.7-1.6-3.7-3.7v-29.2
				C79.7,109.2,81.3,107.5,83.4,107.5z"/>
			<path class="st7" d="M118.1,107.5H83.2c-1.9,0-3.5,1.6-3.5,3.5v4h41.9v-4C121.6,109.1,120,107.5,118.1,107.5z"/>
			<circle class="st10" cx="84.4" cy="111.3" r="0.6"/>
			<circle class="st10" cx="87.2" cy="111.3" r="0.6"/>
			<circle class="st10" cx="87.2" cy="111.3" r="0.6"/>
			<circle class="st10" cx="89.9" cy="111.3" r="0.6"/>
			<polygon class="st15" points="98.1,128.2 93.3,130.9 94.3,142.7 106,142.7 107.8,131.2 102.4,128.2 			"/>
			<polygon class="st6" points="102.4,128.3 100.3,132.3 98.1,128.3 98.1,125.5 102.4,125.5 			"/>
			<path class="st11" d="M104.3,119.7c-0.1-0.2-0.1-0.4-0.2-0.5l-0.5-1c-0.2-0.4-0.7-0.7-1.2-0.7c-0.5-0.2-1-0.4-1.5-0.5
				c-0.3,0-0.7,0.1-1,0.3c-0.1,0.1-0.3,0.1-0.4,0.2c-0.2,0-0.5,0-0.7,0c-0.6,0-1.1,0.4-1.2,1c0,0.1,0,0.2-0.1,0.3
				c0,0.1-0.1,0.1-0.2,0.2c-0.7,0.7-0.3,1.9-0.2,2.8c0,0.5,0.1,1,0.4,1.4l-0.2,0c0.5,0.5,1.1,0.8,1.8,0.9c0.7,0.1,1.4,0.1,2,0.1
				l2.5,0c0.2,0,0.3,0,0.4-0.1c0.1-0.1,0.2-0.3,0.2-0.5c0.1-0.9,0-1.9,0.1-2.8C104.3,120.2,104.3,120,104.3,119.7z"/>
			<path class="st142" d="M98.1,127.1l0.6,1c0.6,1.1,2,1.4,3,0.8c0.3-0.2,0.5-0.4,0.7-0.6v-2.9h-4.3L98.1,127.1L98.1,127.1z"/>
			<path class="st6" d="M97.8,121.2v3.3c0,0.7,0.2,1.5,0.6,2.1l0.6,1.1c0.4,0.7,1.1,1.1,1.9,1.1l0,0c0.8,0,1.5-0.4,1.9-1.1l0.1-0.2
				c0.4-0.7,0.6-1.4,0.6-2.2v-6h-5.7L97.8,121.2z"/>
			<path class="st6" d="M97.8,125l-0.7-0.3c-0.4-0.5-0.5-1.1-0.4-1.7c0,0,0.2-0.6,0.7-0.3l0.6,0.6L97.8,125z"/>
			<path class="st6" d="M103.4,125l0.7-0.3c0.4-0.5,0.5-1.1,0.4-1.7c0,0-0.2-0.6-0.7-0.3l-0.6,0.6L103.4,125z"/>
			<path class="st11" d="M97.6,121.7c0.1,0.5,0.1,1,0.1,1.5c0,0.2-0.1,0.8,0.3,0.6c0.1-0.1,0.2-0.2,0.2-0.3c0-0.5-0.4-0.9-0.1-1.4
				c0.3-0.3,0.5-0.6,0.6-0.9c0-0.3,0-0.6-0.1-0.8c0-0.2,0-0.4,0.2-0.6c0.1-0.2,0.4-0.2,0.6-0.2c0.2,0.1,0.3,0.2,0.5,0.4
				c0.4,0.3,0.9,0.4,1.3,0.3c0.3-0.1,0.5-0.3,0.8-0.5c0.2-0.2,0.5-0.2,0.8-0.2c0.4,0.2,0.6,0.6,0.7,1c0.1,0.5,0.2,0.9,0.1,1.4
				c-0.1,0.4-0.2,0.7-0.3,1.1c0,0.1,0,0.2,0,0.3c0,0.2,0.1,0.3,0.2,0.4c0,0,0,0,0,0c0,0,0.1,0,0.1,0c0.2-0.2,0.3-0.6,0.4-0.9
				c0.1-0.4,0.2-0.8,0.1-1.1c-0.2-0.9,0-1.8-0.1-2.7c0-0.1,0-0.2-0.1-0.3c-0.1-0.1-0.2-0.1-0.3-0.2c-1.3-0.3-2.6-0.5-3.9-0.3
				c-0.5,0-0.9,0.1-1.3,0.3c-0.5,0.3-0.7,0.8-0.8,1.4C97.5,120.7,97.5,121.2,97.6,121.7z"/>
			<path class="st6" d="M86.3,137.9l-0.2-0.5l-5.8-3.7l0,0c0.3-0.3,0.9-0.4,1.3-0.1l1.1,0.7l0.4-0.1c0.3-0.1,0.7,0,1,0.2l0.6,0.4
				l1.9,0.6c0.5,0.2,0.9,0.5,1.1,1l0.4,1.1L86.3,137.9z"/>
			<path class="st6" d="M114.3,137.9l0.2-0.5l5.8-3.7l0,0c-0.3-0.3-0.9-0.4-1.3-0.1l-1.1,0.7l-0.4-0.1c-0.3-0.1-0.7,0-1,0.2
				l-0.6,0.4l-1.9,0.6c-0.5,0.2-0.9,0.5-1.1,1l-0.4,1.1L114.3,137.9z"/>
			<path class="st15" d="M98.1,128.2l-5.7,3.2c-1,0.6-1.7,1.6-1.8,2.7l-0.5,6.2l-1.8-3l-2.4,0.7l2.2,4.8l4.8-0.1l1.3-6.6l3.9-5.8
				L98.1,128.2L98.1,128.2z"/>
			<path class="st15" d="M102.4,128.2l5.7,3.2c1,0.6,1.7,1.6,1.8,2.7l0.5,6.2l1.8-3l2.4,0.7l-2.2,4.8l-4.8-0.1l-1.3-6.6l-3.9-5.8
				L102.4,128.2L102.4,128.2z"/>
			<polygon class="st10" points="98.1,128.2 96.8,128.9 98.3,134.2 100.3,132.3 			"/>
			<polygon class="st10" points="102.4,128.2 103.7,128.9 102.2,134.2 100.3,132.3 			"/>
			<path class="st11" d="M99.4,125.8c-0.1,0.2-0.1,0.3-0.2,0.5c-0.1,0.2-0.2,0.3-0.4,0.2c-0.2-0.1-0.3-0.3-0.3-0.5
				c0-0.6,0-1.1-0.1-1.7c-0.1-0.1-0.1-0.3-0.1-0.4c0-0.1,0-0.3,0-0.4c0-0.1-0.1-0.3-0.3-0.3c-0.1,0-0.2,0.1-0.2,0.2
				c0,0.1,0,0.2,0,0.4c0.1,0.6,0.2,1.2,0.1,1.8c0,0.6,0.1,1.2,0.4,1.7c0.1,0.2,0.1,0.4,0.2,0.6c0.3,0.4,0.8,0.7,1.3,0.9
				c0.5,0.1,1,0.2,1.6,0.1c0.3,0,0.7,0,1-0.1c0.9-0.4,1.2-2.1,1.3-3c0-0.4,0-0.7-0.1-1.1c0-0.5,0.1-0.9,0.2-1.4c0-0.1,0-0.1,0-0.2
				c-0.1,0-0.1-0.1-0.2-0.1c-0.2,0.1-0.3,0.3-0.3,0.5c0,0.1,0,0.2,0,0.3c0,0.4,0,0.7-0.1,1.1c-0.1,0.4-0.2,0.8-0.3,1.3
				c0,0.2-0.1,0.4-0.3,0.5c-0.2,0-0.3-0.1-0.4-0.2c0-0.2-0.1-0.3-0.1-0.5c0-0.2,0-0.3-0.1-0.5c-0.2-0.1-0.4-0.2-0.6-0.2
				C100.7,125.3,99.8,125,99.4,125.8z"/>
			<path class="st6" d="M99.5,126.3h0.4c0.2,0,0.3-0.1,0.5-0.2l0.3-0.2l0.3,0.2c0.1,0.1,0.3,0.2,0.4,0.2h0.4c0,0.7-0.5,1.2-1.2,1.2
				c0,0-0.1,0-0.1,0C99.6,127.5,99.8,127,99.5,126.3z"/>
			<polygon class="st10" points="85.9,138 88.3,137.3 89,138.3 86.4,139 			"/>
			<polygon class="st10" points="114.7,138 112.2,137.3 111.6,138.3 114.2,139 			"/>
			<circle class="st143" cx="85.6" cy="120.6" r="2.3"/>
			<polygon class="st10" points="86.2,120.6 84.9,121.3 84.9,119.9 			"/>
			<g id="_Group_9">
				<g id="_Group_10">
					<g id="_Group_11">
						<path id="_Rectangle_6" class="st3" d="M165.8,174.6h-16.9c-1.2,0-2.1-0.9-2.1-2.1v-9.9c0-0.6,0.5-1.2,1.2-1.2l0,0h18.9
							c0.6,0,1.2,0.5,1.2,1.2v9.7C168.1,173.6,167.1,174.6,165.8,174.6C165.8,174.6,165.8,174.6,165.8,174.6z"/>
					</g>
				</g>
				<g id="_Group_12">
					<g id="_Group_13">
						<path id="_Path_12" class="st3" d="M147.1,161.9l8.9-7.3c0.9-0.7,2.2-0.7,3.1,0l8.4,7L147.1,161.9z"/>
					</g>
				</g>
				<g id="_Group_14">
					<g id="_Group_15">
						<path id="_Path_13" class="st10" d="M153,151.4l-3.1,3V171h14.8v-18.4c0-0.7-0.6-1.2-1.2-1.2L153,151.4L153,151.4z"/>
					</g>
				</g>
				<g id="_Group_16" class="st144">
					<g id="_Group_17">
						<polygon id="_Path_14" class="st3" points="152.8,154.1 149.9,157.4 149.9,154.4 						"/>
					</g>
				</g>
				<g id="_Group_18">
					<g id="_Group_19">
						<path id="_Path_15" class="st3" d="M153,151.4l-3.1,3h2.3c0.5,0,0.8-0.4,0.8-0.8V151.4z"/>
					</g>
				</g>
				<g id="_Group_20">
					<g id="_Group_21">
						<path id="_Path_16" class="st1" d="M147.4,174.6c0,0,8.2-5.7,8.2-6.2l-8.6-6.5c-0.2,0.5-0.3,1.1-0.2,1.7v10.5
							C146.8,174.4,147.1,174.6,147.4,174.6C147.4,174.6,147.4,174.6,147.4,174.6z"/>
					</g>
				</g>
				<g id="_Group_22">
					<g id="_Group_23">
						<path id="_Path_17" class="st1" d="M167.6,174.6c0,0-8-5.9-8-6.4l8.3-6.1c0.3,0.4,0.4,0.9,0.3,1.5v10.5
							C168.2,174.4,168,174.6,167.6,174.6C167.6,174.6,167.6,174.6,167.6,174.6z"/>
					</g>
				</g>
				<g id="_Group_24">
					<g id="_Group_25">
						<path id="_Path_18" class="st3" d="M147.3,174.7l8.6-7.1c0.9-0.7,2.1-0.7,3.1,0l8.6,7.1H147.3z"/>
					</g>
				</g>
				<g id="_Group_26">
					<g id="_Group_27">
						<g id="_Group_28">
							<path id="_Compound_Path_" class="st1" d="M159.3,162.1c-0.6,0.3-1.3,0.5-2,0.4c-1.8,0-3.3-1.4-3.4-3.2c0-0.1,0-0.1,0-0.2
								c-0.1-2.2,1.6-4.1,3.9-4.3c0.1,0,0.1,0,0.2,0c1.7-0.1,3.1,1.2,3.2,2.9c0,0.1,0,0.2,0,0.3c0,1.7-0.9,2.6-2,2.6
								c-0.5,0-0.8-0.4-0.8-0.8c0-0.1,0-0.1,0-0.2h0c-0.3,0.6-0.9,1-1.6,1c-0.7,0-1.2-0.6-1.2-1.3c0,0,0-0.1,0-0.1
								c0-1.4,1.2-2.6,2.6-2.6c0,0,0,0,0,0c0.4,0,0.8,0.1,1.2,0.2l-0.4,2c-0.2,0.8,0,1.2,0.3,1.2c0.6,0,1.2-0.7,1.2-2
								c0.1-1.4-0.9-2.6-2.3-2.8c-0.1,0-0.2,0-0.4,0c-1.9,0-3.4,1.6-3.3,3.5c0,0.1,0,0.1,0,0.2c-0.1,1.5,1,2.9,2.5,3
								c0.1,0,0.2,0,0.3,0c0.6,0,1.2-0.1,1.7-0.4L159.3,162.1z M158.7,157.3c-1-0.3-2,0.2-2.3,1.2c-0.1,0.2-0.1,0.5-0.1,0.7
								c-0.1,0.4,0.2,0.8,0.6,0.8c0,0,0.1,0,0.1,0c0.7-0.2,1.3-0.8,1.4-1.5L158.7,157.3z"/>
						</g>
					</g>
				</g>
			</g>
			<path id="_Compound_Path_2" class="st9" d="M107.8,96h1.1c0.2,0,0.4-0.2,0.4-0.4v-1.4c0-0.2-0.2-0.4-0.4-0.4h-0.8
				c-0.1,0-0.3-0.1-0.3-0.2c0-0.1-0.1-0.2-0.1-0.2c-0.1-0.1,0-0.3,0.1-0.4l0.6-0.6c0.2-0.2,0.2-0.4,0-0.6l-1-1
				c-0.2-0.2-0.4-0.2-0.6,0l-0.6,0.6c-0.1,0.1-0.2,0.1-0.4,0.1c-0.1,0-0.2-0.1-0.3-0.1c-0.1,0-0.2-0.2-0.2-0.3v-0.8
				c0-0.2-0.2-0.4-0.4-0.4h-1.4c-0.2,0-0.4,0.2-0.4,0.4v0.8c0,0.1-0.1,0.3-0.2,0.3c-0.1,0-0.2,0.1-0.2,0.1c-0.1,0.1-0.3,0-0.4-0.1
				l-0.6-0.6c-0.2-0.2-0.4-0.2-0.6,0l-1,1c-0.2,0.2-0.2,0.4,0,0.6l0.6,0.6c0.1,0.1,0.1,0.2,0.1,0.4c0,0.1-0.1,0.2-0.1,0.3
				c0,0.1-0.2,0.2-0.3,0.2h-0.8c-0.2,0-0.4,0.2-0.4,0.4v1.4c0,0.2,0.2,0.4,0.4,0.4h0.8c0.1,0,0.3,0.1,0.3,0.2c0,0.1,0.1,0.2,0.1,0.2
				c0.1,0.1,0,0.3-0.1,0.4l-0.6,0.6c-0.2,0.2-0.2,0.4,0,0.6l1,1c0.2,0.2,0.4,0.2,0.6,0l0.6-0.6c0.1-0.1,0.2-0.1,0.4-0.1
				c0.1,0,0.2,0.1,0.3,0.1c0.1,0,0.2,0.2,0.2,0.3v0.8c0,0.2,0.2,0.4,0.4,0.4h1.4c0.2,0,0.4-0.2,0.4-0.4v-0.9c0-0.1,0.1-0.3,0.2-0.3
				c0.1,0,0.2-0.1,0.2-0.1c0.1-0.1,0.3,0,0.4,0.1l0.6,0.6c0.2,0.2,0.4,0.2,0.6,0l1-1c0.2-0.2,0.2-0.4,0-0.6l-0.6-0.6
				c-0.1-0.1-0.1-0.2-0.1-0.4C107.7,96.2,107.8,96,107.8,96z M102.4,94.6c0.2-1.1,1.2-1.8,2.3-1.6c1.1,0.2,1.8,1.2,1.6,2.3
				c-0.2,1.1-1.2,1.8-2.3,1.6c-0.1,0-0.2-0.1-0.4-0.1C102.7,96.4,102.2,95.5,102.4,94.6z"/>
			<path class="st10" d="M99.1,3.8h78.2c2.2,0,4.1,1.8,4.1,4.1v20c0,2.2-1.8,4.1-4.1,4.1H99.1c-2.2,0-4.1-1.8-4.1-4.1v-20
				C95.1,5.6,96.9,3.8,99.1,3.8z"/>
			<path class="st7" d="M177.4,3.8H99.1c-2.2,0-4.1,1.8-4.1,4.1l0,0v2.6h86.4V7.9C181.4,5.6,179.6,3.8,177.4,3.8
				C177.4,3.8,177.4,3.8,177.4,3.8z"/>
			<circle class="st2" cx="107.8" cy="21.6" r="6.6"/>
			<rect x="118" y="15.5" class="st18" width="56.2" height="1.8"/>
			<rect x="118" y="20.7" class="st18" width="56.2" height="1.8"/>
			<rect x="118" y="25.9" class="st60" width="21.1" height="1.8"/>
			<circle class="st10" cx="102.1" cy="7.1" r="0.8"/>
			<circle class="st10" cx="105.8" cy="7.1" r="0.8"/>
			<circle class="st10" cx="109.4" cy="7.1" r="0.8"/>
			<path class="st9" d="M197.7,5.4h7.2c1.4,0,2.6,1.2,2.6,2.6v7.2c0,1.4-1.2,2.6-2.6,2.6h-7.2c-1.4,0-2.6-1.2-2.6-2.6V8
				C195.1,6.6,196.3,5.4,197.7,5.4z"/>
			<path class="st10" d="M198,12L198,12l1.7,0.6v0.9l-2.7-1.1v-0.8l2.7-1.1v0.9L198,12z"/>
			<path class="st10" d="M201,14h-1l1.5-4.8h1L201,14z"/>
			<path class="st10" d="M204.5,12L204.5,12l-1.7-0.6v-0.9l2.7,1.1v0.8l-2.7,1.1v-0.9L204.5,12z"/>
			<g id="_Group_29">
				<path id="_Path_19" class="st145" d="M234.8,100.1l-1.3-0.8c-0.2-0.1-0.4-0.1-0.6,0l-1.3,0.8c-0.1,0.1-0.3,0-0.3-0.1
					c0,0,0-0.1,0-0.1v-5.5h3.8v5.5C235.1,100,235,100.1,234.8,100.1C234.9,100.1,234.8,100.1,234.8,100.1z"/>
				<path id="_Path_20" class="st17" d="M237.2,96.9l-3.8-1.9c-0.1,0-0.2,0-0.2,0l-3.7,2c-0.1,0.1-0.3,0-0.3-0.1c0,0,0-0.1,0-0.2
					l0.7-4.2c0-0.1,0-0.2-0.1-0.2l-3.1-2.9c-0.1-0.1-0.1-0.3,0-0.4c0,0,0.1-0.1,0.1-0.1l4.2-0.7c0.1,0,0.2-0.1,0.2-0.1l1.8-3.8
					c0.1-0.1,0.2-0.2,0.3-0.1c0,0,0.1,0.1,0.1,0.1l1.9,3.8c0,0.1,0.1,0.1,0.2,0.1l4.2,0.6c0.1,0,0.2,0.1,0.2,0.3
					c0,0.1,0,0.1-0.1,0.1l-3,3c-0.1,0.1-0.1,0.1-0.1,0.2l0.8,4.2c0,0.1-0.1,0.3-0.2,0.3C237.3,96.9,237.2,96.9,237.2,96.9z"/>
			</g>
			<circle id="_Path_21" class="st9" cx="80.3" cy="54.2" r="6.5"/>
			<g id="_Group_30">
				<polygon id="_Path_22" class="st10" points="79.4,56.8 77.2,54.6 78.5,53.3 79.4,54.3 82.1,51.6 83.4,52.9 				"/>
			</g>
			<g id="_Group_31">
				<polygon id="_Path_23" class="st7" points="175.9,139.7 174.2,137.4 177.6,137.4 				"/>
				<polygon id="_Path_24" class="st7" points="172.5,139.7 170.7,137.4 174.2,137.4 				"/>
				<polygon id="_Path_25" class="st7" points="174.2,145.4 169,139.6 179.3,139.6 				"/>
				<polygon id="_Path_26" class="st60" points="174.2,145.4 172.5,139.6 175.9,139.6 				"/>
				<polygon id="_Path_27" class="st60" points="170.7,137.4 169,139.6 172.4,139.6 				"/>
				<polygon id="_Path_28" class="st60" points="174.2,137.4 172.5,139.6 175.9,139.6 				"/>
				<polygon id="_Path_29" class="st60" points="177.6,137.4 175.9,139.6 179.3,139.6 				"/>
			</g>
		</g>
	</g>
</g>
</svg>
