<?xml version="1.0" encoding="utf-8"?>
<!-- Generator: Adobe Illustrator 25.1.0, SVG Export Plug-In . SVG Version: 6.00 Build 0)  -->
<svg version="1.1" id="Layer_1" xmlns="http://www.w3.org/2000/svg" xmlns:xlink="http://www.w3.org/1999/xlink" x="0px" y="0px"
	 viewBox="0 0 156.9 28.6" style="enable-background:new 0 0 156.9 28.6;" xml:space="preserve">
<style type="text/css">
	.st0{fill:none;}
	.st1{fill:#F9B200;}
	.st2{fill:#059976;}
	.st3{fill:#425FBC;}
	.st4{fill:#FAD66D;}
	.st5{fill:#8892BD;}
	.st6{fill:#28D0AC;}
	.st7{fill:#222222;}
</style>
<g id="XMLID_215_">
	
		<rect id="XMLID_214_" x="12.6" y="3.1" transform="matrix(0.7071 -0.7071 0.7071 0.7071 0.7983 11.5351)" class="st0" width="3.4" height="3.4"/>
	
		<rect id="XMLID_213_" x="22.1" y="12.6" transform="matrix(0.7071 -0.7071 0.7071 0.7071 -3.1464 21.0351)" class="st0" width="3.4" height="3.4"/>
	
		<rect id="XMLID_212_" x="3.1" y="12.6" transform="matrix(0.7071 -0.7071 0.7071 0.7071 -8.7019 7.5882)" class="st0" width="3.4" height="3.4"/>
	
		<rect id="XMLID_211_" x="12.6" y="12.6" transform="matrix(0.7071 -0.7071 0.7071 0.7071 -5.9235 14.3114)" class="st0" width="3.4" height="3.4"/>
	
		<rect id="XMLID_210_" x="7.8" y="17.4" transform="matrix(0.7071 -0.7071 0.7071 0.7071 -10.695 12.2897)" class="st0" width="3.4" height="3.4"/>
	
		<rect id="XMLID_209_" x="17.3" y="7.9" transform="matrix(0.7071 -0.7071 0.7071 0.7071 -1.195 16.2336)" class="st0" width="3.4" height="3.4"/>
	
		<rect id="XMLID_208_" x="22.1" y="3.1" transform="matrix(0.7071 -0.7071 0.7071 0.7071 3.5754 18.2579)" class="st0" width="3.4" height="3.4"/>
	
		<rect id="XMLID_207_" x="17.3" y="17.4" transform="matrix(0.7071 -0.7071 0.7071 0.7071 -7.9178 19.0118)" class="st0" width="3.4" height="3.4"/>
	
		<rect id="XMLID_206_" x="3.1" y="3.1" transform="matrix(0.7071 -0.7071 0.7071 0.7071 -1.978 4.8111)" class="st0" width="3.4" height="3.4"/>
	
		<rect id="XMLID_205_" x="12.6" y="22.1" transform="matrix(0.7071 -0.7071 0.7071 0.7071 -12.6466 17.0886)" class="st0" width="3.4" height="3.4"/>
	
		<rect id="XMLID_204_" x="7.8" y="7.9" transform="matrix(0.7071 -0.7071 0.7071 0.7071 -3.9728 9.5127)" class="st0" width="3.4" height="3.4"/>
	
		<rect id="XMLID_203_" x="3.1" y="22.1" transform="matrix(0.7071 -0.7071 0.7071 0.7071 -15.4247 10.3658)" class="st0" width="3.4" height="3.4"/>
	
		<rect id="XMLID_202_" x="22.1" y="22.1" transform="matrix(0.7071 -0.7071 0.7071 0.7071 -9.8701 23.8122)" class="st0" width="3.4" height="3.4"/>
	<polygon id="XMLID_201_" class="st1" points="16.7,23.8 14.3,26.2 11.9,28.6 16.6,28.6 19,26.2 	"/>
	<polygon id="XMLID_200_" class="st2" points="7.1,23.8 4.8,26.2 2.4,28.6 7.1,28.6 9.5,26.2 	"/>
	<polygon id="XMLID_199_" class="st1" points="11.9,4.8 14.3,2.4 16.6,0 11.9,0 9.5,2.4 	"/>
	<polygon id="XMLID_198_" class="st2" points="21.4,4.8 23.8,2.4 26.2,0 21.4,0 19,2.4 	"/>
	<polygon id="XMLID_197_" class="st1" points="23.8,16.7 21.4,19 19,21.4 21.4,23.8 23.8,21.4 26.2,19 28.6,16.7 28.6,11.9 
		26.2,14.3 	"/>
	<polygon id="XMLID_196_" class="st2" points="23.8,7.1 21.4,9.5 19,11.9 21.4,14.3 23.8,11.9 26.2,9.5 28.6,7.1 28.6,2.4 26.2,4.8 
			"/>
	<polygon id="XMLID_195_" class="st2" points="16.6,9.5 19,7.1 16.7,4.8 14.3,7.1 11.9,9.5 9.5,11.9 11.9,14.3 14.3,11.9 	"/>
	<polygon id="XMLID_194_" class="st2" points="4.8,21.4 7.1,19 9.5,16.6 7.1,14.3 4.8,16.7 2.4,19 0,21.4 0,26.2 2.4,23.8 	"/>
	<polygon id="XMLID_193_" class="st3" points="23.8,26.2 21.4,28.6 26.2,28.6 28.6,26.2 28.6,21.4 26.2,23.8 	"/>
	<polygon id="XMLID_192_" class="st3" points="4.8,2.4 7.1,0 2.4,0 0,2.4 0,7.1 2.4,4.8 	"/>
	<polygon id="XMLID_191_" class="st1" points="4.8,11.9 7.1,9.5 9.5,7.1 7.1,4.8 4.8,7.1 2.4,9.5 0,11.9 0,16.7 2.4,14.3 	"/>
	<polygon id="XMLID_190_" class="st4" points="16.7,4.8 19,7.1 21.4,9.5 23.8,7.1 21.4,4.8 19,2.4 16.7,0 14.3,2.4 	"/>
	
		<rect id="XMLID_189_" x="24.5" y="10.2" transform="matrix(0.7071 -0.7071 0.7071 0.7071 -0.7462 22.0113)" class="st4" width="3.4" height="3.4"/>
	<polygon id="XMLID_188_" class="st5" points="7.1,4.8 9.5,7.1 11.9,9.5 14.3,7.1 11.9,4.8 9.5,2.4 7.1,0 4.8,2.4 	"/>
	
		<rect id="XMLID_187_" x="24.5" y="19.7" transform="matrix(0.7071 -0.7071 0.7071 0.7071 -7.4699 24.7884)" class="st5" width="3.4" height="3.4"/>
	<polygon id="XMLID_186_" class="st5" points="16.7,14.3 19,16.6 21.4,19 23.8,16.6 21.4,14.3 19,11.9 16.7,9.5 14.3,11.9 	"/>
	
		<rect id="XMLID_185_" x="24.5" y="0.7" transform="matrix(0.7071 -0.7071 0.7071 0.7071 5.975 19.2332)" class="st6" width="3.4" height="3.4"/>
	
		<rect id="XMLID_184_" x="0.7" y="15" transform="matrix(0.7071 -0.7071 0.7071 0.7071 -11.1008 6.6133)" class="st4" width="3.4" height="3.4"/>
	<polygon id="XMLID_183_" class="st4" points="7.1,23.8 9.5,26.2 11.9,28.5 14.3,26.2 11.9,23.8 9.5,21.4 7.1,19 4.8,21.4 	"/>
	
		<rect id="XMLID_182_" x="0.7" y="5.5" transform="matrix(0.7071 -0.7071 0.7071 0.7071 -4.3791 3.8363)" class="st5" width="3.4" height="3.4"/>
	
		<rect id="XMLID_180_" x="0.7" y="24.5" transform="matrix(0.7071 -0.7071 0.7071 0.7071 -17.8245 9.3905)" class="st6" width="3.4" height="3.4"/>
	<polygon id="XMLID_6_" class="st5" points="14.3,16.6 11.9,14.3 9.5,11.9 7.1,9.5 4.8,11.9 7.1,14.3 9.5,16.6 11.9,19 14.3,16.7 	
		"/>
	<polygon id="XMLID_9_" class="st5" points="21.4,23.8 19,21.4 16.7,19 16.6,19 14.3,21.4 16.7,23.8 19,26.2 21.4,28.5 23.8,26.2 	
		"/>
	
		<rect id="XMLID_8_" x="9.2" y="17.4" transform="matrix(0.7071 -0.7071 0.7071 0.7071 -9.3064 15.6506)" class="st2" width="10.1" height="3.4"/>
</g>
<g>
	<path class="st7" d="M48.4,24.9c-0.7,0-1.3-0.2-1.9-0.5c-0.6-0.3-1-0.8-1.4-1.4s-0.5-1.2-0.5-1.9V9c0-0.7,0.2-1.3,0.5-1.9
		c0.3-0.6,0.8-1,1.4-1.4c0.6-0.3,1.2-0.5,1.9-0.5h15.9v3.7H49.1c-0.3,0-0.5,0.1-0.7,0.2c-0.2,0.2-0.3,0.4-0.3,0.7v10.6
		c0,0.3,0.1,0.5,0.3,0.7c0.2,0.2,0.4,0.3,0.7,0.3h15.2v3.7H48.4z"/>
	<path class="st7" d="M68.9,24.4c-0.6-0.3-1-0.8-1.4-1.4S67,21.8,67,21.1V3.7h3.6V21c0,0.1,0,0.2,0.1,0.2c0.1,0.1,0.1,0.1,0.2,0.1
		H74v3.6h-3.2C70.1,24.9,69.5,24.8,68.9,24.4z"/>
	<path class="st7" d="M79.9,24.9c-0.7,0-1.3-0.2-1.9-0.5c-0.6-0.3-1-0.8-1.4-1.4c-0.3-0.6-0.5-1.2-0.5-1.9v-6h12.6v-2.2
		c0-0.1,0-0.2-0.1-0.2c-0.1-0.1-0.1-0.1-0.2-0.1H76.1V9h12.4c0.7,0,1.3,0.2,1.9,0.5c0.6,0.3,1,0.8,1.4,1.4c0.3,0.6,0.5,1.2,0.5,1.9
		v12.2H79.9z M80,21.3h8.7v-2.9h-9V21c0,0.1,0,0.2,0.1,0.2C79.9,21.3,79.9,21.3,80,21.3z"/>
	<path class="st7" d="M97.1,24.4c-0.6-0.3-1-0.8-1.4-1.4c-0.3-0.6-0.5-1.2-0.5-1.9v-17h3.6V9h6.2v3.6h-6.2V21c0,0.1,0,0.2,0.1,0.2
		c0.1,0.1,0.1,0.1,0.2,0.1h5.9v3.6h-6C98.3,24.9,97.7,24.8,97.1,24.4z"/>
	<path class="st7" d="M107.7,24.9V3.8h3.6V9h8.8c0.7,0,1.3,0.2,1.9,0.5c0.6,0.3,1,0.8,1.4,1.4c0.3,0.6,0.5,1.2,0.5,1.9v12.2h-3.6
		v-12c0-0.1,0-0.2-0.1-0.2c-0.1-0.1-0.1-0.1-0.2-0.1h-8.3c-0.1,0-0.2,0-0.2,0.1c-0.1,0.1-0.1,0.1-0.1,0.2v12H107.7z"/>
	<path class="st7" d="M126,24.9V12.8c0-0.7,0.2-1.3,0.5-1.9c0.3-0.6,0.8-1,1.4-1.4s1.2-0.5,1.9-0.5h8.9v3.6h-8.7
		c-0.1,0-0.2,0-0.2,0.1c-0.1,0.1-0.1,0.1-0.1,0.2v12H126z"/>
	<path class="st7" d="M144.5,24.9c-0.7,0-1.3-0.2-1.9-0.5c-0.6-0.3-1-0.8-1.4-1.4c-0.3-0.6-0.5-1.2-0.5-1.9v-6h12.6v-2.2
		c0-0.1,0-0.2-0.1-0.2c-0.1-0.1-0.1-0.1-0.2-0.1h-12.3V9h12.4c0.7,0,1.3,0.2,1.9,0.5c0.6,0.3,1,0.8,1.4,1.4s0.5,1.2,0.5,1.9v12.2
		H144.5z M144.7,21.3h8.7v-2.9h-9V21c0,0.1,0,0.2,0.1,0.2S144.6,21.3,144.7,21.3z"/>
</g>
</svg>
