<?xml version="1.0" encoding="utf-8"?>
<!-- Generator: Adobe Illustrator 25.1.0, SVG Export Plug-In . SVG Version: 6.00 Build 0)  -->
<svg version="1.1" id="Layer_1" xmlns="http://www.w3.org/2000/svg" xmlns:xlink="http://www.w3.org/1999/xlink" x="0px" y="0px"
	 viewBox="0 0 199.1 28.6" style="enable-background:new 0 0 199.1 28.6;" xml:space="preserve">
<style type="text/css">
	.st0{fill:none;}
	.st1{fill:#F9B200;}
	.st2{fill:#059976;}
	.st3{fill:#425FBC;}
	.st4{fill:#FAD66D;}
	.st5{fill:#8892BD;}
	.st6{fill:#28D0AC;}
	.st7{fill:#222222;}
</style>
<g id="XMLID_215_">
	
		<rect id="XMLID_214_" x="12.6" y="3.1" transform="matrix(0.7071 -0.7071 0.7071 0.7071 0.8176 11.4863)" class="st0" width="3.4" height="3.4"/>
	
		<rect id="XMLID_213_" x="22.1" y="12.6" transform="matrix(0.7071 -0.7071 0.7071 0.7071 -3.1221 20.998)" class="st0" width="3.4" height="3.4"/>
	
		<rect id="XMLID_212_" x="3.1" y="12.6" transform="matrix(0.7071 -0.7071 0.7071 0.7071 -8.6968 7.5457)" class="st0" width="3.4" height="3.4"/>
	
		<rect id="XMLID_211_" x="12.6" y="12.6" transform="matrix(0.7071 -0.7071 0.7071 0.7071 -5.9095 14.271)" class="st0" width="3.4" height="3.4"/>
	
		<rect id="XMLID_210_" x="7.8" y="17.3" transform="matrix(0.7071 -0.7071 0.7071 0.7071 -10.6649 12.3024)" class="st0" width="3.4" height="3.4"/>
	
		<rect id="XMLID_209_" x="17.3" y="7.8" transform="matrix(0.7071 -0.7071 0.7071 0.7071 -1.1541 16.2417)" class="st0" width="3.4" height="3.4"/>
	
		<rect id="XMLID_208_" x="22.1" y="3.1" transform="matrix(0.7071 -0.7071 0.7071 0.7071 3.6039 18.213)" class="st0" width="3.4" height="3.4"/>
	
		<rect id="XMLID_207_" x="17.3" y="17.3" transform="matrix(0.7071 -0.7071 0.7071 0.7071 -7.8794 19.0285)" class="st0" width="3.4" height="3.4"/>
	
		<rect id="XMLID_206_" x="3.1" y="3.1" transform="matrix(0.7071 -0.7071 0.7071 0.7071 -1.9697 4.7582)" class="st0" width="3.4" height="3.4"/>
	
		<rect id="XMLID_205_" x="12.6" y="22.1" transform="matrix(0.7071 -0.7071 0.7071 0.7071 -12.6361 17.0576)" class="st0" width="3.4" height="3.4"/>
	
		<rect id="XMLID_204_" x="7.8" y="7.8" transform="matrix(0.7071 -0.7071 0.7071 0.7071 -3.9385 9.5169)" class="st0" width="3.4" height="3.4"/>
	
		<rect id="XMLID_203_" x="3.1" y="22.1" transform="matrix(0.7071 -0.7071 0.7071 0.7071 -15.4228 10.3323)" class="st0" width="3.4" height="3.4"/>
	
		<rect id="XMLID_202_" x="22.1" y="22.1" transform="matrix(0.7071 -0.7071 0.7071 0.7071 -9.8491 23.7853)" class="st0" width="3.4" height="3.4"/>
	<polygon id="XMLID_201_" class="st1" points="16.7,23.8 14.3,26.2 11.9,28.6 16.6,28.6 19,26.2 	"/>
	<polygon id="XMLID_200_" class="st2" points="7.1,23.8 4.8,26.2 2.4,28.6 7.1,28.6 9.5,26.2 	"/>
	<polygon id="XMLID_199_" class="st1" points="11.9,4.8 14.3,2.4 16.6,0 11.9,0 9.5,2.4 	"/>
	<polygon id="XMLID_198_" class="st2" points="21.4,4.8 23.8,2.4 26.2,0 21.4,0 19,2.4 	"/>
	<polygon id="XMLID_197_" class="st1" points="23.8,16.7 21.4,19 19,21.4 21.4,23.8 23.8,21.4 26.2,19 28.6,16.7 28.6,11.9 
		26.2,14.3 	"/>
	<polygon id="XMLID_196_" class="st2" points="23.8,7.1 21.4,9.5 19,11.9 21.4,14.3 23.8,11.9 26.2,9.5 28.6,7.1 28.6,2.4 26.2,4.8 
			"/>
	<polygon id="XMLID_195_" class="st2" points="16.6,9.5 19,7.1 16.7,4.8 14.3,7.1 11.9,9.5 9.5,11.9 11.9,14.3 14.3,11.9 	"/>
	<polygon id="XMLID_194_" class="st2" points="4.8,21.4 7.1,19 9.5,16.6 7.1,14.3 4.8,16.7 2.4,19 0,21.4 0,26.2 2.4,23.8 	"/>
	<polygon id="XMLID_193_" class="st3" points="23.8,26.2 21.4,28.6 26.2,28.6 28.6,26.2 28.6,21.4 26.2,23.8 	"/>
	<polygon id="XMLID_192_" class="st3" points="4.8,2.4 7.1,0 2.4,0 0,2.4 0,7.1 2.4,4.8 	"/>
	<polygon id="XMLID_191_" class="st1" points="4.8,11.9 7.1,9.5 9.5,7.1 7.1,4.8 4.8,7.1 2.4,9.5 0,11.9 0,16.7 2.4,14.3 	"/>
	<polygon id="XMLID_190_" class="st4" points="16.7,4.8 19,7.1 21.4,9.5 23.8,7.1 21.4,4.8 19,2.4 16.7,0 14.3,2.4 	"/>
	
		<rect id="XMLID_189_" x="24.5" y="10.2" transform="matrix(0.7071 -0.7071 0.7071 0.7071 -0.7436 21.9829)" class="st4" width="3.4" height="3.4"/>
	<polygon id="XMLID_188_" class="st5" points="7.1,4.8 9.5,7.1 11.9,9.5 14.3,7.1 11.9,4.8 9.5,2.4 7.1,0 4.8,2.4 	"/>
	
		<rect id="XMLID_187_" x="24.5" y="19.7" transform="matrix(0.7071 -0.7071 0.7071 0.7071 -7.4706 24.7702)" class="st5" width="3.4" height="3.4"/>
	<polygon id="XMLID_186_" class="st5" points="16.7,14.3 19,16.6 21.4,19 23.8,16.6 21.4,14.3 19,11.9 16.7,9.5 14.3,11.9 	"/>
	
		<rect id="XMLID_185_" x="24.5" y="0.7" transform="matrix(0.7071 -0.7071 0.7071 0.7071 5.981 19.1981)" class="st6" width="3.4" height="3.4"/>
	
		<rect id="XMLID_184_" x="0.7" y="15" transform="matrix(0.7071 -0.7071 0.7071 0.7071 -11.073 6.56)" class="st4" width="3.4" height="3.4"/>
	<polygon id="XMLID_183_" class="st4" points="7.1,23.8 9.5,26.2 11.9,28.5 14.3,26.2 11.9,23.8 9.5,21.4 7.1,19 4.8,21.4 	"/>
	
		<rect id="XMLID_182_" x="0.7" y="5.5" transform="matrix(0.7071 -0.7071 0.7071 0.7071 -4.3469 3.7751)" class="st5" width="3.4" height="3.4"/>
	
		<rect id="XMLID_180_" x="0.7" y="24.5" transform="matrix(0.7071 -0.7071 0.7071 0.7071 -17.8 9.3473)" class="st6" width="3.4" height="3.4"/>
	<polygon id="XMLID_6_" class="st5" points="14.3,16.6 11.9,14.3 9.5,11.9 7.1,9.5 4.8,11.9 7.1,14.3 9.5,16.6 11.9,19 14.3,16.7 	
		"/>
	<polygon id="XMLID_9_" class="st5" points="21.4,23.8 19,21.4 16.7,19 16.6,19 14.3,21.4 16.7,23.8 19,26.2 21.4,28.5 23.8,26.2 	
		"/>
	
		<rect id="XMLID_8_" x="9.2" y="17.3" transform="matrix(0.7071 -0.7071 0.7071 0.7071 -9.2723 15.6654)" class="st2" width="10.1" height="3.4"/>
</g>
<g>
	<path class="st7" d="M48,24.3c-0.7,0-1.3-0.2-1.9-0.5c-0.6-0.3-1-0.8-1.4-1.4c-0.3-0.6-0.5-1.2-0.5-1.9V8.1c0-0.7,0.2-1.3,0.5-1.9
		s0.8-1,1.4-1.4c0.6-0.3,1.2-0.5,1.9-0.5h16.1v3.3H48.6c-0.3,0-0.5,0.1-0.7,0.3c-0.2,0.2-0.3,0.4-0.3,0.7v11.3
		c0,0.3,0.1,0.5,0.3,0.7c0.2,0.2,0.4,0.3,0.7,0.3h15.6v3.3H48z"/>
	<path class="st7" d="M67.1,24.3v-20h3.3v16.6H87v3.3H67.1z"/>
	<path class="st7" d="M88.7,8.1c0-0.7,0.2-1.3,0.5-1.9c0.3-0.6,0.8-1,1.4-1.4s1.2-0.5,1.9-0.5h12.5c0.7,0,1.3,0.2,1.9,0.5
		s1,0.8,1.4,1.4c0.3,0.6,0.5,1.2,0.5,1.9v16.2h-3.3v-6.8H92v6.8h-3.3V8.1z M105.2,14.1V8.2c0-0.1-0.1-0.2-0.2-0.3
		c-0.1-0.1-0.2-0.2-0.3-0.2H92.5c-0.1,0-0.2,0.1-0.3,0.2C92,7.9,92,8.1,92,8.2v5.9H105.2z"/>
	<path class="st7" d="M119.1,24.3V7.7h-8.3V4.3h19.9v3.3h-8.3v16.6H119.1z"/>
	<path class="st7" d="M132.8,24.3V4.3h3.3v8.3h13.7V4.3h3.3v19.9h-3.3V16h-13.7v8.3H132.8z"/>
	<path class="st7" d="M156.3,24.3V4.4h16.2c0.7,0,1.3,0.2,1.9,0.5c0.6,0.3,1,0.8,1.4,1.4s0.5,1.2,0.5,1.9v5.5c0,0.7-0.2,1.3-0.5,1.9
		c-0.3,0.6-0.8,1-1.4,1.4c-0.6,0.3-1.2,0.5-1.9,0.5l-12.9,0v6.9H156.3z M160.1,13.9h12.3c0.1,0,0.2,0,0.3-0.1
		c0.1-0.1,0.2-0.2,0.2-0.4V8.2c0-0.1-0.1-0.2-0.2-0.3c-0.1-0.1-0.2-0.2-0.3-0.2h-12.3c-0.1,0-0.2,0.1-0.3,0.2
		c-0.1,0.1-0.2,0.2-0.2,0.3v5.3c0,0.1,0.1,0.3,0.2,0.4C159.9,13.9,160,13.9,160.1,13.9z M172.4,24.3l-6.1-7.3h4.3l5.5,6.5v0.8H172.4
		z"/>
	<path class="st7" d="M179.2,8.1c0-0.7,0.2-1.3,0.5-1.9s0.8-1,1.4-1.4c0.6-0.3,1.2-0.5,1.9-0.5h12.5c0.7,0,1.3,0.2,1.9,0.5
		s1,0.8,1.4,1.4c0.3,0.6,0.5,1.2,0.5,1.9v16.2h-3.3v-6.8h-13.3v6.8h-3.3V8.1z M195.8,14.1V8.2c0-0.1-0.1-0.2-0.2-0.3
		c-0.1-0.1-0.2-0.2-0.3-0.2H183c-0.1,0-0.2,0.1-0.3,0.2c-0.1,0.1-0.2,0.2-0.2,0.3v5.9H195.8z"/>
</g>
</svg>
