<?xml version="1.0" encoding="UTF-8"?>
<svg id="Layer_1" data-name="Layer 1" xmlns="http://www.w3.org/2000/svg" viewBox="0 0 450 450">
  <defs>
    <style>
      .cls-1 {
        fill: none;
      }

      .cls-2 {
        fill: #4961ad;
      }

      .cls-3 {
        fill: #8992bd;
      }

      .cls-4 {
        fill: #f7b219;
      }

      .cls-5 {
        fill: #029977;
      }
    </style>
  </defs>
  <rect class="cls-1" x="195.74" y="195.45" width="58.88" height="58.88" transform="translate(-93.07 225.09) rotate(-45)"/>
  <path class="cls-1" d="M58.52,266.64l41.75-41.75h0L16.21,141.02C5.76,166.97,0,195.31,0,225s5.75,57.95,16.17,83.87l.59-.59,41.76-41.64Z"/>
  <path class="cls-1" d="M183.54,224.89l-41.64-41.64,41.52-41.52.11-.11-41.64-41.64-41.64-41.64-12.01-12.01c-15.71,12.04-29.78,26.11-41.84,41.81l95.49,95.11,41.64,41.64Z"/>
  <path class="cls-1" d="M183.54,58.34l41.64,41.64,83.68-83.82C282.94,5.74,254.64,0,225,0s-57.83,5.72-83.7,16.1l.61.61,41.64,41.64Z"/>
  <path class="cls-1" d="M266.82,308.17l41.64,41.64,41.64,41.64,11.98,11.98c15.62-12.02,29.62-26.05,41.62-41.7l-95.24-95.2-41.64,41.64Z"/>
  <path class="cls-1" d="M225.18,183.25l-.11.11-41.52,41.52,41.64,41.64-.11.11-41.52,41.52-41.64-41.64-41.75,41.75-41.64,41.64-12.04,12.03c12.03,15.67,26.08,29.7,41.76,41.72l178.58-178.77-41.64-41.64Z"/>
  <path class="cls-1" d="M266.82,391.44l-41.63-41.63-84.03,84.04c25.91,10.41,54.21,16.16,83.85,16.16s58.13-5.78,84.11-16.27l-.66-.66-41.64-41.64Z"/>
  <path class="cls-1" d="M391.61,183.37l-41.52,41.52,83.79,83.88c10.39-25.89,16.12-54.16,16.12-83.77s-5.74-57.93-16.16-83.85l-.58.58-41.65,41.64Z"/>
  <path class="cls-1" d="M349.94,58.19l-83.23,83.54.11-.11,41.64,41.64,41.52-41.52,41.64-41.64,11.97-11.96c-11.99-15.62-25.98-29.62-41.6-41.62l-11.89,11.83-.15-.15Z"/>
  <path class="cls-5" d="M225.18,99.98l-41.64,41.64h0l-.11.11-41.52,41.52,41.64,41.64,41.52-41.52.11-.11h0l41.52-41.52,83.23-83.54.15.15,11.89-11.83c-16.12-12.39-33.97-22.65-53.12-30.35l-83.68,83.82h0Z"/>
  <polygon class="cls-3" points="225.18 99.98 225.18 99.98 225.07 100.09 183.54 141.62 183.54 141.62 225.18 99.98"/>
  <path class="cls-2" d="M350.09,224.89l-41.64-41.64-41.64-41.64-.11.11h0s-41.52,41.52-41.52,41.52l41.64,41.64,41.64,41.64,95.24,95.2c12.32-16.08,22.53-33.87,30.19-52.96l-83.79-83.88Z"/>
  <rect class="cls-3" x="216.58" y="162.49" width="58.72" height="0" transform="translate(-42.86 221.5) rotate(-45)"/>
  <path class="cls-5" d="M225.18,349.8l41.52-41.52.11-.11h0s41.64-41.64,41.64-41.64l-41.64-41.64-178.58,178.77c16.07,12.32,33.84,22.52,52.91,30.18l84.03-84.04h0Z"/>
  <path class="cls-1" d="M183.54,224.89l41.64,41.64-.11.11-41.52,41.52-41.64-41.64-41.64-41.64h0l-37.2-37.12c-2.75,12.07-4.17,24.54-4.17,37.22,0,44.37,17.28,86.08,48.65,117.45,31.37,31.37,73.08,48.65,117.45,48.65s86.08-17.28,117.45-48.65c31.37-31.37,48.65-73.08,48.65-117.45s-17.28-86.08-48.65-117.45c-31.37-31.37-73.08-48.65-117.45-48.65s-86.08,17.28-117.45,48.65c-7.04,7.04-13.37,14.61-18.95,22.6l53.31,53.1,41.64,41.64Z"/>
  <path class="cls-4" d="M20.92,130.16c1.54-3.31,3.16-6.58,4.86-9.81-1.7,3.22-3.32,6.49-4.86,9.81Z"/>
  <path class="cls-4" d="M26,119.95c1.74-3.29,3.56-6.53,5.45-9.72-1.9,3.19-3.71,6.43-5.45,9.72Z"/>
  <path class="cls-4" d="M19.21,133.92c.49-1.11,1-2.22,1.51-3.33-.51,1.1-1.02,2.21-1.51,3.33Z"/>
  <path class="cls-3" d="M20.72,130.59c.07-.14.13-.29.2-.43-.07.14-.13.29-.2.43Z"/>
  <path class="cls-3" d="M19.18,133.99s.02-.04.03-.07c0,.02-.02.04-.03.07Z"/>
  <path class="cls-3" d="M25.78,120.36c.07-.14.14-.27.22-.41-.07.14-.14.27-.22.41Z"/>
  <path class="cls-3" d="M31.45,110.23s.04-.07.06-.1c-.02.03-.04.07-.06.1Z"/>
  <path class="cls-2" d="M100.27,224.89h0l41.64,41.64,41.64,41.64,41.52-41.52.11-.11-41.64-41.64-41.64-41.64-53.31-53.1c-12.18,17.44-20.82,36.95-25.53,57.62l37.2,37.12Z"/>
  <path class="cls-4" d="M225,0C152.23,0,87.55,34.56,46.42,88.14h0c-.07.09-.14.18-.21.28-1.19,1.56-2.37,3.14-3.52,4.73-.16.22-.33.45-.49.68-1.15,1.6-2.28,3.21-3.38,4.84-.14.21-.28.42-.42.63-1.12,1.66-2.23,3.34-3.31,5.03-.09.15-.18.29-.28.44-1.12,1.77-2.22,3.56-3.3,5.36-.02.03-.04.07-.06.1-1.9,3.19-3.71,6.43-5.45,9.72-.07.14-.14.27-.22.41-1.7,3.22-3.32,6.49-4.86,9.81-.07.14-.13.29-.2.43-.51,1.1-1.02,2.21-1.51,3.33,0,.02-.02.04-.03.07-.69,1.55-1.35,3.11-2,4.68-.16.38-.32.76-.47,1.15-.16.4-.33.8-.5,1.21h.01C5.77,166.98,0,195.31,0,225,0,349.26,100.74,450,225,450s225-100.74,225-225S349.26,0,225,0ZM342.45,342.45c-31.37,31.37-73.08,48.65-117.45,48.65s-86.08-17.28-117.45-48.65-48.65-73.08-48.65-117.45c0-12.69,1.42-25.15,4.17-37.22,4.71-20.67,13.34-40.18,25.53-57.62,5.59-8,11.91-15.56,18.95-22.6,31.37-31.37,73.08-48.65,117.45-48.65s86.08,17.28,117.45,48.65,48.65,73.08,48.65,117.45-17.28,86.08-48.65,117.45Z"/>
  <polygon class="cls-3" points="100.27 224.89 100.27 224.89 141.91 266.53 141.91 266.53 141.91 266.53 100.27 224.89"/>
  <path class="cls-5" d="M100.16,308.28l41.75-41.75h0l-41.64-41.64-41.75,41.75-41.76,41.64-.59.59c7.69,19.13,17.94,36.96,30.31,53.07l12.04-12.03,41.64-41.64Z"/>
  <path class="cls-5" d="M349.98,141.73l-41.52,41.52,41.64,41.64,41.52-41.52,41.65-41.64.58-.58c-7.68-19.11-17.91-36.92-30.27-53.02l-11.97,11.96-41.64,41.64Z"/>
  <path class="cls-2" d="M141.91,99.98l41.64,41.64,41.52-41.52.11-.11-41.64-41.64-41.64-41.64-.61-.61c-19.12,7.67-36.94,17.89-53.04,30.23l12.01,12.01,41.64,41.64Z"/>
  <path class="cls-2" d="M308.45,349.8l-41.64-41.64-41.64,41.64,41.63,41.63,41.64,41.64.66.66c19.09-7.7,36.88-17.95,52.96-30.31l-11.98-11.98-41.64-41.64Z"/>
  <polygon class="cls-5" points="266.7 308.28 225.18 349.8 225.18 349.8 266.82 308.17 266.82 308.16 266.7 308.28"/>
</svg>